<?xml version="1.0" encoding="UTF-8" standalone="no"?>
<!-- Created with Inkscape (http://www.inkscape.org/) -->

<svg
   width="183.09157mm"
   height="61.024479mm"
   viewBox="0 0 183.09157 61.024479"
   version="1.1"
   id="svg1"
   xml:space="preserve"
   inkscape:version="1.4.2 (ebf0e940d0, 2025-05-08)"
   sodipodi:docname="nsight-logo.svg"
   xmlns:inkscape="http://www.inkscape.org/namespaces/inkscape"
   xmlns:sodipodi="http://sodipodi.sourceforge.net/DTD/sodipodi-0.dtd"
   xmlns="http://www.w3.org/2000/svg"
   xmlns:svg="http://www.w3.org/2000/svg"><sodipodi:namedview
     id="namedview1"
     pagecolor="#ffffff"
     bordercolor="#000000"
     borderopacity="0.25"
     inkscape:showpageshadow="2"
     inkscape:pageopacity="0.0"
     inkscape:pagecheckerboard="true"
     inkscape:deskcolor="#d1d1d1"
     inkscape:document-units="mm"
     inkscape:zoom="0.57103676"
     inkscape:cx="360.74736"
     inkscape:cy="391.39337"
     inkscape:window-width="1536"
     inkscape:window-height="891"
     inkscape:window-x="0"
     inkscape:window-y="0"
     inkscape:window-maximized="1"
     inkscape:current-layer="layer1" /><defs
     id="defs1" /><g
     inkscape:label="Layer 1"
     inkscape:groupmode="layer"
     id="layer1"
     transform="translate(-9.5882875,-44.9625)"><path
       style="fill:#f9f9f9"
       d="m 109.99766,105.83104 c -6.89079,-0.9415 -11.312429,-4.8166 -12.130289,-10.630925 l -0.13957,-0.99218 h 4.468899 4.46891 l 0.5082,1.12448 c 1.34287,2.97126 5.11252,4.46819 9.17934,3.64512 4.1893,-0.84785 5.94763,-3.46456 5.94763,-8.8511 v -2.37868 l -1.12447,1.07232 c -2.48612,2.37078 -4.58387,3.23367 -8.40053,3.45549 -2.08448,0.12115 -2.88377,0.0458 -4.68251,-0.44124 -7.45279,-2.01807 -11.827619,-9.55103 -10.890769,-18.75266 0.92182,-9.05401 7.336139,-14.97014 15.753989,-14.53041 2.09325,0.10934 2.70799,0.25909 4.4398,1.08152 1.31873,0.62627 2.50685,1.45133 3.45425,2.39874 0.79427,0.79426 1.48761,1.36396 1.54076,1.266 0.0531,-0.098 0.24996,-1.10086 0.43736,-2.22865 l 0.34073,-2.05052 h 3.95094 3.95094 l -0.10848,17.79323 c -0.11896,19.51149 -0.0706,18.90635 -1.76419,22.08382 -1.69405,3.178365 -5.29219,5.735815 -9.24869,6.573695 -2.29933,0.48693 -7.621,0.68048 -9.95225,0.36195 z m 7.2618,-21.317945 c 3.50746,-1.44524 5.52568,-6.00195 4.80486,-10.84837 -0.72033,-4.84314 -3.6596,-7.76721 -7.80761,-7.76721 -2.266,0 -3.75303,0.57755 -5.23168,2.03195 -4.21848,4.14929 -3.83211,12.38242 0.74491,15.87348 1.73941,1.32671 5.19745,1.6546 7.48952,0.71015 z M 9.5882875,90.768345 v -2.11666 H 22.949746 36.311204 v 2.11666 2.11667 H 22.949746 9.5882875 Z m 46.4343745,1.46838 c -2.951187,-0.77121 -4.461328,-1.41888 -6.437667,-2.76099 -3.39241,-2.30374 -5.723171,-6.20591 -6.260491,-10.48135 l -0.166259,-1.32291 4.606083,0.0776 4.606083,0.0776 0.429812,1.54595 c 0.617771,2.222 1.82603,3.67045 3.978678,4.76961 1.577999,0.80574 2.08361,0.92735 4.249519,1.02208 2.734312,0.11958 4.719523,-0.30551 6.231328,-1.33431 1.508372,-1.02647 1.964638,-1.87801 2.077618,-3.87747 0.09734,-1.72267 0.06344,-1.84681 -0.760528,-2.78526 -0.474324,-0.54022 -1.318797,-1.21506 -1.876607,-1.49963 -1.163737,-0.5937 -5.88971,-1.85462 -9.365152,-2.49868 -1.303913,-0.24165 -3.600239,-0.91761 -5.102948,-1.50214 -2.278181,-0.88618 -3.007262,-1.3201 -4.387494,-2.61124 -2.250541,-2.10527 -3.336769,-4.42303 -3.530858,-7.53403 -0.270107,-4.32949 0.897766,-7.46066 3.894228,-10.44075 3.093236,-3.07634 7.211559,-4.58468 12.577155,-4.6064 3.758793,-0.0152 5.799168,0.43741 9.128125,2.02495 4.401752,2.09913 7.426478,6.15787 8.085609,10.84968 l 0.176557,1.25677 h -4.66025 c -3.5517,0 -4.660299,-0.0787 -4.660458,-0.33073 -5.32e-4,-0.84195 -1.606177,-3.61506 -2.537753,-4.38294 -1.794737,-1.47938 -4.87357,-2.15628 -7.418503,-1.63101 -3.319221,0.68507 -4.884848,2.14831 -5.07236,4.74063 -0.134516,1.85966 0.347613,2.92419 1.74089,3.84385 1.429699,0.9437 2.687194,1.32814 8.305346,2.53914 8.445778,1.82049 11.267028,3.19744 13.41745,6.54858 2.193624,3.41847 2.133578,9.40736 -0.132224,13.1879 -3.031915,5.05881 -8.570304,7.78203 -15.763201,7.75074 -2.255742,-0.01 -3.575532,-0.1659 -5.371728,-0.63528 z m 27.913541,-16.41734 v -16.80104 h 4.365625 4.365625 v 16.80104 16.80105 h -4.365625 -4.365625 z m 52.916667,-6.08541 v -22.88646 h 4.49791 4.49792 v 8.12599 8.12599 l 1.25677,-1.22015 c 2.41282,-2.34252 5.89398,-3.55852 9.47034,-3.30808 4.71435,0.33013 8.55123,2.75015 10.38846,6.55227 1.5127,3.13053 1.66825,4.54291 1.82635,16.58283 l 0.14331,10.91407 h -4.51717 -4.51717 l -0.0816,-10.51719 c -0.079,-10.17909 -0.10064,-10.56397 -0.67321,-11.9724 -1.14438,-2.81499 -2.92907,-4.04102 -5.88773,-4.0447 -3.16813,-0.004 -5.26372,1.40835 -6.69855,4.51439 -0.55748,1.20679 -0.58036,1.60993 -0.66028,11.635 l -0.0828,10.3849 h -4.48127 -4.48127 z m 45.9052,22.49115 c -2.4167,-0.53775 -3.40861,-1.05781 -4.60081,-2.41222 -1.87653,-2.13185 -1.95826,-2.66299 -2.0821,-13.53049 l -0.1093,-9.59115 h -2.62316 -2.62317 v -3.83646 -3.83646 h 2.64584 2.64583 v -4.7689 -4.76889 l 4.43177,0.0725 4.43177,0.0725 0.0722,4.69636 0.0722,4.69635 h 3.69806 3.69807 v 3.83646 3.83646 h -3.70417 -3.70417 v 8.21139 c 0,9.05556 0.0236,9.19544 1.64444,9.76048 0.44868,0.15641 1.98864,0.28438 3.42213,0.28438 h 2.60635 v 3.83646 3.83646 l -4.16719,-0.021 c -2.42473,-0.0122 -4.83098,-0.16873 -5.75469,-0.37427 z M 9.5882875,71.724905 v -13.50031 h 3.8003055 3.800304 l 0.335221,1.57963 0.335221,1.57964 1.179332,-1.03809 c 2.167977,-1.90833 3.212743,-2.25347 6.821492,-2.25347 2.969458,0 3.266469,0.0482 4.587931,0.74416 1.968903,1.03697 3.619126,2.63982 4.385326,4.25943 1.113891,2.35458 1.313822,4.38615 1.330255,13.51724 l 0.01524,8.46667 -4.299479,0.0727 -4.299479,0.0727 v -7.62388 c 0,-8.5372 -0.221675,-10.17948 -1.55545,-11.52357 -1.599589,-1.61196 -4.894243,-1.44046 -6.321269,0.32905 -1.235043,1.53144 -1.245093,1.60653 -1.383697,10.33863 l -0.132292,8.33437 -4.299479,0.0727 -4.2994795,0.0727 z M 87.508078,55.136755 c -0.291042,-0.0593 -0.794874,-0.16438 -1.119627,-0.23357 -0.963728,-0.20535 -2.38573,-1.6461 -2.86607,-2.90385 -1.732875,-4.53747 2.998848,-8.67103 7.313803,-6.38923 1.645405,0.87012 2.717797,2.91644 2.559857,4.8847 -0.129038,1.60813 -1.170151,3.32676 -2.452043,4.04774 -0.842717,0.47397 -2.564319,0.7717 -3.43592,0.59421 z"
       id="path1" /></g></svg>
