<?xml version="1.0" encoding="utf-8" standalone="no"?>
<!DOCTYPE svg PUBLIC "-//W3C//DTD SVG 1.1//EN"
  "http://www.w3.org/Graphics/SVG/1.1/DTD/svg11.dtd">
<svg xmlns:xlink="http://www.w3.org/1999/xlink" width="781.775471pt" height="555.516273pt" viewBox="0 0 781.775471 555.516273" xmlns="http://www.w3.org/2000/svg" version="1.1">
 <metadata>
  <rdf:RDF xmlns:dc="http://purl.org/dc/elements/1.1/" xmlns:cc="http://creativecommons.org/ns#" xmlns:rdf="http://www.w3.org/1999/02/22-rdf-syntax-ns#">
   <cc:Work>
    <dc:type rdf:resource="http://purl.org/dc/dcmitype/StillImage"/>
    <dc:date>2026-06-09T17:20:51.901934</dc:date>
    <dc:format>image/svg+xml</dc:format>
    <dc:creator>
     <cc:Agent>
      <dc:title>Matplotlib v3.10.9, https://matplotlib.org/</dc:title>
     </cc:Agent>
    </dc:creator>
   </cc:Work>
  </rdf:RDF>
 </metadata>
 <defs>
  <style type="text/css">*{stroke-linejoin: round; stroke-linecap: butt}</style>
 </defs>
 <g id="figure_1">
  <g id="patch_1">
   <path d="M 0 555.516273 
L 781.775471 555.516273 
L 781.775471 0 
L 0 0 
z
" style="fill: #f4efe6"/>
  </g>
  <g id="axes_1">
   <g id="patch_2">
    <path d="M 600.804 287.64 
C 600.804 257.790712 594.924341 228.231671 583.501513 200.654525 
C 572.078685 173.077379 555.334834 148.018434 534.2282 126.9118 
C 513.121566 105.805166 488.062621 89.061315 460.485475 77.638487 
C 432.908329 66.215659 403.349288 60.336 373.5 60.336 
C 343.650712 60.336 314.091671 66.215659 286.514525 77.638487 
C 258.937379 89.061315 233.878434 105.805166 212.7718 126.9118 
C 191.665166 148.018434 174.921315 173.077379 163.498487 200.654525 
C 152.075659 228.231671 146.196 257.790712 146.196 287.64 
C 146.196 317.489288 152.075659 347.048329 163.498487 374.625475 
C 174.921315 402.202621 191.665166 427.261566 212.7718 448.3682 
C 233.878434 469.474834 258.937379 486.218685 286.514525 497.641513 
C 314.091671 509.064341 343.650712 514.944 373.5 514.944 
C 403.349288 514.944 432.908329 509.064341 460.485475 497.641513 
C 488.062621 486.218685 513.121566 469.474834 534.2282 448.3682 
C 555.334834 427.261566 572.078685 402.202621 583.501513 374.625475 
C 594.924341 347.048329 600.804 317.489288 600.804 287.64 
M 373.5 287.64 
C 373.5 287.64 373.5 287.64 373.5 287.64 
C 373.5 287.64 373.5 287.64 373.5 287.64 
C 373.5 287.64 373.5 287.64 373.5 287.64 
C 373.5 287.64 373.5 287.64 373.5 287.64 
C 373.5 287.64 373.5 287.64 373.5 287.64 
C 373.5 287.64 373.5 287.64 373.5 287.64 
C 373.5 287.64 373.5 287.64 373.5 287.64 
C 373.5 287.64 373.5 287.64 373.5 287.64 
C 373.5 287.64 373.5 287.64 373.5 287.64 
C 373.5 287.64 373.5 287.64 373.5 287.64 
C 373.5 287.64 373.5 287.64 373.5 287.64 
C 373.5 287.64 373.5 287.64 373.5 287.64 
C 373.5 287.64 373.5 287.64 373.5 287.64 
C 373.5 287.64 373.5 287.64 373.5 287.64 
C 373.5 287.64 373.5 287.64 373.5 287.64 
C 373.5 287.64 373.5 287.64 373.5 287.64 
z
" style="fill: #f4efe6"/>
   </g>
   <g id="matplotlib.axis_1">
    <g id="xtick_1">
     <g id="line2d_1">
      <path d="M 373.5 287.64 
L 373.5 60.336 
" clip-path="url(#pc696b7db05)" style="fill: none; stroke: #ddd5c6; stroke-width: 0.8; stroke-linecap: square"/>
     </g>
     <g id="text_1">
      <!-- Ahne -->
      <g style="fill: #2b2b2b" transform="translate(362.590781 38.181469) scale(0.085 -0.085)">
       <defs>
        <path id="DejaVuSans-41" d="M 2188 4044 
L 1331 1722 
L 3047 1722 
L 2188 4044 
z
M 1831 4666 
L 2547 4666 
L 4325 0 
L 3669 0 
L 3244 1197 
L 1141 1197 
L 716 0 
L 50 0 
L 1831 4666 
z
" transform="scale(0.015625)"/>
        <path id="DejaVuSans-68" d="M 3513 2113 
L 3513 0 
L 2938 0 
L 2938 2094 
Q 2938 2591 2744 2837 
Q 2550 3084 2163 3084 
Q 1697 3084 1428 2787 
Q 1159 2491 1159 1978 
L 1159 0 
L 581 0 
L 581 4863 
L 1159 4863 
L 1159 2956 
Q 1366 3272 1645 3428 
Q 1925 3584 2291 3584 
Q 2894 3584 3203 3211 
Q 3513 2838 3513 2113 
z
" transform="scale(0.015625)"/>
        <path id="DejaVuSans-6e" d="M 3513 2113 
L 3513 0 
L 2938 0 
L 2938 2094 
Q 2938 2591 2744 2837 
Q 2550 3084 2163 3084 
Q 1697 3084 1428 2787 
Q 1159 2491 1159 1978 
L 1159 0 
L 581 0 
L 581 3500 
L 1159 3500 
L 1159 2956 
Q 1366 3272 1645 3428 
Q 1925 3584 2291 3584 
Q 2894 3584 3203 3211 
Q 3513 2838 3513 2113 
z
" transform="scale(0.015625)"/>
        <path id="DejaVuSans-65" d="M 3597 1894 
L 3597 1613 
L 953 1613 
Q 991 1019 1311 708 
Q 1631 397 2203 397 
Q 2534 397 2845 478 
Q 3156 559 3463 722 
L 3463 178 
Q 3153 47 2828 -22 
Q 2503 -91 2169 -91 
Q 1331 -91 842 396 
Q 353 884 353 1716 
Q 353 2575 817 3079 
Q 1281 3584 2069 3584 
Q 2775 3584 3186 3129 
Q 3597 2675 3597 1894 
z
M 3022 2063 
Q 3016 2534 2758 2815 
Q 2500 3097 2075 3097 
Q 1594 3097 1305 2825 
Q 1016 2553 972 2059 
L 3022 2063 
z
" transform="scale(0.015625)"/>
       </defs>
       <use xlink:href="#DejaVuSans-41"/>
       <use xlink:href="#DejaVuSans-68" transform="translate(68.408203 0)"/>
       <use xlink:href="#DejaVuSans-6e" transform="translate(131.787109 0)"/>
       <use xlink:href="#DejaVuSans-65" transform="translate(195.166016 0)"/>
      </g>
     </g>
    </g>
    <g id="xtick_2">
     <g id="line2d_2">
      <path d="M 373.5 287.64 
L 472.123509 82.846172 
" clip-path="url(#pc696b7db05)" style="fill: none; stroke: #ddd5c6; stroke-width: 0.8; stroke-linecap: square"/>
     </g>
     <g id="text_2">
      <!-- Välinpitämätön -->
      <g style="fill: #2b2b2b" transform="translate(450.662841 63.117904) scale(0.085 -0.085)">
       <defs>
        <path id="DejaVuSans-56" d="M 1831 0 
L 50 4666 
L 709 4666 
L 2188 738 
L 3669 4666 
L 4325 4666 
L 2547 0 
L 1831 0 
z
" transform="scale(0.015625)"/>
        <path id="DejaVuSans-e4" d="M 2194 1759 
Q 1497 1759 1228 1600 
Q 959 1441 959 1056 
Q 959 750 1161 570 
Q 1363 391 1709 391 
Q 2188 391 2477 730 
Q 2766 1069 2766 1631 
L 2766 1759 
L 2194 1759 
z
M 3341 1997 
L 3341 0 
L 2766 0 
L 2766 531 
Q 2569 213 2275 61 
Q 1981 -91 1556 -91 
Q 1019 -91 701 211 
Q 384 513 384 1019 
Q 384 1609 779 1909 
Q 1175 2209 1959 2209 
L 2766 2209 
L 2766 2266 
Q 2766 2663 2505 2880 
Q 2244 3097 1772 3097 
Q 1472 3097 1187 3025 
Q 903 2953 641 2809 
L 641 3341 
Q 956 3463 1253 3523 
Q 1550 3584 1831 3584 
Q 2591 3584 2966 3190 
Q 3341 2797 3341 1997 
z
M 2150 4850 
L 2784 4850 
L 2784 4219 
L 2150 4219 
L 2150 4850 
z
M 928 4850 
L 1562 4850 
L 1562 4219 
L 928 4219 
L 928 4850 
z
" transform="scale(0.015625)"/>
        <path id="DejaVuSans-6c" d="M 603 4863 
L 1178 4863 
L 1178 0 
L 603 0 
L 603 4863 
z
" transform="scale(0.015625)"/>
        <path id="DejaVuSans-69" d="M 603 3500 
L 1178 3500 
L 1178 0 
L 603 0 
L 603 3500 
z
M 603 4863 
L 1178 4863 
L 1178 4134 
L 603 4134 
L 603 4863 
z
" transform="scale(0.015625)"/>
        <path id="DejaVuSans-70" d="M 1159 525 
L 1159 -1331 
L 581 -1331 
L 581 3500 
L 1159 3500 
L 1159 2969 
Q 1341 3281 1617 3432 
Q 1894 3584 2278 3584 
Q 2916 3584 3314 3078 
Q 3713 2572 3713 1747 
Q 3713 922 3314 415 
Q 2916 -91 2278 -91 
Q 1894 -91 1617 61 
Q 1341 213 1159 525 
z
M 3116 1747 
Q 3116 2381 2855 2742 
Q 2594 3103 2138 3103 
Q 1681 3103 1420 2742 
Q 1159 2381 1159 1747 
Q 1159 1113 1420 752 
Q 1681 391 2138 391 
Q 2594 391 2855 752 
Q 3116 1113 3116 1747 
z
" transform="scale(0.015625)"/>
        <path id="DejaVuSans-74" d="M 1172 4494 
L 1172 3500 
L 2356 3500 
L 2356 3053 
L 1172 3053 
L 1172 1153 
Q 1172 725 1289 603 
Q 1406 481 1766 481 
L 2356 481 
L 2356 0 
L 1766 0 
Q 1100 0 847 248 
Q 594 497 594 1153 
L 594 3053 
L 172 3053 
L 172 3500 
L 594 3500 
L 594 4494 
L 1172 4494 
z
" transform="scale(0.015625)"/>
        <path id="DejaVuSans-6d" d="M 3328 2828 
Q 3544 3216 3844 3400 
Q 4144 3584 4550 3584 
Q 5097 3584 5394 3201 
Q 5691 2819 5691 2113 
L 5691 0 
L 5113 0 
L 5113 2094 
Q 5113 2597 4934 2840 
Q 4756 3084 4391 3084 
Q 3944 3084 3684 2787 
Q 3425 2491 3425 1978 
L 3425 0 
L 2847 0 
L 2847 2094 
Q 2847 2600 2669 2842 
Q 2491 3084 2119 3084 
Q 1678 3084 1418 2786 
Q 1159 2488 1159 1978 
L 1159 0 
L 581 0 
L 581 3500 
L 1159 3500 
L 1159 2956 
Q 1356 3278 1631 3431 
Q 1906 3584 2284 3584 
Q 2666 3584 2933 3390 
Q 3200 3197 3328 2828 
z
" transform="scale(0.015625)"/>
        <path id="DejaVuSans-f6" d="M 1959 3097 
Q 1497 3097 1228 2736 
Q 959 2375 959 1747 
Q 959 1119 1226 758 
Q 1494 397 1959 397 
Q 2419 397 2687 759 
Q 2956 1122 2956 1747 
Q 2956 2369 2687 2733 
Q 2419 3097 1959 3097 
z
M 1959 3584 
Q 2709 3584 3137 3096 
Q 3566 2609 3566 1747 
Q 3566 888 3137 398 
Q 2709 -91 1959 -91 
Q 1206 -91 779 398 
Q 353 888 353 1747 
Q 353 2609 779 3096 
Q 1206 3584 1959 3584 
z
M 2254 4850 
L 2888 4850 
L 2888 4219 
L 2254 4219 
L 2254 4850 
z
M 1032 4850 
L 1666 4850 
L 1666 4219 
L 1032 4219 
L 1032 4850 
z
" transform="scale(0.015625)"/>
       </defs>
       <use xlink:href="#DejaVuSans-56"/>
       <use xlink:href="#DejaVuSans-e4" transform="translate(60.658203 0)"/>
       <use xlink:href="#DejaVuSans-6c" transform="translate(121.9375 0)"/>
       <use xlink:href="#DejaVuSans-69" transform="translate(149.720703 0)"/>
       <use xlink:href="#DejaVuSans-6e" transform="translate(177.503906 0)"/>
       <use xlink:href="#DejaVuSans-70" transform="translate(240.882812 0)"/>
       <use xlink:href="#DejaVuSans-69" transform="translate(304.359375 0)"/>
       <use xlink:href="#DejaVuSans-74" transform="translate(332.142578 0)"/>
       <use xlink:href="#DejaVuSans-e4" transform="translate(371.351562 0)"/>
       <use xlink:href="#DejaVuSans-6d" transform="translate(432.630859 0)"/>
       <use xlink:href="#DejaVuSans-e4" transform="translate(530.042969 0)"/>
       <use xlink:href="#DejaVuSans-74" transform="translate(591.322266 0)"/>
       <use xlink:href="#DejaVuSans-f6" transform="translate(630.53125 0)"/>
       <use xlink:href="#DejaVuSans-6e" transform="translate(691.712891 0)"/>
      </g>
     </g>
    </g>
    <g id="xtick_3">
     <g id="line2d_3">
      <path d="M 373.5 287.64 
L 551.213423 145.918274 
" clip-path="url(#pc696b7db05)" style="fill: none; stroke: #ddd5c6; stroke-width: 0.8; stroke-linecap: square"/>
     </g>
     <g id="text_3">
      <!-- Ammattitaitoin -->
      <g style="fill: #2b2b2b" transform="translate(538.472045 128.229172) scale(0.085 -0.085)">
       <defs>
        <path id="DejaVuSans-61" d="M 2194 1759 
Q 1497 1759 1228 1600 
Q 959 1441 959 1056 
Q 959 750 1161 570 
Q 1363 391 1709 391 
Q 2188 391 2477 730 
Q 2766 1069 2766 1631 
L 2766 1759 
L 2194 1759 
z
M 3341 1997 
L 3341 0 
L 2766 0 
L 2766 531 
Q 2569 213 2275 61 
Q 1981 -91 1556 -91 
Q 1019 -91 701 211 
Q 384 513 384 1019 
Q 384 1609 779 1909 
Q 1175 2209 1959 2209 
L 2766 2209 
L 2766 2266 
Q 2766 2663 2505 2880 
Q 2244 3097 1772 3097 
Q 1472 3097 1187 3025 
Q 903 2953 641 2809 
L 641 3341 
Q 956 3463 1253 3523 
Q 1550 3584 1831 3584 
Q 2591 3584 2966 3190 
Q 3341 2797 3341 1997 
z
" transform="scale(0.015625)"/>
        <path id="DejaVuSans-6f" d="M 1959 3097 
Q 1497 3097 1228 2736 
Q 959 2375 959 1747 
Q 959 1119 1226 758 
Q 1494 397 1959 397 
Q 2419 397 2687 759 
Q 2956 1122 2956 1747 
Q 2956 2369 2687 2733 
Q 2419 3097 1959 3097 
z
M 1959 3584 
Q 2709 3584 3137 3096 
Q 3566 2609 3566 1747 
Q 3566 888 3137 398 
Q 2709 -91 1959 -91 
Q 1206 -91 779 398 
Q 353 888 353 1747 
Q 353 2609 779 3096 
Q 1206 3584 1959 3584 
z
" transform="scale(0.015625)"/>
       </defs>
       <use xlink:href="#DejaVuSans-41"/>
       <use xlink:href="#DejaVuSans-6d" transform="translate(68.408203 0)"/>
       <use xlink:href="#DejaVuSans-6d" transform="translate(165.820312 0)"/>
       <use xlink:href="#DejaVuSans-61" transform="translate(263.232422 0)"/>
       <use xlink:href="#DejaVuSans-74" transform="translate(324.511719 0)"/>
       <use xlink:href="#DejaVuSans-74" transform="translate(363.720703 0)"/>
       <use xlink:href="#DejaVuSans-69" transform="translate(402.929688 0)"/>
       <use xlink:href="#DejaVuSans-74" transform="translate(430.712891 0)"/>
       <use xlink:href="#DejaVuSans-61" transform="translate(469.921875 0)"/>
       <use xlink:href="#DejaVuSans-69" transform="translate(531.201172 0)"/>
       <use xlink:href="#DejaVuSans-74" transform="translate(558.984375 0)"/>
       <use xlink:href="#DejaVuSans-6f" transform="translate(598.193359 0)"/>
       <use xlink:href="#DejaVuSans-69" transform="translate(659.375 0)"/>
       <use xlink:href="#DejaVuSans-6e" transform="translate(687.158203 0)"/>
      </g>
      <!-- en -->
      <g style="fill: #2b2b2b" transform="translate(565.059779 137.747313) scale(0.085 -0.085)">
       <use xlink:href="#DejaVuSans-65"/>
       <use xlink:href="#DejaVuSans-6e" transform="translate(61.523438 0)"/>
      </g>
     </g>
    </g>
    <g id="xtick_4">
     <g id="line2d_4">
      <path d="M 373.5 287.64 
L 595.105014 237.060102 
" clip-path="url(#pc696b7db05)" style="fill: none; stroke: #ddd5c6; stroke-width: 0.8; stroke-linecap: square"/>
     </g>
     <g id="text_4">
      <!-- Kodikas -->
      <g style="fill: #2b2b2b" transform="translate(602.731842 233.953807) scale(0.085 -0.085)">
       <defs>
        <path id="DejaVuSans-4b" d="M 628 4666 
L 1259 4666 
L 1259 2694 
L 3353 4666 
L 4166 4666 
L 1850 2491 
L 4331 0 
L 3500 0 
L 1259 2247 
L 1259 0 
L 628 0 
L 628 4666 
z
" transform="scale(0.015625)"/>
        <path id="DejaVuSans-64" d="M 2906 2969 
L 2906 4863 
L 3481 4863 
L 3481 0 
L 2906 0 
L 2906 525 
Q 2725 213 2448 61 
Q 2172 -91 1784 -91 
Q 1150 -91 751 415 
Q 353 922 353 1747 
Q 353 2572 751 3078 
Q 1150 3584 1784 3584 
Q 2172 3584 2448 3432 
Q 2725 3281 2906 2969 
z
M 947 1747 
Q 947 1113 1208 752 
Q 1469 391 1925 391 
Q 2381 391 2643 752 
Q 2906 1113 2906 1747 
Q 2906 2381 2643 2742 
Q 2381 3103 1925 3103 
Q 1469 3103 1208 2742 
Q 947 2381 947 1747 
z
" transform="scale(0.015625)"/>
        <path id="DejaVuSans-6b" d="M 581 4863 
L 1159 4863 
L 1159 1991 
L 2875 3500 
L 3609 3500 
L 1753 1863 
L 3688 0 
L 2938 0 
L 1159 1709 
L 1159 0 
L 581 0 
L 581 4863 
z
" transform="scale(0.015625)"/>
        <path id="DejaVuSans-73" d="M 2834 3397 
L 2834 2853 
Q 2591 2978 2328 3040 
Q 2066 3103 1784 3103 
Q 1356 3103 1142 2972 
Q 928 2841 928 2578 
Q 928 2378 1081 2264 
Q 1234 2150 1697 2047 
L 1894 2003 
Q 2506 1872 2764 1633 
Q 3022 1394 3022 966 
Q 3022 478 2636 193 
Q 2250 -91 1575 -91 
Q 1294 -91 989 -36 
Q 684 19 347 128 
L 347 722 
Q 666 556 975 473 
Q 1284 391 1588 391 
Q 1994 391 2212 530 
Q 2431 669 2431 922 
Q 2431 1156 2273 1281 
Q 2116 1406 1581 1522 
L 1381 1569 
Q 847 1681 609 1914 
Q 372 2147 372 2553 
Q 372 3047 722 3315 
Q 1072 3584 1716 3584 
Q 2034 3584 2315 3537 
Q 2597 3491 2834 3397 
z
" transform="scale(0.015625)"/>
       </defs>
       <use xlink:href="#DejaVuSans-4b"/>
       <use xlink:href="#DejaVuSans-6f" transform="translate(60.576172 0)"/>
       <use xlink:href="#DejaVuSans-64" transform="translate(121.757812 0)"/>
       <use xlink:href="#DejaVuSans-69" transform="translate(185.234375 0)"/>
       <use xlink:href="#DejaVuSans-6b" transform="translate(213.017578 0)"/>
       <use xlink:href="#DejaVuSans-61" transform="translate(269.177734 0)"/>
       <use xlink:href="#DejaVuSans-73" transform="translate(330.457031 0)"/>
      </g>
     </g>
    </g>
    <g id="xtick_5">
     <g id="line2d_5">
      <path d="M 373.5 287.64 
L 595.105014 338.219898 
" clip-path="url(#pc696b7db05)" style="fill: none; stroke: #ddd5c6; stroke-width: 0.8; stroke-linecap: square"/>
     </g>
     <g id="text_5">
      <!-- Luotettava -->
      <g style="fill: #2b2b2b" transform="translate(596.065318 346.01713) scale(0.085 -0.085)">
       <defs>
        <path id="DejaVuSans-4c" d="M 628 4666 
L 1259 4666 
L 1259 531 
L 3531 531 
L 3531 0 
L 628 0 
L 628 4666 
z
" transform="scale(0.015625)"/>
        <path id="DejaVuSans-75" d="M 544 1381 
L 544 3500 
L 1119 3500 
L 1119 1403 
Q 1119 906 1312 657 
Q 1506 409 1894 409 
Q 2359 409 2629 706 
Q 2900 1003 2900 1516 
L 2900 3500 
L 3475 3500 
L 3475 0 
L 2900 0 
L 2900 538 
Q 2691 219 2414 64 
Q 2138 -91 1772 -91 
Q 1169 -91 856 284 
Q 544 659 544 1381 
z
M 1991 3584 
L 1991 3584 
z
" transform="scale(0.015625)"/>
        <path id="DejaVuSans-76" d="M 191 3500 
L 800 3500 
L 1894 563 
L 2988 3500 
L 3597 3500 
L 2284 0 
L 1503 0 
L 191 3500 
z
" transform="scale(0.015625)"/>
       </defs>
       <use xlink:href="#DejaVuSans-4c"/>
       <use xlink:href="#DejaVuSans-75" transform="translate(53.962891 0)"/>
       <use xlink:href="#DejaVuSans-6f" transform="translate(117.341797 0)"/>
       <use xlink:href="#DejaVuSans-74" transform="translate(178.523438 0)"/>
       <use xlink:href="#DejaVuSans-65" transform="translate(217.732422 0)"/>
       <use xlink:href="#DejaVuSans-74" transform="translate(279.255859 0)"/>
       <use xlink:href="#DejaVuSans-74" transform="translate(318.464844 0)"/>
       <use xlink:href="#DejaVuSans-61" transform="translate(357.673828 0)"/>
       <use xlink:href="#DejaVuSans-76" transform="translate(418.953125 0)"/>
       <use xlink:href="#DejaVuSans-61" transform="translate(478.132812 0)"/>
      </g>
     </g>
    </g>
    <g id="xtick_6">
     <g id="line2d_6">
      <path d="M 373.5 287.64 
L 551.213423 429.361726 
" clip-path="url(#pc696b7db05)" style="fill: none; stroke: #ddd5c6; stroke-width: 0.8; stroke-linecap: square"/>
     </g>
     <g id="text_6">
      <!-- Kohtelee -->
      <g style="fill: #2b2b2b" transform="translate(551.807748 437.464554) scale(0.085 -0.085)">
       <use xlink:href="#DejaVuSans-4b"/>
       <use xlink:href="#DejaVuSans-6f" transform="translate(60.576172 0)"/>
       <use xlink:href="#DejaVuSans-68" transform="translate(121.757812 0)"/>
       <use xlink:href="#DejaVuSans-74" transform="translate(185.136719 0)"/>
       <use xlink:href="#DejaVuSans-65" transform="translate(224.345703 0)"/>
       <use xlink:href="#DejaVuSans-6c" transform="translate(285.869141 0)"/>
       <use xlink:href="#DejaVuSans-65" transform="translate(313.652344 0)"/>
       <use xlink:href="#DejaVuSans-65" transform="translate(375.175781 0)"/>
      </g>
      <!-- ihmisiä -->
      <g style="fill: #2b2b2b" transform="translate(555.174545 446.982695) scale(0.085 -0.085)">
       <use xlink:href="#DejaVuSans-69"/>
       <use xlink:href="#DejaVuSans-68" transform="translate(27.783203 0)"/>
       <use xlink:href="#DejaVuSans-6d" transform="translate(91.162109 0)"/>
       <use xlink:href="#DejaVuSans-69" transform="translate(188.574219 0)"/>
       <use xlink:href="#DejaVuSans-73" transform="translate(216.357422 0)"/>
       <use xlink:href="#DejaVuSans-69" transform="translate(268.457031 0)"/>
       <use xlink:href="#DejaVuSans-e4" transform="translate(296.240234 0)"/>
      </g>
      <!-- arvostavasti -->
      <g style="fill: #2b2b2b" transform="translate(544.235443 456.500835) scale(0.085 -0.085)">
       <defs>
        <path id="DejaVuSans-72" d="M 2631 2963 
Q 2534 3019 2420 3045 
Q 2306 3072 2169 3072 
Q 1681 3072 1420 2755 
Q 1159 2438 1159 1844 
L 1159 0 
L 581 0 
L 581 3500 
L 1159 3500 
L 1159 2956 
Q 1341 3275 1631 3429 
Q 1922 3584 2338 3584 
Q 2397 3584 2469 3576 
Q 2541 3569 2628 3553 
L 2631 2963 
z
" transform="scale(0.015625)"/>
       </defs>
       <use xlink:href="#DejaVuSans-61"/>
       <use xlink:href="#DejaVuSans-72" transform="translate(61.279297 0)"/>
       <use xlink:href="#DejaVuSans-76" transform="translate(102.392578 0)"/>
       <use xlink:href="#DejaVuSans-6f" transform="translate(161.572266 0)"/>
       <use xlink:href="#DejaVuSans-73" transform="translate(222.753906 0)"/>
       <use xlink:href="#DejaVuSans-74" transform="translate(274.853516 0)"/>
       <use xlink:href="#DejaVuSans-61" transform="translate(314.0625 0)"/>
       <use xlink:href="#DejaVuSans-76" transform="translate(375.341797 0)"/>
       <use xlink:href="#DejaVuSans-61" transform="translate(434.521484 0)"/>
       <use xlink:href="#DejaVuSans-73" transform="translate(495.800781 0)"/>
       <use xlink:href="#DejaVuSans-74" transform="translate(547.900391 0)"/>
       <use xlink:href="#DejaVuSans-69" transform="translate(587.109375 0)"/>
      </g>
     </g>
    </g>
    <g id="xtick_7">
     <g id="line2d_7">
      <path d="M 373.5 287.64 
L 472.123509 492.433828 
" clip-path="url(#pc696b7db05)" style="fill: none; stroke: #ddd5c6; stroke-width: 0.8; stroke-linecap: square"/>
     </g>
     <g id="text_7">
      <!-- Mahdollistaa -->
      <g style="fill: #2b2b2b" transform="translate(455.85913 512.093963) scale(0.085 -0.085)">
       <defs>
        <path id="DejaVuSans-4d" d="M 628 4666 
L 1569 4666 
L 2759 1491 
L 3956 4666 
L 4897 4666 
L 4897 0 
L 4281 0 
L 4281 4097 
L 3078 897 
L 2444 897 
L 1241 4097 
L 1241 0 
L 628 0 
L 628 4666 
z
" transform="scale(0.015625)"/>
       </defs>
       <use xlink:href="#DejaVuSans-4d"/>
       <use xlink:href="#DejaVuSans-61" transform="translate(86.279297 0)"/>
       <use xlink:href="#DejaVuSans-68" transform="translate(147.558594 0)"/>
       <use xlink:href="#DejaVuSans-64" transform="translate(210.9375 0)"/>
       <use xlink:href="#DejaVuSans-6f" transform="translate(274.414062 0)"/>
       <use xlink:href="#DejaVuSans-6c" transform="translate(335.595703 0)"/>
       <use xlink:href="#DejaVuSans-6c" transform="translate(363.378906 0)"/>
       <use xlink:href="#DejaVuSans-69" transform="translate(391.162109 0)"/>
       <use xlink:href="#DejaVuSans-73" transform="translate(418.945312 0)"/>
       <use xlink:href="#DejaVuSans-74" transform="translate(471.044922 0)"/>
       <use xlink:href="#DejaVuSans-61" transform="translate(510.253906 0)"/>
       <use xlink:href="#DejaVuSans-61" transform="translate(571.533203 0)"/>
      </g>
      <!-- hyvän arjen -->
      <g style="fill: #2b2b2b" transform="translate(457.539872 521.612104) scale(0.085 -0.085)">
       <defs>
        <path id="DejaVuSans-79" d="M 2059 -325 
Q 1816 -950 1584 -1140 
Q 1353 -1331 966 -1331 
L 506 -1331 
L 506 -850 
L 844 -850 
Q 1081 -850 1212 -737 
Q 1344 -625 1503 -206 
L 1606 56 
L 191 3500 
L 800 3500 
L 1894 763 
L 2988 3500 
L 3597 3500 
L 2059 -325 
z
" transform="scale(0.015625)"/>
        <path id="DejaVuSans-20" transform="scale(0.015625)"/>
        <path id="DejaVuSans-6a" d="M 603 3500 
L 1178 3500 
L 1178 -63 
Q 1178 -731 923 -1031 
Q 669 -1331 103 -1331 
L -116 -1331 
L -116 -844 
L 38 -844 
Q 366 -844 484 -692 
Q 603 -541 603 -63 
L 603 3500 
z
M 603 4863 
L 1178 4863 
L 1178 4134 
L 603 4134 
L 603 4863 
z
" transform="scale(0.015625)"/>
       </defs>
       <use xlink:href="#DejaVuSans-68"/>
       <use xlink:href="#DejaVuSans-79" transform="translate(63.378906 0)"/>
       <use xlink:href="#DejaVuSans-76" transform="translate(122.558594 0)"/>
       <use xlink:href="#DejaVuSans-e4" transform="translate(181.738281 0)"/>
       <use xlink:href="#DejaVuSans-6e" transform="translate(243.017578 0)"/>
       <use xlink:href="#DejaVuSans-20" transform="translate(306.396484 0)"/>
       <use xlink:href="#DejaVuSans-61" transform="translate(338.183594 0)"/>
       <use xlink:href="#DejaVuSans-72" transform="translate(399.462891 0)"/>
       <use xlink:href="#DejaVuSans-6a" transform="translate(440.576172 0)"/>
       <use xlink:href="#DejaVuSans-65" transform="translate(468.359375 0)"/>
       <use xlink:href="#DejaVuSans-6e" transform="translate(529.882812 0)"/>
      </g>
     </g>
    </g>
    <g id="xtick_8">
     <g id="line2d_8">
      <path d="M 373.5 287.64 
L 373.5 514.944 
" clip-path="url(#pc696b7db05)" style="fill: none; stroke: #ddd5c6; stroke-width: 0.8; stroke-linecap: square"/>
     </g>
     <g id="text_8">
      <!-- Kehittää toimi -->
      <g style="fill: #2b2b2b" transform="translate(343.776563 537.030398) scale(0.085 -0.085)">
       <use xlink:href="#DejaVuSans-4b"/>
       <use xlink:href="#DejaVuSans-65" transform="translate(60.576172 0)"/>
       <use xlink:href="#DejaVuSans-68" transform="translate(122.099609 0)"/>
       <use xlink:href="#DejaVuSans-69" transform="translate(185.478516 0)"/>
       <use xlink:href="#DejaVuSans-74" transform="translate(213.261719 0)"/>
       <use xlink:href="#DejaVuSans-74" transform="translate(252.470703 0)"/>
       <use xlink:href="#DejaVuSans-e4" transform="translate(291.679688 0)"/>
       <use xlink:href="#DejaVuSans-e4" transform="translate(352.958984 0)"/>
       <use xlink:href="#DejaVuSans-20" transform="translate(414.238281 0)"/>
       <use xlink:href="#DejaVuSans-74" transform="translate(446.025391 0)"/>
       <use xlink:href="#DejaVuSans-6f" transform="translate(485.234375 0)"/>
       <use xlink:href="#DejaVuSans-69" transform="translate(546.416016 0)"/>
       <use xlink:href="#DejaVuSans-6d" transform="translate(574.199219 0)"/>
       <use xlink:href="#DejaVuSans-69" transform="translate(671.611328 0)"/>
      </g>
      <!-- ntatapojaan -->
      <g style="fill: #2b2b2b" transform="translate(347.883789 546.548539) scale(0.085 -0.085)">
       <use xlink:href="#DejaVuSans-6e"/>
       <use xlink:href="#DejaVuSans-74" transform="translate(63.378906 0)"/>
       <use xlink:href="#DejaVuSans-61" transform="translate(102.587891 0)"/>
       <use xlink:href="#DejaVuSans-74" transform="translate(163.867188 0)"/>
       <use xlink:href="#DejaVuSans-61" transform="translate(203.076172 0)"/>
       <use xlink:href="#DejaVuSans-70" transform="translate(264.355469 0)"/>
       <use xlink:href="#DejaVuSans-6f" transform="translate(327.832031 0)"/>
       <use xlink:href="#DejaVuSans-6a" transform="translate(389.013672 0)"/>
       <use xlink:href="#DejaVuSans-61" transform="translate(416.796875 0)"/>
       <use xlink:href="#DejaVuSans-61" transform="translate(478.076172 0)"/>
       <use xlink:href="#DejaVuSans-6e" transform="translate(539.355469 0)"/>
      </g>
     </g>
    </g>
    <g id="xtick_9">
     <g id="line2d_9">
      <path d="M 373.5 287.64 
L 274.876491 492.433828 
" clip-path="url(#pc696b7db05)" style="fill: none; stroke: #ddd5c6; stroke-width: 0.8; stroke-linecap: square"/>
     </g>
     <g id="text_9">
      <!-- Välittävä -->
      <g style="fill: #2b2b2b" transform="translate(245.645948 516.853034) scale(0.085 -0.085)">
       <use xlink:href="#DejaVuSans-56"/>
       <use xlink:href="#DejaVuSans-e4" transform="translate(60.658203 0)"/>
       <use xlink:href="#DejaVuSans-6c" transform="translate(121.9375 0)"/>
       <use xlink:href="#DejaVuSans-69" transform="translate(149.720703 0)"/>
       <use xlink:href="#DejaVuSans-74" transform="translate(177.503906 0)"/>
       <use xlink:href="#DejaVuSans-74" transform="translate(216.712891 0)"/>
       <use xlink:href="#DejaVuSans-e4" transform="translate(255.921875 0)"/>
       <use xlink:href="#DejaVuSans-76" transform="translate(317.201172 0)"/>
       <use xlink:href="#DejaVuSans-e4" transform="translate(376.380859 0)"/>
      </g>
     </g>
    </g>
    <g id="xtick_10">
     <g id="line2d_10">
      <path d="M 373.5 287.64 
L 195.786577 429.361726 
" clip-path="url(#pc696b7db05)" style="fill: none; stroke: #ddd5c6; stroke-width: 0.8; stroke-linecap: square"/>
     </g>
     <g id="text_10">
      <!-- Tarjoaa -->
      <g style="fill: #2b2b2b" transform="translate(161.395455 437.464554) scale(0.085 -0.085)">
       <defs>
        <path id="DejaVuSans-54" d="M -19 4666 
L 3928 4666 
L 3928 4134 
L 2272 4134 
L 2272 0 
L 1638 0 
L 1638 4134 
L -19 4134 
L -19 4666 
z
" transform="scale(0.015625)"/>
       </defs>
       <use xlink:href="#DejaVuSans-54"/>
       <use xlink:href="#DejaVuSans-61" transform="translate(44.583984 0)"/>
       <use xlink:href="#DejaVuSans-72" transform="translate(105.863281 0)"/>
       <use xlink:href="#DejaVuSans-6a" transform="translate(146.976562 0)"/>
       <use xlink:href="#DejaVuSans-6f" transform="translate(174.759766 0)"/>
       <use xlink:href="#DejaVuSans-61" transform="translate(235.941406 0)"/>
       <use xlink:href="#DejaVuSans-61" transform="translate(297.220703 0)"/>
      </g>
      <!-- laadukkaita ho -->
      <g style="fill: #2b2b2b" transform="translate(145.302565 446.982695) scale(0.085 -0.085)">
       <use xlink:href="#DejaVuSans-6c"/>
       <use xlink:href="#DejaVuSans-61" transform="translate(27.783203 0)"/>
       <use xlink:href="#DejaVuSans-61" transform="translate(89.0625 0)"/>
       <use xlink:href="#DejaVuSans-64" transform="translate(150.341797 0)"/>
       <use xlink:href="#DejaVuSans-75" transform="translate(213.818359 0)"/>
       <use xlink:href="#DejaVuSans-6b" transform="translate(277.197266 0)"/>
       <use xlink:href="#DejaVuSans-6b" transform="translate(335.107422 0)"/>
       <use xlink:href="#DejaVuSans-61" transform="translate(391.267578 0)"/>
       <use xlink:href="#DejaVuSans-69" transform="translate(452.546875 0)"/>
       <use xlink:href="#DejaVuSans-74" transform="translate(480.330078 0)"/>
       <use xlink:href="#DejaVuSans-61" transform="translate(519.539062 0)"/>
       <use xlink:href="#DejaVuSans-20" transform="translate(580.818359 0)"/>
       <use xlink:href="#DejaVuSans-68" transform="translate(612.605469 0)"/>
       <use xlink:href="#DejaVuSans-6f" transform="translate(675.984375 0)"/>
      </g>
      <!-- ivapalveluita -->
      <g style="fill: #2b2b2b" transform="translate(149.391862 456.500835) scale(0.085 -0.085)">
       <use xlink:href="#DejaVuSans-69"/>
       <use xlink:href="#DejaVuSans-76" transform="translate(27.783203 0)"/>
       <use xlink:href="#DejaVuSans-61" transform="translate(86.962891 0)"/>
       <use xlink:href="#DejaVuSans-70" transform="translate(148.242188 0)"/>
       <use xlink:href="#DejaVuSans-61" transform="translate(211.71875 0)"/>
       <use xlink:href="#DejaVuSans-6c" transform="translate(272.998047 0)"/>
       <use xlink:href="#DejaVuSans-76" transform="translate(300.78125 0)"/>
       <use xlink:href="#DejaVuSans-65" transform="translate(359.960938 0)"/>
       <use xlink:href="#DejaVuSans-6c" transform="translate(421.484375 0)"/>
       <use xlink:href="#DejaVuSans-75" transform="translate(449.267578 0)"/>
       <use xlink:href="#DejaVuSans-69" transform="translate(512.646484 0)"/>
       <use xlink:href="#DejaVuSans-74" transform="translate(540.429688 0)"/>
       <use xlink:href="#DejaVuSans-61" transform="translate(579.638672 0)"/>
      </g>
     </g>
    </g>
    <g id="xtick_11">
     <g id="line2d_11">
      <path d="M 373.5 287.64 
L 151.894986 338.219898 
" clip-path="url(#pc696b7db05)" style="fill: none; stroke: #ddd5c6; stroke-width: 0.8; stroke-linecap: square"/>
     </g>
     <g id="text_11">
      <!-- Inhimillinen -->
      <g style="fill: #2b2b2b" transform="translate(103.323393 346.01713) scale(0.085 -0.085)">
       <defs>
        <path id="DejaVuSans-49" d="M 628 4666 
L 1259 4666 
L 1259 0 
L 628 0 
L 628 4666 
z
" transform="scale(0.015625)"/>
       </defs>
       <use xlink:href="#DejaVuSans-49"/>
       <use xlink:href="#DejaVuSans-6e" transform="translate(29.492188 0)"/>
       <use xlink:href="#DejaVuSans-68" transform="translate(92.871094 0)"/>
       <use xlink:href="#DejaVuSans-69" transform="translate(156.25 0)"/>
       <use xlink:href="#DejaVuSans-6d" transform="translate(184.033203 0)"/>
       <use xlink:href="#DejaVuSans-69" transform="translate(281.445312 0)"/>
       <use xlink:href="#DejaVuSans-6c" transform="translate(309.228516 0)"/>
       <use xlink:href="#DejaVuSans-6c" transform="translate(337.011719 0)"/>
       <use xlink:href="#DejaVuSans-69" transform="translate(364.794922 0)"/>
       <use xlink:href="#DejaVuSans-6e" transform="translate(392.578125 0)"/>
       <use xlink:href="#DejaVuSans-65" transform="translate(455.957031 0)"/>
       <use xlink:href="#DejaVuSans-6e" transform="translate(517.480469 0)"/>
      </g>
     </g>
    </g>
    <g id="xtick_12">
     <g id="line2d_12">
      <path d="M 373.5 287.64 
L 151.894986 237.060102 
" clip-path="url(#pc696b7db05)" style="fill: none; stroke: #ddd5c6; stroke-width: 0.8; stroke-linecap: square"/>
     </g>
     <g id="text_12">
      <!-- Rehellinen -->
      <g style="fill: #2b2b2b" transform="translate(105.77976 233.953807) scale(0.085 -0.085)">
       <defs>
        <path id="DejaVuSans-52" d="M 2841 2188 
Q 3044 2119 3236 1894 
Q 3428 1669 3622 1275 
L 4263 0 
L 3584 0 
L 2988 1197 
Q 2756 1666 2539 1819 
Q 2322 1972 1947 1972 
L 1259 1972 
L 1259 0 
L 628 0 
L 628 4666 
L 2053 4666 
Q 2853 4666 3247 4331 
Q 3641 3997 3641 3322 
Q 3641 2881 3436 2590 
Q 3231 2300 2841 2188 
z
M 1259 4147 
L 1259 2491 
L 2053 2491 
Q 2509 2491 2742 2702 
Q 2975 2913 2975 3322 
Q 2975 3731 2742 3939 
Q 2509 4147 2053 4147 
L 1259 4147 
z
" transform="scale(0.015625)"/>
       </defs>
       <use xlink:href="#DejaVuSans-52"/>
       <use xlink:href="#DejaVuSans-65" transform="translate(64.982422 0)"/>
       <use xlink:href="#DejaVuSans-68" transform="translate(126.505859 0)"/>
       <use xlink:href="#DejaVuSans-65" transform="translate(189.884766 0)"/>
       <use xlink:href="#DejaVuSans-6c" transform="translate(251.408203 0)"/>
       <use xlink:href="#DejaVuSans-6c" transform="translate(279.191406 0)"/>
       <use xlink:href="#DejaVuSans-69" transform="translate(306.974609 0)"/>
       <use xlink:href="#DejaVuSans-6e" transform="translate(334.757812 0)"/>
       <use xlink:href="#DejaVuSans-65" transform="translate(398.136719 0)"/>
       <use xlink:href="#DejaVuSans-6e" transform="translate(459.660156 0)"/>
      </g>
     </g>
    </g>
    <g id="xtick_13">
     <g id="line2d_13">
      <path d="M 373.5 287.64 
L 195.786577 145.918274 
" clip-path="url(#pc696b7db05)" style="fill: none; stroke: #ddd5c6; stroke-width: 0.8; stroke-linecap: square"/>
     </g>
     <g id="text_13">
      <!-- Tarjoaa -->
      <g style="fill: #2b2b2b" transform="translate(161.395455 123.470102) scale(0.085 -0.085)">
       <use xlink:href="#DejaVuSans-54"/>
       <use xlink:href="#DejaVuSans-61" transform="translate(44.583984 0)"/>
       <use xlink:href="#DejaVuSans-72" transform="translate(105.863281 0)"/>
       <use xlink:href="#DejaVuSans-6a" transform="translate(146.976562 0)"/>
       <use xlink:href="#DejaVuSans-6f" transform="translate(174.759766 0)"/>
       <use xlink:href="#DejaVuSans-61" transform="translate(235.941406 0)"/>
       <use xlink:href="#DejaVuSans-61" transform="translate(297.220703 0)"/>
      </g>
      <!-- monipuolista -->
      <g style="fill: #2b2b2b" transform="translate(149.179362 132.988243) scale(0.085 -0.085)">
       <use xlink:href="#DejaVuSans-6d"/>
       <use xlink:href="#DejaVuSans-6f" transform="translate(97.412109 0)"/>
       <use xlink:href="#DejaVuSans-6e" transform="translate(158.59375 0)"/>
       <use xlink:href="#DejaVuSans-69" transform="translate(221.972656 0)"/>
       <use xlink:href="#DejaVuSans-70" transform="translate(249.755859 0)"/>
       <use xlink:href="#DejaVuSans-75" transform="translate(313.232422 0)"/>
       <use xlink:href="#DejaVuSans-6f" transform="translate(376.611328 0)"/>
       <use xlink:href="#DejaVuSans-6c" transform="translate(437.792969 0)"/>
       <use xlink:href="#DejaVuSans-69" transform="translate(465.576172 0)"/>
       <use xlink:href="#DejaVuSans-73" transform="translate(493.359375 0)"/>
       <use xlink:href="#DejaVuSans-74" transform="translate(545.458984 0)"/>
       <use xlink:href="#DejaVuSans-61" transform="translate(584.667969 0)"/>
      </g>
      <!-- ruokaa -->
      <g style="fill: #2b2b2b" transform="translate(161.995104 142.506383) scale(0.085 -0.085)">
       <use xlink:href="#DejaVuSans-72"/>
       <use xlink:href="#DejaVuSans-75" transform="translate(41.113281 0)"/>
       <use xlink:href="#DejaVuSans-6f" transform="translate(104.492188 0)"/>
       <use xlink:href="#DejaVuSans-6b" transform="translate(165.673828 0)"/>
       <use xlink:href="#DejaVuSans-61" transform="translate(221.833984 0)"/>
       <use xlink:href="#DejaVuSans-61" transform="translate(283.113281 0)"/>
      </g>
     </g>
    </g>
    <g id="xtick_14">
     <g id="line2d_14">
      <path d="M 373.5 287.64 
L 274.876491 82.846172 
" clip-path="url(#pc696b7db05)" style="fill: none; stroke: #ddd5c6; stroke-width: 0.8; stroke-linecap: square"/>
     </g>
     <g id="text_14">
      <!-- Edelläkävijä -->
      <g style="fill: #2b2b2b" transform="translate(238.809425 63.117904) scale(0.085 -0.085)">
       <defs>
        <path id="DejaVuSans-45" d="M 628 4666 
L 3578 4666 
L 3578 4134 
L 1259 4134 
L 1259 2753 
L 3481 2753 
L 3481 2222 
L 1259 2222 
L 1259 531 
L 3634 531 
L 3634 0 
L 628 0 
L 628 4666 
z
" transform="scale(0.015625)"/>
       </defs>
       <use xlink:href="#DejaVuSans-45"/>
       <use xlink:href="#DejaVuSans-64" transform="translate(63.183594 0)"/>
       <use xlink:href="#DejaVuSans-65" transform="translate(126.660156 0)"/>
       <use xlink:href="#DejaVuSans-6c" transform="translate(188.183594 0)"/>
       <use xlink:href="#DejaVuSans-6c" transform="translate(215.966797 0)"/>
       <use xlink:href="#DejaVuSans-e4" transform="translate(243.75 0)"/>
       <use xlink:href="#DejaVuSans-6b" transform="translate(305.029297 0)"/>
       <use xlink:href="#DejaVuSans-e4" transform="translate(361.189453 0)"/>
       <use xlink:href="#DejaVuSans-76" transform="translate(422.46875 0)"/>
       <use xlink:href="#DejaVuSans-69" transform="translate(481.648438 0)"/>
       <use xlink:href="#DejaVuSans-6a" transform="translate(509.431641 0)"/>
       <use xlink:href="#DejaVuSans-e4" transform="translate(537.214844 0)"/>
      </g>
     </g>
    </g>
   </g>
   <g id="matplotlib.axis_2">
    <g id="ytick_1">
     <g id="line2d_15">
      <path d="M 373.5 211.872 
C 383.449763 211.872 393.302776 213.831886 402.495158 217.639496 
C 411.68754 221.447105 420.040522 227.028389 427.076067 234.063933 
C 434.111611 241.099478 439.692895 249.45246 443.500504 258.644842 
C 447.308114 267.837224 449.268 277.690237 449.268 287.64 
C 449.268 297.589763 447.308114 307.442776 443.500504 316.635158 
C 439.692895 325.82754 434.111611 334.180522 427.076067 341.216067 
C 420.040522 348.251611 411.68754 353.832895 402.495158 357.640504 
C 393.302776 361.448114 383.449763 363.408 373.5 363.408 
C 363.550237 363.408 353.697224 361.448114 344.504842 357.640504 
C 335.31246 353.832895 326.959478 348.251611 319.923933 341.216067 
C 312.888389 334.180522 307.307105 325.82754 303.499496 316.635158 
C 299.691886 307.442776 297.732 297.589763 297.732 287.64 
C 297.732 277.690237 299.691886 267.837224 303.499496 258.644842 
C 307.307105 249.45246 312.888389 241.099478 319.923933 234.063933 
C 326.959478 227.028389 335.31246 221.447105 344.504842 217.639496 
C 353.697224 213.831886 363.550237 211.872 373.5 211.872 
" clip-path="url(#pc696b7db05)" style="fill: none; stroke: #ddd5c6; stroke-width: 0.8; stroke-linecap: square"/>
     </g>
     <g id="text_15">
      <!-- 20 -->
      <g style="fill: #8a857b" transform="translate(402.495158 216.07973) scale(0.075 -0.075)">
       <defs>
        <path id="DejaVuSans-32" d="M 1228 531 
L 3431 531 
L 3431 0 
L 469 0 
L 469 531 
Q 828 903 1448 1529 
Q 2069 2156 2228 2338 
Q 2531 2678 2651 2914 
Q 2772 3150 2772 3378 
Q 2772 3750 2511 3984 
Q 2250 4219 1831 4219 
Q 1534 4219 1204 4116 
Q 875 4013 500 3803 
L 500 4441 
Q 881 4594 1212 4672 
Q 1544 4750 1819 4750 
Q 2544 4750 2975 4387 
Q 3406 4025 3406 3419 
Q 3406 3131 3298 2873 
Q 3191 2616 2906 2266 
Q 2828 2175 2409 1742 
Q 1991 1309 1228 531 
z
" transform="scale(0.015625)"/>
        <path id="DejaVuSans-30" d="M 2034 4250 
Q 1547 4250 1301 3770 
Q 1056 3291 1056 2328 
Q 1056 1369 1301 889 
Q 1547 409 2034 409 
Q 2525 409 2770 889 
Q 3016 1369 3016 2328 
Q 3016 3291 2770 3770 
Q 2525 4250 2034 4250 
z
M 2034 4750 
Q 2819 4750 3233 4129 
Q 3647 3509 3647 2328 
Q 3647 1150 3233 529 
Q 2819 -91 2034 -91 
Q 1250 -91 836 529 
Q 422 1150 422 2328 
Q 422 3509 836 4129 
Q 1250 4750 2034 4750 
z
" transform="scale(0.015625)"/>
       </defs>
       <use xlink:href="#DejaVuSans-32"/>
       <use xlink:href="#DejaVuSans-30" transform="translate(63.623047 0)"/>
      </g>
     </g>
    </g>
    <g id="ytick_2">
     <g id="line2d_16">
      <path d="M 373.5 136.104 
C 393.399525 136.104 413.105553 140.023773 431.490317 147.638991 
C 449.875081 155.25421 466.581044 166.416778 480.652133 180.487867 
C 494.723222 194.558956 505.88579 211.264919 513.501009 229.649683 
C 521.116227 248.034447 525.036 267.740475 525.036 287.64 
C 525.036 307.539525 521.116227 327.245553 513.501009 345.630317 
C 505.88579 364.015081 494.723222 380.721044 480.652133 394.792133 
C 466.581044 408.863222 449.875081 420.02579 431.490317 427.641009 
C 413.105553 435.256227 393.399525 439.176 373.5 439.176 
C 353.600475 439.176 333.894447 435.256227 315.509683 427.641009 
C 297.124919 420.02579 280.418956 408.863222 266.347867 394.792133 
C 252.276778 380.721044 241.11421 364.015081 233.498991 345.630317 
C 225.883773 327.245553 221.964 307.539525 221.964 287.64 
C 221.964 267.740475 225.883773 248.034447 233.498991 229.649683 
C 241.11421 211.264919 252.276778 194.558956 266.347867 180.487867 
C 280.418956 166.416778 297.124919 155.25421 315.509683 147.638991 
C 333.894447 140.023773 353.600475 136.104 373.5 136.104 
" clip-path="url(#pc696b7db05)" style="fill: none; stroke: #ddd5c6; stroke-width: 0.8; stroke-linecap: square"/>
     </g>
     <g id="text_16">
      <!-- 40 -->
      <g style="fill: #8a857b" transform="translate(431.490317 146.079226) scale(0.075 -0.075)">
       <defs>
        <path id="DejaVuSans-34" d="M 2419 4116 
L 825 1625 
L 2419 1625 
L 2419 4116 
z
M 2253 4666 
L 3047 4666 
L 3047 1625 
L 3713 1625 
L 3713 1100 
L 3047 1100 
L 3047 0 
L 2419 0 
L 2419 1100 
L 313 1100 
L 313 1709 
L 2253 4666 
z
" transform="scale(0.015625)"/>
       </defs>
       <use xlink:href="#DejaVuSans-34"/>
       <use xlink:href="#DejaVuSans-30" transform="translate(63.623047 0)"/>
      </g>
     </g>
    </g>
    <g id="ytick_3">
     <g id="line2d_17">
      <path d="M 373.5 60.336 
C 403.349288 60.336 432.908329 66.215659 460.485475 77.638487 
C 488.062621 89.061315 513.121566 105.805166 534.2282 126.9118 
C 555.334834 148.018434 572.078685 173.077379 583.501513 200.654525 
C 594.924341 228.231671 600.804 257.790712 600.804 287.64 
C 600.804 317.489288 594.924341 347.048329 583.501513 374.625475 
C 572.078685 402.202621 555.334834 427.261566 534.2282 448.3682 
C 513.121566 469.474834 488.062621 486.218685 460.485475 497.641513 
C 432.908329 509.064341 403.349288 514.944 373.5 514.944 
C 343.650712 514.944 314.091671 509.064341 286.514525 497.641513 
C 258.937379 486.218685 233.878434 469.474834 212.7718 448.3682 
C 191.665166 427.261566 174.921315 402.202621 163.498487 374.625475 
C 152.075659 347.048329 146.196 317.489288 146.196 287.64 
C 146.196 257.790712 152.075659 228.231671 163.498487 200.654525 
C 174.921315 173.077379 191.665166 148.018434 212.7718 126.9118 
C 233.878434 105.805166 258.937379 89.061315 286.514525 77.638487 
C 314.091671 66.215659 343.650712 60.336 373.5 60.336 
" clip-path="url(#pc696b7db05)" style="fill: none; stroke: #ddd5c6; stroke-width: 0.8; stroke-linecap: square"/>
     </g>
     <g id="text_17">
      <!-- 60 -->
      <g style="fill: #8a857b" transform="translate(460.485475 76.078721) scale(0.075 -0.075)">
       <defs>
        <path id="DejaVuSans-36" d="M 2113 2584 
Q 1688 2584 1439 2293 
Q 1191 2003 1191 1497 
Q 1191 994 1439 701 
Q 1688 409 2113 409 
Q 2538 409 2786 701 
Q 3034 994 3034 1497 
Q 3034 2003 2786 2293 
Q 2538 2584 2113 2584 
z
M 3366 4563 
L 3366 3988 
Q 3128 4100 2886 4159 
Q 2644 4219 2406 4219 
Q 1781 4219 1451 3797 
Q 1122 3375 1075 2522 
Q 1259 2794 1537 2939 
Q 1816 3084 2150 3084 
Q 2853 3084 3261 2657 
Q 3669 2231 3669 1497 
Q 3669 778 3244 343 
Q 2819 -91 2113 -91 
Q 1303 -91 875 529 
Q 447 1150 447 2328 
Q 447 3434 972 4092 
Q 1497 4750 2381 4750 
Q 2619 4750 2861 4703 
Q 3103 4656 3366 4563 
z
" transform="scale(0.015625)"/>
       </defs>
       <use xlink:href="#DejaVuSans-36"/>
       <use xlink:href="#DejaVuSans-30" transform="translate(63.623047 0)"/>
      </g>
     </g>
    </g>
   </g>
   <g id="patch_3">
    <path d="M 373.5 60.336 
C 343.650712 60.336 314.091671 66.215659 286.514525 77.638487 
C 258.937379 89.061315 233.878434 105.805166 212.7718 126.9118 
C 191.665166 148.018434 174.921315 173.077379 163.498487 200.654525 
C 152.075659 228.231671 146.196 257.790712 146.196 287.64 
C 146.196 317.489288 152.075659 347.048329 163.498487 374.625475 
C 174.921315 402.202621 191.665166 427.261566 212.7718 448.3682 
C 233.878434 469.474834 258.937379 486.218685 286.514525 497.641513 
C 314.091671 509.064341 343.650712 514.944 373.5 514.944 
C 403.349288 514.944 432.908329 509.064341 460.485475 497.641513 
C 488.062621 486.218685 513.121566 469.474834 534.2282 448.3682 
C 555.334834 427.261566 572.078685 402.202621 583.501513 374.625475 
C 594.924341 347.048329 600.804 317.489288 600.804 287.64 
C 600.804 257.790712 594.924341 228.231671 583.501513 200.654525 
C 572.078685 173.077379 555.334834 148.018434 534.2282 126.9118 
C 513.121566 105.805166 488.062621 89.061315 460.485475 77.638487 
C 432.908329 66.215659 403.349288 60.336 373.5 60.336 
" style="fill: none; stroke: #cfc8ba; stroke-width: 0.8; stroke-linejoin: miter; stroke-linecap: square"/>
   </g>
   <g id="line2d_18">
    <path d="M 373.5 83.0664 
L 429.386655 171.590164 
L 503.823177 183.710734 
L 495.382758 259.821056 
L 499.076175 316.301942 
L 468.280492 363.22492 
L 432.674106 410.516297 
L 373.5 408.8688 
L 320.900795 396.863375 
L 269.833836 370.311007 
L 259.004076 313.772947 
L 273.777744 264.879046 
L 296.49085 226.227252 
L 334.050596 205.722469 
L 373.5 83.0664 
" clip-path="url(#pc696b7db05)" style="fill: none; stroke: #2f6f8f; stroke-width: 1.6; stroke-linecap: square"/>
   </g>
   <g id="line2d_19">
    <path d="M 373.5 120.9504 
L 421.16803 188.656317 
L 480.128054 202.606964 
L 484.302507 262.350051 
L 480.60909 312.086951 
L 462.356712 358.500863 
L 424.45548 393.450144 
L 373.5 386.1384 
L 324.188245 390.036914 
L 281.681398 360.862892 
L 266.39091 312.086951 
L 284.857994 267.408041 
L 302.414631 230.95131 
L 337.338047 212.54893 
L 373.5 120.9504 
" clip-path="url(#pc696b7db05)" style="fill: none; stroke: #d9508a; stroke-width: 1.6; stroke-linecap: square"/>
   </g>
   <g id="line2d_20">
    <path d="M 373.5 162.6228 
L 408.018228 215.96216 
L 483.089944 200.244936 
L 510.156425 256.449063 
L 506.463008 317.987939 
L 486.051835 377.397093 
L 440.892731 427.582449 
L 373.5 412.6572 
L 306.107269 427.582449 
L 272.795727 367.948978 
L 233.150158 319.673936 
L 244.230408 258.135059 
L 275.757617 209.693051 
L 330.763146 198.896008 
L 373.5 162.6228 
" clip-path="url(#pc696b7db05)" style="fill: none; stroke: #e29b2e; stroke-width: 1.6; stroke-linecap: square"/>
   </g>
   <g id="line2d_21">
    <path d="M 373.5 192.93 
L 406.374503 219.375391 
L 536.403971 157.728418 
L 554.477428 246.333083 
L 539.703761 325.574924 
L 524.55641 408.103467 
L 462.261158 471.954445 
L 373.5 446.7528 
L 299.532368 441.235371 
L 225.405481 405.741438 
L 185.135738 330.632914 
L 203.602822 248.862078 
L 249.100604 188.434792 
L 312.682169 161.350473 
L 373.5 192.93 
" clip-path="url(#pc696b7db05)" style="fill: none; stroke: #4e8a4e; stroke-width: 1.6; stroke-linecap: square"/>
   </g>
   <g id="line2d_22">
    <path d="M 373.5 181.5648 
L 403.087053 226.201852 
L 489.013725 195.520878 
L 536.010344 250.548075 
L 513.849842 319.673936 
L 494.937506 384.483179 
L 439.249006 424.169218 
L 373.5 427.8108 
L 312.682169 413.929527 
L 263.910056 375.035064 
L 222.069907 322.202931 
L 244.230408 258.135059 
L 269.833836 204.968993 
L 325.83197 188.656317 
L 373.5 181.5648 
" clip-path="url(#pc696b7db05)" style="fill: none; stroke: #7e5ba6; stroke-width: 1.6; stroke-linecap: square"/>
   </g>
   <g id="line2d_23">
    <path d="M 373.5 143.6808 
L 419.524304 192.069547 
L 512.708848 176.624648 
L 532.316927 251.391073 
L 543.397178 326.417922 
L 497.899396 386.845208 
L 442.536457 430.995679 
L 373.5 431.5992 
L 301.176093 437.82214 
L 260.948165 377.397093 
L 218.37649 323.045929 
L 236.843575 256.449063 
L 266.871946 202.606964 
L 317.613345 171.590164 
L 373.5 143.6808 
" clip-path="url(#pc696b7db05)" style="fill: none; stroke: #c04a3b; stroke-width: 1.6; stroke-linecap: square"/>
   </g>
   <g id="line2d_24">
    <path d="M 373.5 204.2952 
L 403.087053 226.201852 
L 512.708848 176.624648 
L 521.236676 253.920068 
L 517.543259 320.516934 
L 494.937506 384.483179 
L 437.605281 420.755988 
L 373.5 416.4456 
L 307.750994 424.169218 
L 257.986275 379.759122 
L 236.843575 318.830937 
L 240.536992 257.292061 
L 287.605179 219.141166 
L 320.900795 178.416625 
L 373.5 204.2952 
" clip-path="url(#pc696b7db05)" style="fill: none; stroke: #3fa9a0; stroke-width: 1.6; stroke-linecap: square"/>
   </g>
   <g id="line2d_25">
    <path d="M 373.5 173.988 
L 409.661953 212.54893 
L 489.013725 195.520878 
L 476.915673 264.036047 
L 499.076175 316.301942 
L 468.280492 363.22492 
L 424.45548 393.450144 
L 373.5 401.292 
L 314.325894 410.516297 
L 269.833836 370.311007 
L 244.230408 317.144941 
L 255.310659 260.664054 
L 296.49085 226.227252 
L 330.763146 198.896008 
L 373.5 173.988 
" clip-path="url(#pc696b7db05)" style="fill: none; stroke: #8a8170; stroke-width: 1.6; stroke-linecap: square"/>
   </g>
   <g id="legend_1">
    <g id="line2d_26">
     <path d="M 690.73344 240.737344 
L 699.73344 240.737344 
L 708.73344 240.737344 
" style="fill: none; stroke: #2f6f8f; stroke-width: 1.6; stroke-linecap: square"/>
    </g>
    <g id="text_18">
     <!-- Attendo -->
     <g style="fill: #2b2b2b" transform="translate(715.93344 243.887344) scale(0.09 -0.09)">
      <use xlink:href="#DejaVuSans-41"/>
      <use xlink:href="#DejaVuSans-74" transform="translate(66.658203 0)"/>
      <use xlink:href="#DejaVuSans-74" transform="translate(105.867188 0)"/>
      <use xlink:href="#DejaVuSans-65" transform="translate(145.076172 0)"/>
      <use xlink:href="#DejaVuSans-6e" transform="translate(206.599609 0)"/>
      <use xlink:href="#DejaVuSans-64" transform="translate(269.978516 0)"/>
      <use xlink:href="#DejaVuSans-6f" transform="translate(333.455078 0)"/>
     </g>
    </g>
    <g id="line2d_27">
     <path d="M 690.73344 253.947656 
L 699.73344 253.947656 
L 708.73344 253.947656 
" style="fill: none; stroke: #d9508a; stroke-width: 1.6; stroke-linecap: square"/>
    </g>
    <g id="text_19">
     <!-- Esperi -->
     <g style="fill: #2b2b2b" transform="translate(715.93344 257.097656) scale(0.09 -0.09)">
      <use xlink:href="#DejaVuSans-45"/>
      <use xlink:href="#DejaVuSans-73" transform="translate(63.183594 0)"/>
      <use xlink:href="#DejaVuSans-70" transform="translate(115.283203 0)"/>
      <use xlink:href="#DejaVuSans-65" transform="translate(178.759766 0)"/>
      <use xlink:href="#DejaVuSans-72" transform="translate(240.283203 0)"/>
      <use xlink:href="#DejaVuSans-69" transform="translate(281.396484 0)"/>
     </g>
    </g>
    <g id="line2d_28">
     <path d="M 690.73344 267.157969 
L 699.73344 267.157969 
L 708.73344 267.157969 
" style="fill: none; stroke: #e29b2e; stroke-width: 1.6; stroke-linecap: square"/>
    </g>
    <g id="text_20">
     <!-- Mainio-kodit -->
     <g style="fill: #2b2b2b" transform="translate(715.93344 270.307969) scale(0.09 -0.09)">
      <defs>
       <path id="DejaVuSans-2d" d="M 313 2009 
L 1997 2009 
L 1997 1497 
L 313 1497 
L 313 2009 
z
" transform="scale(0.015625)"/>
      </defs>
      <use xlink:href="#DejaVuSans-4d"/>
      <use xlink:href="#DejaVuSans-61" transform="translate(86.279297 0)"/>
      <use xlink:href="#DejaVuSans-69" transform="translate(147.558594 0)"/>
      <use xlink:href="#DejaVuSans-6e" transform="translate(175.341797 0)"/>
      <use xlink:href="#DejaVuSans-69" transform="translate(238.720703 0)"/>
      <use xlink:href="#DejaVuSans-6f" transform="translate(266.503906 0)"/>
      <use xlink:href="#DejaVuSans-2d" transform="translate(329.560547 0)"/>
      <use xlink:href="#DejaVuSans-6b" transform="translate(365.644531 0)"/>
      <use xlink:href="#DejaVuSans-6f" transform="translate(419.929688 0)"/>
      <use xlink:href="#DejaVuSans-64" transform="translate(481.111328 0)"/>
      <use xlink:href="#DejaVuSans-69" transform="translate(544.587891 0)"/>
      <use xlink:href="#DejaVuSans-74" transform="translate(572.371094 0)"/>
     </g>
    </g>
    <g id="line2d_29">
     <path d="M 690.73344 280.368281 
L 699.73344 280.368281 
L 708.73344 280.368281 
" style="fill: none; stroke: #4e8a4e; stroke-width: 1.6; stroke-linecap: square"/>
    </g>
    <g id="text_21">
     <!-- Onnikodit -->
     <g style="fill: #2b2b2b" transform="translate(715.93344 283.518281) scale(0.09 -0.09)">
      <defs>
       <path id="DejaVuSans-4f" d="M 2522 4238 
Q 1834 4238 1429 3725 
Q 1025 3213 1025 2328 
Q 1025 1447 1429 934 
Q 1834 422 2522 422 
Q 3209 422 3611 934 
Q 4013 1447 4013 2328 
Q 4013 3213 3611 3725 
Q 3209 4238 2522 4238 
z
M 2522 4750 
Q 3503 4750 4090 4092 
Q 4678 3434 4678 2328 
Q 4678 1225 4090 567 
Q 3503 -91 2522 -91 
Q 1538 -91 948 565 
Q 359 1222 359 2328 
Q 359 3434 948 4092 
Q 1538 4750 2522 4750 
z
" transform="scale(0.015625)"/>
      </defs>
      <use xlink:href="#DejaVuSans-4f"/>
      <use xlink:href="#DejaVuSans-6e" transform="translate(78.710938 0)"/>
      <use xlink:href="#DejaVuSans-6e" transform="translate(142.089844 0)"/>
      <use xlink:href="#DejaVuSans-69" transform="translate(205.46875 0)"/>
      <use xlink:href="#DejaVuSans-6b" transform="translate(233.251953 0)"/>
      <use xlink:href="#DejaVuSans-6f" transform="translate(287.537109 0)"/>
      <use xlink:href="#DejaVuSans-64" transform="translate(348.71875 0)"/>
      <use xlink:href="#DejaVuSans-69" transform="translate(412.195312 0)"/>
      <use xlink:href="#DejaVuSans-74" transform="translate(439.978516 0)"/>
     </g>
    </g>
    <g id="line2d_30">
     <path d="M 690.73344 293.578594 
L 699.73344 293.578594 
L 708.73344 293.578594 
" style="fill: none; stroke: #7e5ba6; stroke-width: 1.6; stroke-linecap: square"/>
    </g>
    <g id="text_22">
     <!-- Ykköskodit -->
     <g style="fill: #2b2b2b" transform="translate(715.93344 296.728594) scale(0.09 -0.09)">
      <defs>
       <path id="DejaVuSans-59" d="M -13 4666 
L 666 4666 
L 1959 2747 
L 3244 4666 
L 3922 4666 
L 2272 2222 
L 2272 0 
L 1638 0 
L 1638 2222 
L -13 4666 
z
" transform="scale(0.015625)"/>
      </defs>
      <use xlink:href="#DejaVuSans-59"/>
      <use xlink:href="#DejaVuSans-6b" transform="translate(61.083984 0)"/>
      <use xlink:href="#DejaVuSans-6b" transform="translate(118.994141 0)"/>
      <use xlink:href="#DejaVuSans-f6" transform="translate(173.279297 0)"/>
      <use xlink:href="#DejaVuSans-73" transform="translate(234.460938 0)"/>
      <use xlink:href="#DejaVuSans-6b" transform="translate(286.560547 0)"/>
      <use xlink:href="#DejaVuSans-6f" transform="translate(340.845703 0)"/>
      <use xlink:href="#DejaVuSans-64" transform="translate(402.027344 0)"/>
      <use xlink:href="#DejaVuSans-69" transform="translate(465.503906 0)"/>
      <use xlink:href="#DejaVuSans-74" transform="translate(493.287109 0)"/>
     </g>
    </g>
    <g id="line2d_31">
     <path d="M 690.73344 306.788906 
L 699.73344 306.788906 
L 708.73344 306.788906 
" style="fill: none; stroke: #c04a3b; stroke-width: 1.6; stroke-linecap: square"/>
    </g>
    <g id="text_23">
     <!-- Humana -->
     <g style="fill: #2b2b2b" transform="translate(715.93344 309.938906) scale(0.09 -0.09)">
      <defs>
       <path id="DejaVuSans-48" d="M 628 4666 
L 1259 4666 
L 1259 2753 
L 3553 2753 
L 3553 4666 
L 4184 4666 
L 4184 0 
L 3553 0 
L 3553 2222 
L 1259 2222 
L 1259 0 
L 628 0 
L 628 4666 
z
" transform="scale(0.015625)"/>
      </defs>
      <use xlink:href="#DejaVuSans-48"/>
      <use xlink:href="#DejaVuSans-75" transform="translate(75.195312 0)"/>
      <use xlink:href="#DejaVuSans-6d" transform="translate(138.574219 0)"/>
      <use xlink:href="#DejaVuSans-61" transform="translate(235.986328 0)"/>
      <use xlink:href="#DejaVuSans-6e" transform="translate(297.265625 0)"/>
      <use xlink:href="#DejaVuSans-61" transform="translate(360.644531 0)"/>
     </g>
    </g>
    <g id="line2d_32">
     <path d="M 690.73344 319.999219 
L 699.73344 319.999219 
L 708.73344 319.999219 
" style="fill: none; stroke: #3fa9a0; stroke-width: 1.6; stroke-linecap: square"/>
    </g>
    <g id="text_24">
     <!-- Rinnekodit -->
     <g style="fill: #2b2b2b" transform="translate(715.93344 323.149219) scale(0.09 -0.09)">
      <use xlink:href="#DejaVuSans-52"/>
      <use xlink:href="#DejaVuSans-69" transform="translate(69.482422 0)"/>
      <use xlink:href="#DejaVuSans-6e" transform="translate(97.265625 0)"/>
      <use xlink:href="#DejaVuSans-6e" transform="translate(160.644531 0)"/>
      <use xlink:href="#DejaVuSans-65" transform="translate(224.023438 0)"/>
      <use xlink:href="#DejaVuSans-6b" transform="translate(285.546875 0)"/>
      <use xlink:href="#DejaVuSans-6f" transform="translate(339.832031 0)"/>
      <use xlink:href="#DejaVuSans-64" transform="translate(401.013672 0)"/>
      <use xlink:href="#DejaVuSans-69" transform="translate(464.490234 0)"/>
      <use xlink:href="#DejaVuSans-74" transform="translate(492.273438 0)"/>
     </g>
    </g>
    <g id="line2d_33">
     <path d="M 690.73344 333.209531 
L 699.73344 333.209531 
L 708.73344 333.209531 
" style="fill: none; stroke: #8a8170; stroke-width: 1.6; stroke-linecap: square"/>
    </g>
    <g id="text_25">
     <!-- Validia -->
     <g style="fill: #2b2b2b" transform="translate(715.93344 336.359531) scale(0.09 -0.09)">
      <use xlink:href="#DejaVuSans-56"/>
      <use xlink:href="#DejaVuSans-61" transform="translate(60.658203 0)"/>
      <use xlink:href="#DejaVuSans-6c" transform="translate(121.9375 0)"/>
      <use xlink:href="#DejaVuSans-69" transform="translate(149.720703 0)"/>
      <use xlink:href="#DejaVuSans-64" transform="translate(177.503906 0)"/>
      <use xlink:href="#DejaVuSans-69" transform="translate(240.980469 0)"/>
      <use xlink:href="#DejaVuSans-61" transform="translate(268.763672 0)"/>
     </g>
    </g>
   </g>
  </g>
  <g id="text_26">
   <!-- Brändimielikuvat — profiili (% samaa mieltä, autettu) -->
   <g style="fill: #2b2b2b" transform="translate(7.2 18.034688) scale(0.14 -0.14)">
    <defs>
     <path id="DejaVuSans-Bold-42" d="M 2456 2859 
Q 2741 2859 2887 2984 
Q 3034 3109 3034 3353 
Q 3034 3594 2887 3720 
Q 2741 3847 2456 3847 
L 1791 3847 
L 1791 2859 
L 2456 2859 
z
M 2497 819 
Q 2859 819 3042 972 
Q 3225 1125 3225 1434 
Q 3225 1738 3044 1889 
Q 2863 2041 2497 2041 
L 1791 2041 
L 1791 819 
L 2497 819 
z
M 3616 2497 
Q 4003 2384 4215 2081 
Q 4428 1778 4428 1338 
Q 4428 663 3972 331 
Q 3516 0 2584 0 
L 588 0 
L 588 4666 
L 2394 4666 
Q 3366 4666 3802 4372 
Q 4238 4078 4238 3431 
Q 4238 3091 4078 2852 
Q 3919 2613 3616 2497 
z
" transform="scale(0.015625)"/>
     <path id="DejaVuSans-Bold-72" d="M 3138 2547 
Q 2991 2616 2845 2648 
Q 2700 2681 2553 2681 
Q 2122 2681 1889 2404 
Q 1656 2128 1656 1613 
L 1656 0 
L 538 0 
L 538 3500 
L 1656 3500 
L 1656 2925 
Q 1872 3269 2151 3426 
Q 2431 3584 2822 3584 
Q 2878 3584 2943 3579 
Q 3009 3575 3134 3559 
L 3138 2547 
z
" transform="scale(0.015625)"/>
     <path id="DejaVuSans-Bold-e4" d="M 2106 1575 
Q 1756 1575 1579 1456 
Q 1403 1338 1403 1106 
Q 1403 894 1545 773 
Q 1688 653 1941 653 
Q 2256 653 2472 879 
Q 2688 1106 2688 1447 
L 2688 1575 
L 2106 1575 
z
M 3816 1997 
L 3816 0 
L 2688 0 
L 2688 519 
Q 2463 200 2181 54 
Q 1900 -91 1497 -91 
Q 953 -91 614 226 
Q 275 544 275 1050 
Q 275 1666 698 1953 
Q 1122 2241 2028 2241 
L 2688 2241 
L 2688 2328 
Q 2688 2594 2478 2717 
Q 2269 2841 1825 2841 
Q 1466 2841 1156 2769 
Q 847 2697 581 2553 
L 581 3406 
Q 941 3494 1303 3539 
Q 1666 3584 2028 3584 
Q 2975 3584 3395 3211 
Q 3816 2838 3816 1997 
z
M 1200 4953 
L 1934 4953 
L 1934 4184 
L 1200 4184 
L 1200 4953 
z
M 2434 4953 
L 3168 4953 
L 3168 4184 
L 2434 4184 
L 2434 4953 
z
" transform="scale(0.015625)"/>
     <path id="DejaVuSans-Bold-6e" d="M 4056 2131 
L 4056 0 
L 2931 0 
L 2931 347 
L 2931 1631 
Q 2931 2084 2911 2256 
Q 2891 2428 2841 2509 
Q 2775 2619 2662 2680 
Q 2550 2741 2406 2741 
Q 2056 2741 1856 2470 
Q 1656 2200 1656 1722 
L 1656 0 
L 538 0 
L 538 3500 
L 1656 3500 
L 1656 2988 
Q 1909 3294 2193 3439 
Q 2478 3584 2822 3584 
Q 3428 3584 3742 3212 
Q 4056 2841 4056 2131 
z
" transform="scale(0.015625)"/>
     <path id="DejaVuSans-Bold-64" d="M 2919 2988 
L 2919 4863 
L 4044 4863 
L 4044 0 
L 2919 0 
L 2919 506 
Q 2688 197 2409 53 
Q 2131 -91 1766 -91 
Q 1119 -91 703 423 
Q 288 938 288 1747 
Q 288 2556 703 3070 
Q 1119 3584 1766 3584 
Q 2128 3584 2408 3439 
Q 2688 3294 2919 2988 
z
M 2181 722 
Q 2541 722 2730 984 
Q 2919 1247 2919 1747 
Q 2919 2247 2730 2509 
Q 2541 2772 2181 2772 
Q 1825 2772 1636 2509 
Q 1447 2247 1447 1747 
Q 1447 1247 1636 984 
Q 1825 722 2181 722 
z
" transform="scale(0.015625)"/>
     <path id="DejaVuSans-Bold-69" d="M 538 3500 
L 1656 3500 
L 1656 0 
L 538 0 
L 538 3500 
z
M 538 4863 
L 1656 4863 
L 1656 3950 
L 538 3950 
L 538 4863 
z
" transform="scale(0.015625)"/>
     <path id="DejaVuSans-Bold-6d" d="M 3781 2919 
Q 3994 3244 4286 3414 
Q 4578 3584 4928 3584 
Q 5531 3584 5847 3212 
Q 6163 2841 6163 2131 
L 6163 0 
L 5038 0 
L 5038 1825 
Q 5041 1866 5042 1909 
Q 5044 1953 5044 2034 
Q 5044 2406 4934 2573 
Q 4825 2741 4581 2741 
Q 4263 2741 4089 2478 
Q 3916 2216 3909 1719 
L 3909 0 
L 2784 0 
L 2784 1825 
Q 2784 2406 2684 2573 
Q 2584 2741 2328 2741 
Q 2006 2741 1831 2477 
Q 1656 2213 1656 1722 
L 1656 0 
L 531 0 
L 531 3500 
L 1656 3500 
L 1656 2988 
Q 1863 3284 2130 3434 
Q 2397 3584 2719 3584 
Q 3081 3584 3359 3409 
Q 3638 3234 3781 2919 
z
" transform="scale(0.015625)"/>
     <path id="DejaVuSans-Bold-65" d="M 4031 1759 
L 4031 1441 
L 1416 1441 
Q 1456 1047 1700 850 
Q 1944 653 2381 653 
Q 2734 653 3104 758 
Q 3475 863 3866 1075 
L 3866 213 
Q 3469 63 3072 -14 
Q 2675 -91 2278 -91 
Q 1328 -91 801 392 
Q 275 875 275 1747 
Q 275 2603 792 3093 
Q 1309 3584 2216 3584 
Q 3041 3584 3536 3087 
Q 4031 2591 4031 1759 
z
M 2881 2131 
Q 2881 2450 2695 2645 
Q 2509 2841 2209 2841 
Q 1884 2841 1681 2658 
Q 1478 2475 1428 2131 
L 2881 2131 
z
" transform="scale(0.015625)"/>
     <path id="DejaVuSans-Bold-6c" d="M 538 4863 
L 1656 4863 
L 1656 0 
L 538 0 
L 538 4863 
z
" transform="scale(0.015625)"/>
     <path id="DejaVuSans-Bold-6b" d="M 538 4863 
L 1656 4863 
L 1656 2216 
L 2944 3500 
L 4244 3500 
L 2534 1894 
L 4378 0 
L 3022 0 
L 1656 1459 
L 1656 0 
L 538 0 
L 538 4863 
z
" transform="scale(0.015625)"/>
     <path id="DejaVuSans-Bold-75" d="M 500 1363 
L 500 3500 
L 1625 3500 
L 1625 3150 
Q 1625 2866 1622 2436 
Q 1619 2006 1619 1863 
Q 1619 1441 1641 1255 
Q 1663 1069 1716 984 
Q 1784 875 1895 815 
Q 2006 756 2150 756 
Q 2500 756 2700 1025 
Q 2900 1294 2900 1772 
L 2900 3500 
L 4019 3500 
L 4019 0 
L 2900 0 
L 2900 506 
Q 2647 200 2364 54 
Q 2081 -91 1741 -91 
Q 1134 -91 817 281 
Q 500 653 500 1363 
z
" transform="scale(0.015625)"/>
     <path id="DejaVuSans-Bold-76" d="M 97 3500 
L 1216 3500 
L 2088 1081 
L 2956 3500 
L 4078 3500 
L 2700 0 
L 1472 0 
L 97 3500 
z
" transform="scale(0.015625)"/>
     <path id="DejaVuSans-Bold-61" d="M 2106 1575 
Q 1756 1575 1579 1456 
Q 1403 1338 1403 1106 
Q 1403 894 1545 773 
Q 1688 653 1941 653 
Q 2256 653 2472 879 
Q 2688 1106 2688 1447 
L 2688 1575 
L 2106 1575 
z
M 3816 1997 
L 3816 0 
L 2688 0 
L 2688 519 
Q 2463 200 2181 54 
Q 1900 -91 1497 -91 
Q 953 -91 614 226 
Q 275 544 275 1050 
Q 275 1666 698 1953 
Q 1122 2241 2028 2241 
L 2688 2241 
L 2688 2328 
Q 2688 2594 2478 2717 
Q 2269 2841 1825 2841 
Q 1466 2841 1156 2769 
Q 847 2697 581 2553 
L 581 3406 
Q 941 3494 1303 3539 
Q 1666 3584 2028 3584 
Q 2975 3584 3395 3211 
Q 3816 2838 3816 1997 
z
" transform="scale(0.015625)"/>
     <path id="DejaVuSans-Bold-74" d="M 1759 4494 
L 1759 3500 
L 2913 3500 
L 2913 2700 
L 1759 2700 
L 1759 1216 
Q 1759 972 1856 886 
Q 1953 800 2241 800 
L 2816 800 
L 2816 0 
L 1856 0 
Q 1194 0 917 276 
Q 641 553 641 1216 
L 641 2700 
L 84 2700 
L 84 3500 
L 641 3500 
L 641 4494 
L 1759 4494 
z
" transform="scale(0.015625)"/>
     <path id="DejaVuSans-Bold-20" transform="scale(0.015625)"/>
     <path id="DejaVuSans-Bold-2014" d="M 344 2156 
L 6056 2156 
L 6056 1350 
L 344 1350 
L 344 2156 
z
" transform="scale(0.015625)"/>
     <path id="DejaVuSans-Bold-70" d="M 1656 506 
L 1656 -1331 
L 538 -1331 
L 538 3500 
L 1656 3500 
L 1656 2988 
Q 1888 3294 2169 3439 
Q 2450 3584 2816 3584 
Q 3463 3584 3878 3070 
Q 4294 2556 4294 1747 
Q 4294 938 3878 423 
Q 3463 -91 2816 -91 
Q 2450 -91 2169 54 
Q 1888 200 1656 506 
z
M 2400 2772 
Q 2041 2772 1848 2508 
Q 1656 2244 1656 1747 
Q 1656 1250 1848 986 
Q 2041 722 2400 722 
Q 2759 722 2948 984 
Q 3138 1247 3138 1747 
Q 3138 2247 2948 2509 
Q 2759 2772 2400 2772 
z
" transform="scale(0.015625)"/>
     <path id="DejaVuSans-Bold-6f" d="M 2203 2784 
Q 1831 2784 1636 2517 
Q 1441 2250 1441 1747 
Q 1441 1244 1636 976 
Q 1831 709 2203 709 
Q 2569 709 2762 976 
Q 2956 1244 2956 1747 
Q 2956 2250 2762 2517 
Q 2569 2784 2203 2784 
z
M 2203 3584 
Q 3106 3584 3614 3096 
Q 4122 2609 4122 1747 
Q 4122 884 3614 396 
Q 3106 -91 2203 -91 
Q 1297 -91 786 396 
Q 275 884 275 1747 
Q 275 2609 786 3096 
Q 1297 3584 2203 3584 
z
" transform="scale(0.015625)"/>
     <path id="DejaVuSans-Bold-66" d="M 2841 4863 
L 2841 4128 
L 2222 4128 
Q 1984 4128 1890 4042 
Q 1797 3956 1797 3744 
L 1797 3500 
L 2753 3500 
L 2753 2700 
L 1797 2700 
L 1797 0 
L 678 0 
L 678 2700 
L 122 2700 
L 122 3500 
L 678 3500 
L 678 3744 
Q 678 4316 997 4589 
Q 1316 4863 1984 4863 
L 2841 4863 
z
" transform="scale(0.015625)"/>
     <path id="DejaVuSans-Bold-28" d="M 2413 -844 
L 1484 -844 
Q 1006 -72 778 623 
Q 550 1319 550 2003 
Q 550 2688 779 3389 
Q 1009 4091 1484 4856 
L 2413 4856 
Q 2013 4116 1813 3408 
Q 1613 2700 1613 2009 
Q 1613 1319 1811 609 
Q 2009 -100 2413 -844 
z
" transform="scale(0.015625)"/>
     <path id="DejaVuSans-Bold-25" d="M 4959 1925 
Q 4738 1925 4616 1733 
Q 4494 1541 4494 1184 
Q 4494 825 4614 633 
Q 4734 441 4959 441 
Q 5184 441 5303 633 
Q 5422 825 5422 1184 
Q 5422 1541 5301 1733 
Q 5181 1925 4959 1925 
z
M 4959 2450 
Q 5541 2450 5875 2112 
Q 6209 1775 6209 1184 
Q 6209 594 5875 251 
Q 5541 -91 4959 -91 
Q 4378 -91 4042 251 
Q 3706 594 3706 1184 
Q 3706 1772 4042 2111 
Q 4378 2450 4959 2450 
z
M 2094 -91 
L 1403 -91 
L 4319 4750 
L 5013 4750 
L 2094 -91 
z
M 1453 4750 
Q 2034 4750 2367 4411 
Q 2700 4072 2700 3481 
Q 2700 2891 2367 2550 
Q 2034 2209 1453 2209 
Q 872 2209 539 2550 
Q 206 2891 206 3481 
Q 206 4072 539 4411 
Q 872 4750 1453 4750 
z
M 1453 4225 
Q 1228 4225 1106 4031 
Q 984 3838 984 3481 
Q 984 3122 1106 2926 
Q 1228 2731 1453 2731 
Q 1678 2731 1798 2926 
Q 1919 3122 1919 3481 
Q 1919 3838 1797 4031 
Q 1675 4225 1453 4225 
z
" transform="scale(0.015625)"/>
     <path id="DejaVuSans-Bold-73" d="M 3272 3391 
L 3272 2541 
Q 2913 2691 2578 2766 
Q 2244 2841 1947 2841 
Q 1628 2841 1473 2761 
Q 1319 2681 1319 2516 
Q 1319 2381 1436 2309 
Q 1553 2238 1856 2203 
L 2053 2175 
Q 2913 2066 3209 1816 
Q 3506 1566 3506 1031 
Q 3506 472 3093 190 
Q 2681 -91 1863 -91 
Q 1516 -91 1145 -36 
Q 775 19 384 128 
L 384 978 
Q 719 816 1070 734 
Q 1422 653 1784 653 
Q 2113 653 2278 743 
Q 2444 834 2444 1013 
Q 2444 1163 2330 1236 
Q 2216 1309 1875 1350 
L 1678 1375 
Q 931 1469 631 1722 
Q 331 1975 331 2491 
Q 331 3047 712 3315 
Q 1094 3584 1881 3584 
Q 2191 3584 2531 3537 
Q 2872 3491 3272 3391 
z
" transform="scale(0.015625)"/>
     <path id="DejaVuSans-Bold-2c" d="M 653 1209 
L 1778 1209 
L 1778 256 
L 1006 -909 
L 341 -909 
L 653 256 
L 653 1209 
z
" transform="scale(0.015625)"/>
     <path id="DejaVuSans-Bold-29" d="M 513 -844 
Q 913 -100 1113 609 
Q 1313 1319 1313 2009 
Q 1313 2700 1113 3408 
Q 913 4116 513 4856 
L 1441 4856 
Q 1916 4091 2145 3389 
Q 2375 2688 2375 2003 
Q 2375 1319 2147 623 
Q 1919 -72 1441 -844 
L 513 -844 
z
" transform="scale(0.015625)"/>
    </defs>
    <use xlink:href="#DejaVuSans-Bold-42"/>
    <use xlink:href="#DejaVuSans-Bold-72" transform="translate(76.220703 0)"/>
    <use xlink:href="#DejaVuSans-Bold-e4" transform="translate(125.537109 0)"/>
    <use xlink:href="#DejaVuSans-Bold-6e" transform="translate(193.017578 0)"/>
    <use xlink:href="#DejaVuSans-Bold-64" transform="translate(264.208984 0)"/>
    <use xlink:href="#DejaVuSans-Bold-69" transform="translate(335.791016 0)"/>
    <use xlink:href="#DejaVuSans-Bold-6d" transform="translate(370.068359 0)"/>
    <use xlink:href="#DejaVuSans-Bold-69" transform="translate(474.267578 0)"/>
    <use xlink:href="#DejaVuSans-Bold-65" transform="translate(508.544922 0)"/>
    <use xlink:href="#DejaVuSans-Bold-6c" transform="translate(576.367188 0)"/>
    <use xlink:href="#DejaVuSans-Bold-69" transform="translate(610.644531 0)"/>
    <use xlink:href="#DejaVuSans-Bold-6b" transform="translate(644.921875 0)"/>
    <use xlink:href="#DejaVuSans-Bold-75" transform="translate(711.425781 0)"/>
    <use xlink:href="#DejaVuSans-Bold-76" transform="translate(782.617188 0)"/>
    <use xlink:href="#DejaVuSans-Bold-61" transform="translate(847.802734 0)"/>
    <use xlink:href="#DejaVuSans-Bold-74" transform="translate(915.283203 0)"/>
    <use xlink:href="#DejaVuSans-Bold-20" transform="translate(963.085938 0)"/>
    <use xlink:href="#DejaVuSans-Bold-2014" transform="translate(997.900391 0)"/>
    <use xlink:href="#DejaVuSans-Bold-20" transform="translate(1097.900391 0)"/>
    <use xlink:href="#DejaVuSans-Bold-70" transform="translate(1132.714844 0)"/>
    <use xlink:href="#DejaVuSans-Bold-72" transform="translate(1204.296875 0)"/>
    <use xlink:href="#DejaVuSans-Bold-6f" transform="translate(1253.613281 0)"/>
    <use xlink:href="#DejaVuSans-Bold-66" transform="translate(1322.314453 0)"/>
    <use xlink:href="#DejaVuSans-Bold-69" transform="translate(1365.820312 0)"/>
    <use xlink:href="#DejaVuSans-Bold-69" transform="translate(1400.097656 0)"/>
    <use xlink:href="#DejaVuSans-Bold-6c" transform="translate(1434.375 0)"/>
    <use xlink:href="#DejaVuSans-Bold-69" transform="translate(1468.652344 0)"/>
    <use xlink:href="#DejaVuSans-Bold-20" transform="translate(1502.929688 0)"/>
    <use xlink:href="#DejaVuSans-Bold-28" transform="translate(1537.744141 0)"/>
    <use xlink:href="#DejaVuSans-Bold-25" transform="translate(1583.447266 0)"/>
    <use xlink:href="#DejaVuSans-Bold-20" transform="translate(1683.642578 0)"/>
    <use xlink:href="#DejaVuSans-Bold-73" transform="translate(1718.457031 0)"/>
    <use xlink:href="#DejaVuSans-Bold-61" transform="translate(1777.978516 0)"/>
    <use xlink:href="#DejaVuSans-Bold-6d" transform="translate(1845.458984 0)"/>
    <use xlink:href="#DejaVuSans-Bold-61" transform="translate(1949.658203 0)"/>
    <use xlink:href="#DejaVuSans-Bold-61" transform="translate(2017.138672 0)"/>
    <use xlink:href="#DejaVuSans-Bold-20" transform="translate(2084.619141 0)"/>
    <use xlink:href="#DejaVuSans-Bold-6d" transform="translate(2119.433594 0)"/>
    <use xlink:href="#DejaVuSans-Bold-69" transform="translate(2223.632812 0)"/>
    <use xlink:href="#DejaVuSans-Bold-65" transform="translate(2257.910156 0)"/>
    <use xlink:href="#DejaVuSans-Bold-6c" transform="translate(2325.732422 0)"/>
    <use xlink:href="#DejaVuSans-Bold-74" transform="translate(2360.009766 0)"/>
    <use xlink:href="#DejaVuSans-Bold-e4" transform="translate(2407.8125 0)"/>
    <use xlink:href="#DejaVuSans-Bold-2c" transform="translate(2475.292969 0)"/>
    <use xlink:href="#DejaVuSans-Bold-20" transform="translate(2513.28125 0)"/>
    <use xlink:href="#DejaVuSans-Bold-61" transform="translate(2548.095703 0)"/>
    <use xlink:href="#DejaVuSans-Bold-75" transform="translate(2615.576172 0)"/>
    <use xlink:href="#DejaVuSans-Bold-74" transform="translate(2686.767578 0)"/>
    <use xlink:href="#DejaVuSans-Bold-65" transform="translate(2734.570312 0)"/>
    <use xlink:href="#DejaVuSans-Bold-74" transform="translate(2802.392578 0)"/>
    <use xlink:href="#DejaVuSans-Bold-74" transform="translate(2850.195312 0)"/>
    <use xlink:href="#DejaVuSans-Bold-75" transform="translate(2897.998047 0)"/>
    <use xlink:href="#DejaVuSans-Bold-29" transform="translate(2969.189453 0)"/>
   </g>
  </g>
  <g id="text_27">
   <!-- Arvioi mielikuvaasi · n vaihtelee brändeittäin · Marraskuu 2025 -->
   <g style="fill: #8a857b" transform="translate(7.2 30.816) scale(0.095 -0.095)">
    <defs>
     <path id="DejaVuSans-b7" d="M 684 2619 
L 1344 2619 
L 1344 1825 
L 684 1825 
L 684 2619 
z
" transform="scale(0.015625)"/>
     <path id="DejaVuSans-62" d="M 3116 1747 
Q 3116 2381 2855 2742 
Q 2594 3103 2138 3103 
Q 1681 3103 1420 2742 
Q 1159 2381 1159 1747 
Q 1159 1113 1420 752 
Q 1681 391 2138 391 
Q 2594 391 2855 752 
Q 3116 1113 3116 1747 
z
M 1159 2969 
Q 1341 3281 1617 3432 
Q 1894 3584 2278 3584 
Q 2916 3584 3314 3078 
Q 3713 2572 3713 1747 
Q 3713 922 3314 415 
Q 2916 -91 2278 -91 
Q 1894 -91 1617 61 
Q 1341 213 1159 525 
L 1159 0 
L 581 0 
L 581 4863 
L 1159 4863 
L 1159 2969 
z
" transform="scale(0.015625)"/>
     <path id="DejaVuSans-35" d="M 691 4666 
L 3169 4666 
L 3169 4134 
L 1269 4134 
L 1269 2991 
Q 1406 3038 1543 3061 
Q 1681 3084 1819 3084 
Q 2600 3084 3056 2656 
Q 3513 2228 3513 1497 
Q 3513 744 3044 326 
Q 2575 -91 1722 -91 
Q 1428 -91 1123 -41 
Q 819 9 494 109 
L 494 744 
Q 775 591 1075 516 
Q 1375 441 1709 441 
Q 2250 441 2565 725 
Q 2881 1009 2881 1497 
Q 2881 1984 2565 2268 
Q 2250 2553 1709 2553 
Q 1456 2553 1204 2497 
Q 953 2441 691 2322 
L 691 4666 
z
" transform="scale(0.015625)"/>
    </defs>
    <use xlink:href="#DejaVuSans-41"/>
    <use xlink:href="#DejaVuSans-72" transform="translate(68.408203 0)"/>
    <use xlink:href="#DejaVuSans-76" transform="translate(109.521484 0)"/>
    <use xlink:href="#DejaVuSans-69" transform="translate(168.701172 0)"/>
    <use xlink:href="#DejaVuSans-6f" transform="translate(196.484375 0)"/>
    <use xlink:href="#DejaVuSans-69" transform="translate(257.666016 0)"/>
    <use xlink:href="#DejaVuSans-20" transform="translate(285.449219 0)"/>
    <use xlink:href="#DejaVuSans-6d" transform="translate(317.236328 0)"/>
    <use xlink:href="#DejaVuSans-69" transform="translate(414.648438 0)"/>
    <use xlink:href="#DejaVuSans-65" transform="translate(442.431641 0)"/>
    <use xlink:href="#DejaVuSans-6c" transform="translate(503.955078 0)"/>
    <use xlink:href="#DejaVuSans-69" transform="translate(531.738281 0)"/>
    <use xlink:href="#DejaVuSans-6b" transform="translate(559.521484 0)"/>
    <use xlink:href="#DejaVuSans-75" transform="translate(614.306641 0)"/>
    <use xlink:href="#DejaVuSans-76" transform="translate(677.685547 0)"/>
    <use xlink:href="#DejaVuSans-61" transform="translate(736.865234 0)"/>
    <use xlink:href="#DejaVuSans-61" transform="translate(798.144531 0)"/>
    <use xlink:href="#DejaVuSans-73" transform="translate(859.423828 0)"/>
    <use xlink:href="#DejaVuSans-69" transform="translate(911.523438 0)"/>
    <use xlink:href="#DejaVuSans-20" transform="translate(939.306641 0)"/>
    <use xlink:href="#DejaVuSans-b7" transform="translate(971.09375 0)"/>
    <use xlink:href="#DejaVuSans-20" transform="translate(1002.880859 0)"/>
    <use xlink:href="#DejaVuSans-6e" transform="translate(1034.667969 0)"/>
    <use xlink:href="#DejaVuSans-20" transform="translate(1098.046875 0)"/>
    <use xlink:href="#DejaVuSans-76" transform="translate(1129.833984 0)"/>
    <use xlink:href="#DejaVuSans-61" transform="translate(1189.013672 0)"/>
    <use xlink:href="#DejaVuSans-69" transform="translate(1250.292969 0)"/>
    <use xlink:href="#DejaVuSans-68" transform="translate(1278.076172 0)"/>
    <use xlink:href="#DejaVuSans-74" transform="translate(1341.455078 0)"/>
    <use xlink:href="#DejaVuSans-65" transform="translate(1380.664062 0)"/>
    <use xlink:href="#DejaVuSans-6c" transform="translate(1442.1875 0)"/>
    <use xlink:href="#DejaVuSans-65" transform="translate(1469.970703 0)"/>
    <use xlink:href="#DejaVuSans-65" transform="translate(1531.494141 0)"/>
    <use xlink:href="#DejaVuSans-20" transform="translate(1593.017578 0)"/>
    <use xlink:href="#DejaVuSans-62" transform="translate(1624.804688 0)"/>
    <use xlink:href="#DejaVuSans-72" transform="translate(1688.28125 0)"/>
    <use xlink:href="#DejaVuSans-e4" transform="translate(1729.394531 0)"/>
    <use xlink:href="#DejaVuSans-6e" transform="translate(1790.673828 0)"/>
    <use xlink:href="#DejaVuSans-64" transform="translate(1854.052734 0)"/>
    <use xlink:href="#DejaVuSans-65" transform="translate(1917.529297 0)"/>
    <use xlink:href="#DejaVuSans-69" transform="translate(1979.052734 0)"/>
    <use xlink:href="#DejaVuSans-74" transform="translate(2006.835938 0)"/>
    <use xlink:href="#DejaVuSans-74" transform="translate(2046.044922 0)"/>
    <use xlink:href="#DejaVuSans-e4" transform="translate(2085.253906 0)"/>
    <use xlink:href="#DejaVuSans-69" transform="translate(2146.533203 0)"/>
    <use xlink:href="#DejaVuSans-6e" transform="translate(2174.316406 0)"/>
    <use xlink:href="#DejaVuSans-20" transform="translate(2237.695312 0)"/>
    <use xlink:href="#DejaVuSans-b7" transform="translate(2269.482422 0)"/>
    <use xlink:href="#DejaVuSans-20" transform="translate(2301.269531 0)"/>
    <use xlink:href="#DejaVuSans-4d" transform="translate(2333.056641 0)"/>
    <use xlink:href="#DejaVuSans-61" transform="translate(2419.335938 0)"/>
    <use xlink:href="#DejaVuSans-72" transform="translate(2480.615234 0)"/>
    <use xlink:href="#DejaVuSans-72" transform="translate(2519.978516 0)"/>
    <use xlink:href="#DejaVuSans-61" transform="translate(2561.091797 0)"/>
    <use xlink:href="#DejaVuSans-73" transform="translate(2622.371094 0)"/>
    <use xlink:href="#DejaVuSans-6b" transform="translate(2674.470703 0)"/>
    <use xlink:href="#DejaVuSans-75" transform="translate(2729.255859 0)"/>
    <use xlink:href="#DejaVuSans-75" transform="translate(2792.634766 0)"/>
    <use xlink:href="#DejaVuSans-20" transform="translate(2856.013672 0)"/>
    <use xlink:href="#DejaVuSans-32" transform="translate(2887.800781 0)"/>
    <use xlink:href="#DejaVuSans-30" transform="translate(2951.423828 0)"/>
    <use xlink:href="#DejaVuSans-32" transform="translate(3015.046875 0)"/>
    <use xlink:href="#DejaVuSans-35" transform="translate(3078.669922 0)"/>
   </g>
  </g>
 </g>
 <defs>
  <clipPath id="pc696b7db05">
   <path d="M 600.804 287.64 
C 600.804 257.790712 594.924341 228.231671 583.501513 200.654525 
C 572.078685 173.077379 555.334834 148.018434 534.2282 126.9118 
C 513.121566 105.805166 488.062621 89.061315 460.485475 77.638487 
C 432.908329 66.215659 403.349288 60.336 373.5 60.336 
C 343.650712 60.336 314.091671 66.215659 286.514525 77.638487 
C 258.937379 89.061315 233.878434 105.805166 212.7718 126.9118 
C 191.665166 148.018434 174.921315 173.077379 163.498487 200.654525 
C 152.075659 228.231671 146.196 257.790712 146.196 287.64 
C 146.196 317.489288 152.075659 347.048329 163.498487 374.625475 
C 174.921315 402.202621 191.665166 427.261566 212.7718 448.3682 
C 233.878434 469.474834 258.937379 486.218685 286.514525 497.641513 
C 314.091671 509.064341 343.650712 514.944 373.5 514.944 
C 403.349288 514.944 432.908329 509.064341 460.485475 497.641513 
C 488.062621 486.218685 513.121566 469.474834 534.2282 448.3682 
C 555.334834 427.261566 572.078685 402.202621 583.501513 374.625475 
C 594.924341 347.048329 600.804 317.489288 600.804 287.64 
M 373.5 287.64 
C 373.5 287.64 373.5 287.64 373.5 287.64 
C 373.5 287.64 373.5 287.64 373.5 287.64 
C 373.5 287.64 373.5 287.64 373.5 287.64 
C 373.5 287.64 373.5 287.64 373.5 287.64 
C 373.5 287.64 373.5 287.64 373.5 287.64 
C 373.5 287.64 373.5 287.64 373.5 287.64 
C 373.5 287.64 373.5 287.64 373.5 287.64 
C 373.5 287.64 373.5 287.64 373.5 287.64 
C 373.5 287.64 373.5 287.64 373.5 287.64 
C 373.5 287.64 373.5 287.64 373.5 287.64 
C 373.5 287.64 373.5 287.64 373.5 287.64 
C 373.5 287.64 373.5 287.64 373.5 287.64 
C 373.5 287.64 373.5 287.64 373.5 287.64 
C 373.5 287.64 373.5 287.64 373.5 287.64 
C 373.5 287.64 373.5 287.64 373.5 287.64 
C 373.5 287.64 373.5 287.64 373.5 287.64 
z
"/>
  </clipPath>
 </defs>
</svg>
