<svg xmlns="http://www.w3.org/2000/svg" xmlns:xlink="http://www.w3.org/1999/xlink" version="1.1" class="marks" width="584" height="475" viewBox="0 0 584 475"><rect width="584" height="475" fill="#F4EFE6"/><g fill="none" stroke-miterlimit="10" transform="translate(19,44)"><g class="mark-group role-frame root" role="graphics-object" aria-roledescription="group mark container"><g transform="translate(0,0)"><path class="background" aria-hidden="true" d="M0,0h560v380h-560Z"/><g><g class="mark-group role-axis" aria-hidden="true"><g transform="translate(0.5,0.5)"><path class="background" aria-hidden="true" d="M0,0h0v0h0Z" pointer-events="none"/><g><g class="mark-rule role-axis-grid" pointer-events="none"><line transform="translate(0,380)" x2="560" y2="0" stroke="#E2DBCD" stroke-width="1" opacity="1"/><line transform="translate(0,300)" x2="560" y2="0" stroke="#E2DBCD" stroke-width="1" opacity="1"/><line transform="translate(0,220)" x2="560" y2="0" stroke="#E2DBCD" stroke-width="1" opacity="1"/><line transform="translate(0,140)" x2="560" y2="0" stroke="#E2DBCD" stroke-width="1" opacity="1"/><line transform="translate(0,60)" x2="560" y2="0" stroke="#E2DBCD" stroke-width="1" opacity="1"/></g></g><path class="foreground" aria-hidden="true" d="" pointer-events="none" display="none"/></g></g><g class="mark-group role-axis" role="graphics-symbol" aria-roledescription="axis" aria-label="X-axis for a discrete scale with 4 values: Tou 24, Mar 24, Tou 25, Mar 25"><g transform="translate(0.5,380.5)"><path class="background" aria-hidden="true" d="M0,0h0v0h0Z" pointer-events="none"/><g><g class="mark-text role-axis-label" pointer-events="none"><text text-anchor="end" transform="translate(70,8) rotate(270) translate(0,4)" font-family="Liberation Sans" font-size="12px" fill="#2B2B2B" opacity="1">Tou 24</text><text text-anchor="end" transform="translate(210,8) rotate(270) translate(0,4)" font-family="Liberation Sans" font-size="12px" fill="#2B2B2B" opacity="1">Mar 24</text><text text-anchor="end" transform="translate(350,8) rotate(270) translate(0,4)" font-family="Liberation Sans" font-size="12px" fill="#2B2B2B" opacity="1">Tou 25</text><text text-anchor="end" transform="translate(490,8) rotate(270) translate(0,4)" font-family="Liberation Sans" font-size="12px" fill="#2B2B2B" opacity="1">Mar 25</text></g></g><path class="foreground" aria-hidden="true" d="" pointer-events="none" display="none"/></g></g><g class="mark-group role-axis" role="graphics-symbol" aria-roledescription="axis" aria-label="Y-axis for a linear scale with values from 0 to 95"><g transform="translate(0.5,0.5)"><path class="background" aria-hidden="true" d="M0,0h0v0h0Z" pointer-events="none"/><g><g class="mark-text role-axis-label" pointer-events="none"><text text-anchor="end" transform="translate(-2,383)" font-family="Liberation Sans" font-size="10px" fill="#8A857B" opacity="1">0</text><text text-anchor="end" transform="translate(-2,303)" font-family="Liberation Sans" font-size="10px" fill="#8A857B" opacity="1">20</text><text text-anchor="end" transform="translate(-2,223)" font-family="Liberation Sans" font-size="10px" fill="#8A857B" opacity="1">40</text><text text-anchor="end" transform="translate(-2,143)" font-family="Liberation Sans" font-size="10px" fill="#8A857B" opacity="1">60</text><text text-anchor="end" transform="translate(-2,63.000000000000014)" font-family="Liberation Sans" font-size="10px" fill="#8A857B" opacity="1">80</text></g></g><path class="foreground" aria-hidden="true" d="" pointer-events="none" display="none"/></g></g><g class="mark-group role-scope layer_0_pathgroup" role="graphics-object" aria-roledescription="group mark container"><g transform="translate(0,0)"><path class="background" aria-hidden="true" d="M0,0h560v380h-560Z"/><g><g class="mark-line role-mark layer_0_marks" role="graphics-object" aria-roledescription="line mark container"><path aria-label="wave: Tou 24; value: 44; brand: Rinnekodit" role="graphics-symbol" aria-roledescription="line mark" d="M70,204L210,224L350,208L490,212" stroke="#B7AFA0" stroke-width="1.5" opacity="0.7"/></g></g><path class="foreground" aria-hidden="true" d="" display="none"/></g><g transform="translate(0,0)"><path class="background" aria-hidden="true" d="M0,0h560v380h-560Z"/><g><g class="mark-line role-mark layer_0_marks" role="graphics-object" aria-roledescription="line mark container"><path aria-label="wave: Mar 24; value: 29; brand: Validia" role="graphics-symbol" aria-roledescription="line mark" d="M210,264L350,252L490,248" stroke="#B7AFA0" stroke-width="1.5" opacity="0.7"/></g></g><path class="foreground" aria-hidden="true" d="" display="none"/></g><g transform="translate(0,0)"><path class="background" aria-hidden="true" d="M0,0h560v380h-560Z"/><g><g class="mark-line role-mark layer_0_marks" role="graphics-object" aria-roledescription="line mark container"><path aria-label="wave: Tou 24; value: 22; brand: Onnikodit" role="graphics-symbol" aria-roledescription="line mark" d="M70,292L210,288L350,268L490,276" stroke="#B7AFA0" stroke-width="1.5" opacity="0.7"/></g></g><path class="foreground" aria-hidden="true" d="" display="none"/></g><g transform="translate(0,0)"><path class="background" aria-hidden="true" d="M0,0h560v380h-560Z"/><g><g class="mark-line role-mark layer_0_marks" role="graphics-object" aria-roledescription="line mark container"><path aria-label="wave: Tou 24; value: 21; brand: Mainio-kodit" role="graphics-symbol" aria-roledescription="line mark" d="M70,296L210,296L350,288L490,292" stroke="#B7AFA0" stroke-width="1.5" opacity="0.7"/></g></g><path class="foreground" aria-hidden="true" d="" display="none"/></g><g transform="translate(0,0)"><path class="background" aria-hidden="true" d="M0,0h560v380h-560Z"/><g><g class="mark-line role-mark layer_0_marks" role="graphics-object" aria-roledescription="line mark container"><path aria-label="wave: Tou 24; value: 14; brand: Ykköskodit" role="graphics-symbol" aria-roledescription="line mark" d="M70,324L210,328L350,324L490,320" stroke="#B7AFA0" stroke-width="1.5" opacity="0.7"/></g></g><path class="foreground" aria-hidden="true" d="" display="none"/></g><g transform="translate(0,0)"><path class="background" aria-hidden="true" d="M0,0h560v380h-560Z"/><g><g class="mark-line role-mark layer_0_marks" role="graphics-object" aria-roledescription="line mark container"><path aria-label="wave: Tou 24; value: 14; brand: Humana" role="graphics-symbol" aria-roledescription="line mark" d="M70,324L210,328L350,336L490,328" stroke="#B7AFA0" stroke-width="1.5" opacity="0.7"/></g></g><path class="foreground" aria-hidden="true" d="" display="none"/></g></g><g class="mark-group role-scope layer_1_pathgroup" role="graphics-object" aria-roledescription="group mark container"><g transform="translate(0,0)"><path class="background" aria-hidden="true" d="M0,0h560v380h-560Z"/><g><g class="mark-line role-mark layer_1_marks" role="graphics-object" aria-roledescription="line mark container"><path aria-label="wave: Tou 24; value: 84; brand: Attendo" role="graphics-symbol" aria-roledescription="line mark" d="M70,44L210,56L350,36L490,36" stroke="#4E8A4E" stroke-width="3"/></g></g><path class="foreground" aria-hidden="true" d="" display="none"/></g><g transform="translate(0,0)"><path class="background" aria-hidden="true" d="M0,0h560v380h-560Z"/><g><g class="mark-line role-mark layer_1_marks" role="graphics-object" aria-roledescription="line mark container"><path aria-label="wave: Tou 24; value: 72; brand: Esperi" role="graphics-symbol" aria-roledescription="line mark" d="M70,92L210,100L350,84L490,80" stroke="#D9508A" stroke-width="3"/></g></g><path class="foreground" aria-hidden="true" d="" display="none"/></g></g><g class="mark-symbol role-mark layer_2_marks" role="graphics-object" aria-roledescription="symbol mark container"><path aria-label="wave: Tou 24; value: 84; brand: Attendo" role="graphics-symbol" aria-roledescription="point" transform="translate(70,44.00000000000001)" d="M3.354,0A3.354,3.354,0,1,1,-3.354,0A3.354,3.354,0,1,1,3.354,0" fill="#4E8A4E" stroke-width="2" opacity="0.7"/><path aria-label="wave: Mar 24; value: 81; brand: Attendo" role="graphics-symbol" aria-roledescription="point" transform="translate(210,56.00000000000001)" d="M3.354,0A3.354,3.354,0,1,1,-3.354,0A3.354,3.354,0,1,1,3.354,0" fill="#4E8A4E" stroke-width="2" opacity="0.7"/><path aria-label="wave: Tou 25; value: 86; brand: Attendo" role="graphics-symbol" aria-roledescription="point" transform="translate(350,35.999999999999986)" d="M3.354,0A3.354,3.354,0,1,1,-3.354,0A3.354,3.354,0,1,1,3.354,0" fill="#4E8A4E" stroke-width="2" opacity="0.7"/><path aria-label="wave: Mar 25; value: 86; brand: Attendo" role="graphics-symbol" aria-roledescription="point" transform="translate(490,35.999999999999986)" d="M3.354,0A3.354,3.354,0,1,1,-3.354,0A3.354,3.354,0,1,1,3.354,0" fill="#4E8A4E" stroke-width="2" opacity="0.7"/><path aria-label="wave: Tou 24; value: 72; brand: Esperi" role="graphics-symbol" aria-roledescription="point" transform="translate(70,91.99999999999999)" d="M3.354,0A3.354,3.354,0,1,1,-3.354,0A3.354,3.354,0,1,1,3.354,0" fill="#D9508A" stroke-width="2" opacity="0.7"/><path aria-label="wave: Mar 24; value: 70; brand: Esperi" role="graphics-symbol" aria-roledescription="point" transform="translate(210,100.00000000000001)" d="M3.354,0A3.354,3.354,0,1,1,-3.354,0A3.354,3.354,0,1,1,3.354,0" fill="#D9508A" stroke-width="2" opacity="0.7"/><path aria-label="wave: Tou 25; value: 74; brand: Esperi" role="graphics-symbol" aria-roledescription="point" transform="translate(350,84.00000000000001)" d="M3.354,0A3.354,3.354,0,1,1,-3.354,0A3.354,3.354,0,1,1,3.354,0" fill="#D9508A" stroke-width="2" opacity="0.7"/><path aria-label="wave: Mar 25; value: 75; brand: Esperi" role="graphics-symbol" aria-roledescription="point" transform="translate(490,80)" d="M3.354,0A3.354,3.354,0,1,1,-3.354,0A3.354,3.354,0,1,1,3.354,0" fill="#D9508A" stroke-width="2" opacity="0.7"/></g><g class="mark-text role-mark layer_3_marks" role="graphics-object" aria-roledescription="text mark container"><text aria-label="wave: Mar 25; value: 86; brand: Attendo" role="graphics-symbol" aria-roledescription="text mark" text-anchor="start" transform="translate(498,38.999999999999986)" font-family="Liberation Sans" font-size="10px" fill="#4E8A4E">Attendo</text><text aria-label="wave: Mar 25; value: 75; brand: Esperi" role="graphics-symbol" aria-roledescription="text mark" text-anchor="start" transform="translate(498,83)" font-family="Liberation Sans" font-size="10px" fill="#D9508A">Esperi</text><text aria-label="wave: Mar 25; value: 42; brand: Rinnekodit" role="graphics-symbol" aria-roledescription="text mark" text-anchor="start" transform="translate(498,214.99999999999997)" font-family="Liberation Sans" font-size="10px" fill="#8A857B">Rinnekodit</text><text aria-label="wave: Mar 25; value: 33; brand: Validia" role="graphics-symbol" aria-roledescription="text mark" text-anchor="start" transform="translate(498,251)" font-family="Liberation Sans" font-size="10px" fill="#8A857B">Validia</text><text aria-label="wave: Mar 25; value: 26; brand: Onnikodit" role="graphics-symbol" aria-roledescription="text mark" text-anchor="start" transform="translate(498,279)" font-family="Liberation Sans" font-size="10px" fill="#8A857B">Onnikodit</text><text aria-label="wave: Mar 25; value: 22; brand: Mainio-kodit" role="graphics-symbol" aria-roledescription="text mark" text-anchor="start" transform="translate(498,295)" font-family="Liberation Sans" font-size="10px" fill="#8A857B">Mainio-kodit</text><text aria-label="wave: Mar 25; value: 15; brand: Ykköskodit" role="graphics-symbol" aria-roledescription="text mark" text-anchor="start" transform="translate(498,323)" font-family="Liberation Sans" font-size="10px" fill="#8A857B">Ykköskodit</text><text aria-label="wave: Mar 25; value: 13; brand: Humana" role="graphics-symbol" aria-roledescription="text mark" text-anchor="start" transform="translate(498,331)" font-family="Liberation Sans" font-size="10px" fill="#8A857B">Humana</text></g><g class="mark-group role-title"><g transform="translate(-13.123046875,-39)"><path class="background" aria-hidden="true" d="M0,0h0v0h0Z" pointer-events="none"/><g><g class="mark-text role-title-text" role="graphics-symbol" aria-roledescription="title" aria-label="Title text 'Autettu tunnettuus — kehitys aalloittain'" pointer-events="none"><text text-anchor="start" transform="translate(0,12)" font-family="Liberation Sans" font-size="15px" font-weight="bold" fill="#2B2B2B" opacity="1">Autettu tunnettuus — kehitys aalloittain</text></g><g class="mark-text role-title-subtitle" role="graphics-symbol" aria-roledescription="subtitle" aria-label="Subtitle text '% · n≈1001 / aalto · korostettu: Attendo &amp; Esperi'" pointer-events="none"><text text-anchor="start" transform="translate(0,27)" font-family="Liberation Sans" font-size="11px" fill="#8A857B" opacity="1">% · n≈1001 / aalto · korostettu: Attendo &amp; Esperi</text></g></g><path class="foreground" aria-hidden="true" d="" pointer-events="none" display="none"/></g></g></g><path class="foreground" aria-hidden="true" d="" display="none"/></g></g></g></svg>