<svg xmlns="http://www.w3.org/2000/svg" xmlns:xlink="http://www.w3.org/1999/xlink" version="1.1" class="marks" width="926" height="554" viewBox="0 0 926 554"><rect width="926" height="554" fill="#F4EFE6"/><g fill="none" stroke-miterlimit="10" transform="translate(101,48)"><g class="mark-group role-frame root" role="graphics-object" aria-roledescription="group mark container"><g transform="translate(0,0)"><path class="background" aria-hidden="true" d="M0,0h820v430h-820Z"/><g><g class="mark-group role-axis" aria-hidden="true"><g transform="translate(0.5,430.5)"><path class="background" aria-hidden="true" d="M0,0h0v0h0Z" pointer-events="none"/><g><g class="mark-rule role-axis-grid" pointer-events="none"><line transform="translate(0,0)" x2="0" y2="-430" stroke="#E2DBCD" stroke-width="1" opacity="1"/><line transform="translate(164,0)" x2="0" y2="-430" stroke="#E2DBCD" stroke-width="1" opacity="1"/><line transform="translate(328,0)" x2="0" y2="-430" stroke="#E2DBCD" stroke-width="1" opacity="1"/><line transform="translate(492,0)" x2="0" y2="-430" stroke="#E2DBCD" stroke-width="1" opacity="1"/><line transform="translate(656,0)" x2="0" y2="-430" stroke="#E2DBCD" stroke-width="1" opacity="1"/><line transform="translate(820,0)" x2="0" y2="-430" stroke="#E2DBCD" stroke-width="1" opacity="1"/></g></g><path class="foreground" aria-hidden="true" d="" pointer-events="none" display="none"/></g></g><g class="mark-group role-axis" role="graphics-symbol" aria-roledescription="axis" aria-label="X-axis titled '%' for a linear scale with values from 0 to 100"><g transform="translate(0.5,430.5)"><path class="background" aria-hidden="true" d="M0,0h0v0h0Z" pointer-events="none"/><g><g class="mark-text role-axis-label" pointer-events="none"><text text-anchor="start" transform="translate(0,11)" font-family="Liberation Sans" font-size="11px" fill="#8A857B" opacity="1">0</text><text text-anchor="middle" transform="translate(164,11)" font-family="Liberation Sans" font-size="11px" fill="#8A857B" opacity="1">20</text><text text-anchor="middle" transform="translate(328,11)" font-family="Liberation Sans" font-size="11px" fill="#8A857B" opacity="1">40</text><text text-anchor="middle" transform="translate(492,11)" font-family="Liberation Sans" font-size="11px" fill="#8A857B" opacity="1">60</text><text text-anchor="middle" transform="translate(656,11)" font-family="Liberation Sans" font-size="11px" fill="#8A857B" opacity="1">80</text><text text-anchor="end" transform="translate(820,11)" font-family="Liberation Sans" font-size="11px" fill="#8A857B" opacity="1">100</text></g><g class="mark-text role-axis-title" pointer-events="none"><text text-anchor="middle" transform="translate(410,26)" font-family="sans-serif" font-size="11px" font-weight="bold" fill="#8A857B" opacity="1">%</text></g></g><path class="foreground" aria-hidden="true" d="" pointer-events="none" display="none"/></g></g><g class="mark-group role-axis" role="graphics-symbol" aria-roledescription="axis" aria-label="Y-axis for a discrete scale with 9 values: Attendo, Esperi, Rinnekodit, Validia, Onnikodit, ending with En mitään näistä"><g transform="translate(0.5,0.5)"><path class="background" aria-hidden="true" d="M0,0h0v0h0Z" pointer-events="none"/><g><g class="mark-text role-axis-label" pointer-events="none"><text text-anchor="end" transform="translate(-6,31.543478260869573)" font-family="Liberation Sans" font-size="12px" fill="#2B2B2B" opacity="1">Attendo</text><text text-anchor="end" transform="translate(-6,78.28260869565217)" font-family="Liberation Sans" font-size="12px" fill="#2B2B2B" opacity="1">Esperi</text><text text-anchor="end" transform="translate(-6,125.02173913043478)" font-family="Liberation Sans" font-size="12px" fill="#2B2B2B" opacity="1">Rinnekodit</text><text text-anchor="end" transform="translate(-6,171.76086956521738)" font-family="Liberation Sans" font-size="12px" fill="#2B2B2B" opacity="1">Validia</text><text text-anchor="end" transform="translate(-6,218.49999999999997)" font-family="Liberation Sans" font-size="12px" fill="#2B2B2B" opacity="1">Onnikodit</text><text text-anchor="end" transform="translate(-6,265.23913043478257)" font-family="Liberation Sans" font-size="12px" fill="#2B2B2B" opacity="1">Mainio-kodit</text><text text-anchor="end" transform="translate(-6,311.9782608695652)" font-family="Liberation Sans" font-size="12px" fill="#2B2B2B" opacity="1">Ykköskodit</text><text text-anchor="end" transform="translate(-6,358.7173913043478)" font-family="Liberation Sans" font-size="12px" fill="#2B2B2B" opacity="1">Humana</text><text text-anchor="end" transform="translate(-6,405.45652173913044)" font-family="Liberation Sans" font-size="12px" fill="#2B2B2B" opacity="1">En mitään näistä</text></g></g><path class="foreground" aria-hidden="true" d="" pointer-events="none" display="none"/></g></g><g class="mark-group role-scope" role="graphics-object" aria-roledescription="group mark container"><g transform="translate(0,12.339130434782618)"><path class="background" aria-hidden="true" d="M0,0L686.8,0C687.903830048988,0,688.8,0.896169951012,688.8,2L688.8,5.852173913043478C688.8,6.9560039620314775,687.903830048988,7.852173913043478,686.8,7.852173913043478L0,7.852173913043478C0,7.852173913043478,0,7.852173913043478,0,7.852173913043478L0,0C0,0,0,0,0,0Z"/><g clip-path="url(#clip1)"><g class="mark-group role-scope" role="graphics-object" aria-roledescription="group mark container"><g transform="translate(0,0)"><path class="background" aria-hidden="true" d="M0,0h0v7.852173913043478h0Z"/><g><g class="mark-rect role-mark layer_0_marks" role="graphics-object" aria-roledescription="rect mark container"><path aria-label="value: 84; brand: Attendo; wave: Toukokuu 2024" role="graphics-symbol" aria-roledescription="bar" d="M0,0h688.8v7.852173913043478h-688.8Z" fill="#2F9C95"/></g></g><path class="foreground" aria-hidden="true" d="" display="none"/></g></g></g><path class="foreground" aria-hidden="true" d="" display="none"/></g><g transform="translate(0,21.68695652173914)"><path class="background" aria-hidden="true" d="M0,0L662.2,0C663.3038300489881,0,664.2,0.896169951012,664.2,2L664.2,5.852173913043478C664.2,6.9560039620314775,663.3038300489881,7.852173913043478,662.2,7.852173913043478L0,7.852173913043478C0,7.852173913043478,0,7.852173913043478,0,7.852173913043478L0,0C0,0,0,0,0,0Z"/><g clip-path="url(#clip2)"><g class="mark-group role-scope" role="graphics-object" aria-roledescription="group mark container"><g transform="translate(0,0)"><path class="background" aria-hidden="true" d="M0,0h0v7.852173913043478h0Z"/><g><g class="mark-rect role-mark layer_0_marks" role="graphics-object" aria-roledescription="rect mark container"><path aria-label="value: 81; brand: Attendo; wave: Marraskuu 2024" role="graphics-symbol" aria-roledescription="bar" d="M0,0h664.2v7.852173913043478h-664.2Z" fill="#D9508A"/></g></g><path class="foreground" aria-hidden="true" d="" display="none"/></g></g></g><path class="foreground" aria-hidden="true" d="" display="none"/></g><g transform="translate(0,31.03478260869566)"><path class="background" aria-hidden="true" d="M0,0L703.2,0C704.3038300489881,0,705.2,0.896169951012,705.2,2L705.2,5.852173913043478C705.2,6.9560039620314775,704.3038300489881,7.852173913043478,703.2,7.852173913043478L0,7.852173913043478C0,7.852173913043478,0,7.852173913043478,0,7.852173913043478L0,0C0,0,0,0,0,0Z"/><g clip-path="url(#clip3)"><g class="mark-group role-scope" role="graphics-object" aria-roledescription="group mark container"><g transform="translate(0,0)"><path class="background" aria-hidden="true" d="M0,0h0v7.852173913043478h0Z"/><g><g class="mark-rect role-mark layer_0_marks" role="graphics-object" aria-roledescription="rect mark container"><path aria-label="value: 86; brand: Attendo; wave: Toukokuu 2025" role="graphics-symbol" aria-roledescription="bar" d="M0,0h705.2v7.852173913043478h-705.2Z" fill="#E9A23B"/></g></g><path class="foreground" aria-hidden="true" d="" display="none"/></g></g></g><path class="foreground" aria-hidden="true" d="" display="none"/></g><g transform="translate(0,40.38260869565218)"><path class="background" aria-hidden="true" d="M0,0L703.2,0C704.3038300489881,0,705.2,0.896169951012,705.2,2L705.2,5.852173913043478C705.2,6.9560039620314775,704.3038300489881,7.852173913043478,703.2,7.852173913043478L0,7.852173913043478C0,7.852173913043478,0,7.852173913043478,0,7.852173913043478L0,0C0,0,0,0,0,0Z"/><g clip-path="url(#clip4)"><g class="mark-group role-scope" role="graphics-object" aria-roledescription="group mark container"><g transform="translate(0,0)"><path class="background" aria-hidden="true" d="M0,0h0v7.852173913043478h0Z"/><g><g class="mark-rect role-mark layer_0_marks" role="graphics-object" aria-roledescription="rect mark container"><path aria-label="value: 86; brand: Attendo; wave: Marraskuu 2025" role="graphics-symbol" aria-roledescription="bar" d="M0,0h705.2v7.852173913043478h-705.2Z" fill="#4E8A4E"/></g></g><path class="foreground" aria-hidden="true" d="" display="none"/></g></g></g><path class="foreground" aria-hidden="true" d="" display="none"/></g><g transform="translate(0,59.07826086956522)"><path class="background" aria-hidden="true" d="M0,0L588.4,0C589.503830048988,0,590.4,0.896169951012,590.4,2L590.4,5.852173913043478C590.4,6.9560039620314775,589.503830048988,7.852173913043478,588.4,7.852173913043478L0,7.852173913043478C0,7.852173913043478,0,7.852173913043478,0,7.852173913043478L0,0C0,0,0,0,0,0Z"/><g clip-path="url(#clip5)"><g class="mark-group role-scope" role="graphics-object" aria-roledescription="group mark container"><g transform="translate(0,0)"><path class="background" aria-hidden="true" d="M0,0h0v7.852173913043478h0Z"/><g><g class="mark-rect role-mark layer_0_marks" role="graphics-object" aria-roledescription="rect mark container"><path aria-label="value: 72; brand: Esperi; wave: Toukokuu 2024" role="graphics-symbol" aria-roledescription="bar" d="M0,0h590.4v7.852173913043478h-590.4Z" fill="#2F9C95"/></g></g><path class="foreground" aria-hidden="true" d="" display="none"/></g></g></g><path class="foreground" aria-hidden="true" d="" display="none"/></g><g transform="translate(0,68.42608695652174)"><path class="background" aria-hidden="true" d="M0,0L572,0C573.103830048988,0,574,0.896169951012,574,2L574,5.852173913043478C574,6.9560039620314775,573.103830048988,7.852173913043478,572,7.852173913043478L0,7.852173913043478C0,7.852173913043478,0,7.852173913043478,0,7.852173913043478L0,0C0,0,0,0,0,0Z"/><g clip-path="url(#clip6)"><g class="mark-group role-scope" role="graphics-object" aria-roledescription="group mark container"><g transform="translate(0,0)"><path class="background" aria-hidden="true" d="M0,0h0v7.852173913043478h0Z"/><g><g class="mark-rect role-mark layer_0_marks" role="graphics-object" aria-roledescription="rect mark container"><path aria-label="value: 70; brand: Esperi; wave: Marraskuu 2024" role="graphics-symbol" aria-roledescription="bar" d="M0,0h574v7.852173913043478h-574Z" fill="#D9508A"/></g></g><path class="foreground" aria-hidden="true" d="" display="none"/></g></g></g><path class="foreground" aria-hidden="true" d="" display="none"/></g><g transform="translate(0,77.77391304347826)"><path class="background" aria-hidden="true" d="M0,0L604.8,0C605.903830048988,0,606.8,0.896169951012,606.8,2L606.8,5.852173913043478C606.8,6.9560039620314775,605.903830048988,7.852173913043478,604.8,7.852173913043478L0,7.852173913043478C0,7.852173913043478,0,7.852173913043478,0,7.852173913043478L0,0C0,0,0,0,0,0Z"/><g clip-path="url(#clip7)"><g class="mark-group role-scope" role="graphics-object" aria-roledescription="group mark container"><g transform="translate(0,0)"><path class="background" aria-hidden="true" d="M0,0h0v7.852173913043478h0Z"/><g><g class="mark-rect role-mark layer_0_marks" role="graphics-object" aria-roledescription="rect mark container"><path aria-label="value: 74; brand: Esperi; wave: Toukokuu 2025" role="graphics-symbol" aria-roledescription="bar" d="M0,0h606.8v7.852173913043478h-606.8Z" fill="#E9A23B"/></g></g><path class="foreground" aria-hidden="true" d="" display="none"/></g></g></g><path class="foreground" aria-hidden="true" d="" display="none"/></g><g transform="translate(0,87.12173913043478)"><path class="background" aria-hidden="true" d="M0,0L613,0C614.103830048988,0,615,0.896169951012,615,2L615,5.852173913043478C615,6.9560039620314775,614.103830048988,7.852173913043478,613,7.852173913043478L0,7.852173913043478C0,7.852173913043478,0,7.852173913043478,0,7.852173913043478L0,0C0,0,0,0,0,0Z"/><g clip-path="url(#clip8)"><g class="mark-group role-scope" role="graphics-object" aria-roledescription="group mark container"><g transform="translate(0,0)"><path class="background" aria-hidden="true" d="M0,0h0v7.852173913043478h0Z"/><g><g class="mark-rect role-mark layer_0_marks" role="graphics-object" aria-roledescription="rect mark container"><path aria-label="value: 75; brand: Esperi; wave: Marraskuu 2025" role="graphics-symbol" aria-roledescription="bar" d="M0,0h615v7.852173913043478h-615Z" fill="#4E8A4E"/></g></g><path class="foreground" aria-hidden="true" d="" display="none"/></g></g></g><path class="foreground" aria-hidden="true" d="" display="none"/></g><g transform="translate(0,105.81739130434782)"><path class="background" aria-hidden="true" d="M0,0L358.8,0C359.903830048988,0,360.8,0.896169951012,360.8,2L360.8,5.852173913043478C360.8,6.9560039620314775,359.903830048988,7.852173913043478,358.8,7.852173913043478L0,7.852173913043478C0,7.852173913043478,0,7.852173913043478,0,7.852173913043478L0,0C0,0,0,0,0,0Z"/><g clip-path="url(#clip9)"><g class="mark-group role-scope" role="graphics-object" aria-roledescription="group mark container"><g transform="translate(0,0)"><path class="background" aria-hidden="true" d="M0,0h0v7.852173913043478h0Z"/><g><g class="mark-rect role-mark layer_0_marks" role="graphics-object" aria-roledescription="rect mark container"><path aria-label="value: 44; brand: Rinnekodit; wave: Toukokuu 2024" role="graphics-symbol" aria-roledescription="bar" d="M0,0h360.8v7.852173913043478h-360.8Z" fill="#2F9C95"/></g></g><path class="foreground" aria-hidden="true" d="" display="none"/></g></g></g><path class="foreground" aria-hidden="true" d="" display="none"/></g><g transform="translate(0,115.16521739130434)"><path class="background" aria-hidden="true" d="M0,0L317.8,0C318.903830048988,0,319.8,0.896169951012,319.8,2L319.8,5.852173913043478C319.8,6.9560039620314775,318.903830048988,7.852173913043478,317.8,7.852173913043478L0,7.852173913043478C0,7.852173913043478,0,7.852173913043478,0,7.852173913043478L0,0C0,0,0,0,0,0Z"/><g clip-path="url(#clip10)"><g class="mark-group role-scope" role="graphics-object" aria-roledescription="group mark container"><g transform="translate(0,0)"><path class="background" aria-hidden="true" d="M0,0h0v7.852173913043478h0Z"/><g><g class="mark-rect role-mark layer_0_marks" role="graphics-object" aria-roledescription="rect mark container"><path aria-label="value: 39; brand: Rinnekodit; wave: Marraskuu 2024" role="graphics-symbol" aria-roledescription="bar" d="M0,0h319.8v7.852173913043478h-319.8Z" fill="#D9508A"/></g></g><path class="foreground" aria-hidden="true" d="" display="none"/></g></g></g><path class="foreground" aria-hidden="true" d="" display="none"/></g><g transform="translate(0,124.51304347826087)"><path class="background" aria-hidden="true" d="M0,0L350.6,0C351.70383004898804,0,352.6,0.896169951012,352.6,2L352.6,5.852173913043478C352.6,6.9560039620314775,351.70383004898804,7.852173913043478,350.6,7.852173913043478L0,7.852173913043478C0,7.852173913043478,0,7.852173913043478,0,7.852173913043478L0,0C0,0,0,0,0,0Z"/><g clip-path="url(#clip11)"><g class="mark-group role-scope" role="graphics-object" aria-roledescription="group mark container"><g transform="translate(0,0)"><path class="background" aria-hidden="true" d="M0,0h0v7.852173913043478h0Z"/><g><g class="mark-rect role-mark layer_0_marks" role="graphics-object" aria-roledescription="rect mark container"><path aria-label="value: 43; brand: Rinnekodit; wave: Toukokuu 2025" role="graphics-symbol" aria-roledescription="bar" d="M0,0h352.6v7.852173913043478h-352.6Z" fill="#E9A23B"/></g></g><path class="foreground" aria-hidden="true" d="" display="none"/></g></g></g><path class="foreground" aria-hidden="true" d="" display="none"/></g><g transform="translate(0,133.8608695652174)"><path class="background" aria-hidden="true" d="M0,0L342.4,0C343.503830048988,0,344.4,0.896169951012,344.4,2L344.4,5.852173913043478C344.4,6.9560039620314775,343.503830048988,7.852173913043478,342.4,7.852173913043478L0,7.852173913043478C0,7.852173913043478,0,7.852173913043478,0,7.852173913043478L0,0C0,0,0,0,0,0Z"/><g clip-path="url(#clip12)"><g class="mark-group role-scope" role="graphics-object" aria-roledescription="group mark container"><g transform="translate(0,0)"><path class="background" aria-hidden="true" d="M0,0h0v7.852173913043478h0Z"/><g><g class="mark-rect role-mark layer_0_marks" role="graphics-object" aria-roledescription="rect mark container"><path aria-label="value: 42; brand: Rinnekodit; wave: Marraskuu 2025" role="graphics-symbol" aria-roledescription="bar" d="M0,0h344.4v7.852173913043478h-344.4Z" fill="#4E8A4E"/></g></g><path class="foreground" aria-hidden="true" d="" display="none"/></g></g></g><path class="foreground" aria-hidden="true" d="" display="none"/></g><g transform="translate(0,161.90434782608696)"><path class="background" aria-hidden="true" d="M0,0L235.79999999999998,0C236.90383004898797,0,237.79999999999998,0.896169951012,237.79999999999998,2L237.79999999999998,5.852173913043478C237.79999999999998,6.9560039620314775,236.90383004898797,7.852173913043478,235.79999999999998,7.852173913043478L0,7.852173913043478C0,7.852173913043478,0,7.852173913043478,0,7.852173913043478L0,0C0,0,0,0,0,0Z"/><g clip-path="url(#clip13)"><g class="mark-group role-scope" role="graphics-object" aria-roledescription="group mark container"><g transform="translate(0,0)"><path class="background" aria-hidden="true" d="M0,0h0v7.852173913043478h0Z"/><g><g class="mark-rect role-mark layer_0_marks" role="graphics-object" aria-roledescription="rect mark container"><path aria-label="value: 29; brand: Validia; wave: Marraskuu 2024" role="graphics-symbol" aria-roledescription="bar" d="M0,0h237.79999999999998v7.852173913043478h-237.79999999999998Z" fill="#D9508A"/></g></g><path class="foreground" aria-hidden="true" d="" display="none"/></g></g></g><path class="foreground" aria-hidden="true" d="" display="none"/></g><g transform="translate(0,171.25217391304346)"><path class="background" aria-hidden="true" d="M0,0L260.4,0C261.503830048988,0,262.4,0.896169951012,262.4,2L262.4,5.852173913043478C262.4,6.9560039620314775,261.503830048988,7.852173913043478,260.4,7.852173913043478L0,7.852173913043478C0,7.852173913043478,0,7.852173913043478,0,7.852173913043478L0,0C0,0,0,0,0,0Z"/><g clip-path="url(#clip14)"><g class="mark-group role-scope" role="graphics-object" aria-roledescription="group mark container"><g transform="translate(0,0)"><path class="background" aria-hidden="true" d="M0,0h0v7.852173913043478h0Z"/><g><g class="mark-rect role-mark layer_0_marks" role="graphics-object" aria-roledescription="rect mark container"><path aria-label="value: 32; brand: Validia; wave: Toukokuu 2025" role="graphics-symbol" aria-roledescription="bar" d="M0,0h262.4v7.852173913043478h-262.4Z" fill="#E9A23B"/></g></g><path class="foreground" aria-hidden="true" d="" display="none"/></g></g></g><path class="foreground" aria-hidden="true" d="" display="none"/></g><g transform="translate(0,180.6)"><path class="background" aria-hidden="true" d="M0,0L268.6,0C269.70383004898804,0,270.6,0.896169951012,270.6,2L270.6,5.852173913043478C270.6,6.9560039620314775,269.70383004898804,7.852173913043478,268.6,7.852173913043478L0,7.852173913043478C0,7.852173913043478,0,7.852173913043478,0,7.852173913043478L0,0C0,0,0,0,0,0Z"/><g clip-path="url(#clip15)"><g class="mark-group role-scope" role="graphics-object" aria-roledescription="group mark container"><g transform="translate(0,0)"><path class="background" aria-hidden="true" d="M0,0h0v7.852173913043478h0Z"/><g><g class="mark-rect role-mark layer_0_marks" role="graphics-object" aria-roledescription="rect mark container"><path aria-label="value: 33; brand: Validia; wave: Marraskuu 2025" role="graphics-symbol" aria-roledescription="bar" d="M0,0h270.6v7.852173913043478h-270.6Z" fill="#4E8A4E"/></g></g><path class="foreground" aria-hidden="true" d="" display="none"/></g></g></g><path class="foreground" aria-hidden="true" d="" display="none"/></g><g transform="translate(0,199.29565217391303)"><path class="background" aria-hidden="true" d="M0,0L178.4,0C179.503830048988,0,180.4,0.896169951012,180.4,2L180.4,5.852173913043478C180.4,6.9560039620314775,179.503830048988,7.852173913043478,178.4,7.852173913043478L0,7.852173913043478C0,7.852173913043478,0,7.852173913043478,0,7.852173913043478L0,0C0,0,0,0,0,0Z"/><g clip-path="url(#clip16)"><g class="mark-group role-scope" role="graphics-object" aria-roledescription="group mark container"><g transform="translate(0,0)"><path class="background" aria-hidden="true" d="M0,0h0v7.852173913043478h0Z"/><g><g class="mark-rect role-mark layer_0_marks" role="graphics-object" aria-roledescription="rect mark container"><path aria-label="value: 22; brand: Onnikodit; wave: Toukokuu 2024" role="graphics-symbol" aria-roledescription="bar" d="M0,0h180.4v7.852173913043478h-180.4Z" fill="#2F9C95"/></g></g><path class="foreground" aria-hidden="true" d="" display="none"/></g></g></g><path class="foreground" aria-hidden="true" d="" display="none"/></g><g transform="translate(0,208.64347826086956)"><path class="background" aria-hidden="true" d="M0,0L186.6,0C187.70383004898798,0,188.6,0.896169951012,188.6,2L188.6,5.852173913043478C188.6,6.9560039620314775,187.70383004898798,7.852173913043478,186.6,7.852173913043478L0,7.852173913043478C0,7.852173913043478,0,7.852173913043478,0,7.852173913043478L0,0C0,0,0,0,0,0Z"/><g clip-path="url(#clip17)"><g class="mark-group role-scope" role="graphics-object" aria-roledescription="group mark container"><g transform="translate(0,0)"><path class="background" aria-hidden="true" d="M0,0h0v7.852173913043478h0Z"/><g><g class="mark-rect role-mark layer_0_marks" role="graphics-object" aria-roledescription="rect mark container"><path aria-label="value: 23; brand: Onnikodit; wave: Marraskuu 2024" role="graphics-symbol" aria-roledescription="bar" d="M0,0h188.6v7.852173913043478h-188.6Z" fill="#D9508A"/></g></g><path class="foreground" aria-hidden="true" d="" display="none"/></g></g></g><path class="foreground" aria-hidden="true" d="" display="none"/></g><g transform="translate(0,217.99130434782606)"><path class="background" aria-hidden="true" d="M0,0L227.60000000000002,0C228.703830048988,0,229.60000000000002,0.896169951012,229.60000000000002,2L229.60000000000002,5.852173913043478C229.60000000000002,6.9560039620314775,228.703830048988,7.852173913043478,227.60000000000002,7.852173913043478L0,7.852173913043478C0,7.852173913043478,0,7.852173913043478,0,7.852173913043478L0,0C0,0,0,0,0,0Z"/><g clip-path="url(#clip18)"><g class="mark-group role-scope" role="graphics-object" aria-roledescription="group mark container"><g transform="translate(0,0)"><path class="background" aria-hidden="true" d="M0,0h0v7.852173913043478h0Z"/><g><g class="mark-rect role-mark layer_0_marks" role="graphics-object" aria-roledescription="rect mark container"><path aria-label="value: 28; brand: Onnikodit; wave: Toukokuu 2025" role="graphics-symbol" aria-roledescription="bar" d="M0,0h229.60000000000002v7.852173913043478h-229.60000000000002Z" fill="#E9A23B"/></g></g><path class="foreground" aria-hidden="true" d="" display="none"/></g></g></g><path class="foreground" aria-hidden="true" d="" display="none"/></g><g transform="translate(0,227.3391304347826)"><path class="background" aria-hidden="true" d="M0,0L211.20000000000002,0C212.303830048988,0,213.20000000000002,0.896169951012,213.20000000000002,2L213.20000000000002,5.852173913043478C213.20000000000002,6.9560039620314775,212.303830048988,7.852173913043478,211.20000000000002,7.852173913043478L0,7.852173913043478C0,7.852173913043478,0,7.852173913043478,0,7.852173913043478L0,0C0,0,0,0,0,0Z"/><g clip-path="url(#clip19)"><g class="mark-group role-scope" role="graphics-object" aria-roledescription="group mark container"><g transform="translate(0,0)"><path class="background" aria-hidden="true" d="M0,0h0v7.852173913043478h0Z"/><g><g class="mark-rect role-mark layer_0_marks" role="graphics-object" aria-roledescription="rect mark container"><path aria-label="value: 26; brand: Onnikodit; wave: Marraskuu 2025" role="graphics-symbol" aria-roledescription="bar" d="M0,0h213.20000000000002v7.852173913043478h-213.20000000000002Z" fill="#4E8A4E"/></g></g><path class="foreground" aria-hidden="true" d="" display="none"/></g></g></g><path class="foreground" aria-hidden="true" d="" display="none"/></g><g transform="translate(0,246.03478260869562)"><path class="background" aria-hidden="true" d="M0,0L170.2,0C171.30383004898798,0,172.2,0.896169951012,172.2,2L172.2,5.852173913043478C172.2,6.9560039620314775,171.30383004898798,7.852173913043478,170.2,7.852173913043478L0,7.852173913043478C0,7.852173913043478,0,7.852173913043478,0,7.852173913043478L0,0C0,0,0,0,0,0Z"/><g clip-path="url(#clip20)"><g class="mark-group role-scope" role="graphics-object" aria-roledescription="group mark container"><g transform="translate(0,0)"><path class="background" aria-hidden="true" d="M0,0h0v7.852173913043478h0Z"/><g><g class="mark-rect role-mark layer_0_marks" role="graphics-object" aria-roledescription="rect mark container"><path aria-label="value: 21; brand: Mainio-kodit; wave: Toukokuu 2024" role="graphics-symbol" aria-roledescription="bar" d="M0,0h172.2v7.852173913043478h-172.2Z" fill="#2F9C95"/></g></g><path class="foreground" aria-hidden="true" d="" display="none"/></g></g></g><path class="foreground" aria-hidden="true" d="" display="none"/></g><g transform="translate(0,255.38260869565215)"><path class="background" aria-hidden="true" d="M0,0L170.2,0C171.30383004898798,0,172.2,0.896169951012,172.2,2L172.2,5.852173913043478C172.2,6.9560039620314775,171.30383004898798,7.852173913043478,170.2,7.852173913043478L0,7.852173913043478C0,7.852173913043478,0,7.852173913043478,0,7.852173913043478L0,0C0,0,0,0,0,0Z"/><g clip-path="url(#clip21)"><g class="mark-group role-scope" role="graphics-object" aria-roledescription="group mark container"><g transform="translate(0,0)"><path class="background" aria-hidden="true" d="M0,0h0v7.852173913043478h0Z"/><g><g class="mark-rect role-mark layer_0_marks" role="graphics-object" aria-roledescription="rect mark container"><path aria-label="value: 21; brand: Mainio-kodit; wave: Marraskuu 2024" role="graphics-symbol" aria-roledescription="bar" d="M0,0h172.2v7.852173913043478h-172.2Z" fill="#D9508A"/></g></g><path class="foreground" aria-hidden="true" d="" display="none"/></g></g></g><path class="foreground" aria-hidden="true" d="" display="none"/></g><g transform="translate(0,264.73043478260865)"><path class="background" aria-hidden="true" d="M0,0L186.6,0C187.70383004898798,0,188.6,0.896169951012,188.6,2L188.6,5.852173913043478C188.6,6.9560039620314775,187.70383004898798,7.852173913043478,186.6,7.852173913043478L0,7.852173913043478C0,7.852173913043478,0,7.852173913043478,0,7.852173913043478L0,0C0,0,0,0,0,0Z"/><g clip-path="url(#clip22)"><g class="mark-group role-scope" role="graphics-object" aria-roledescription="group mark container"><g transform="translate(0,0)"><path class="background" aria-hidden="true" d="M0,0h0v7.852173913043478h0Z"/><g><g class="mark-rect role-mark layer_0_marks" role="graphics-object" aria-roledescription="rect mark container"><path aria-label="value: 23; brand: Mainio-kodit; wave: Toukokuu 2025" role="graphics-symbol" aria-roledescription="bar" d="M0,0h188.6v7.852173913043478h-188.6Z" fill="#E9A23B"/></g></g><path class="foreground" aria-hidden="true" d="" display="none"/></g></g></g><path class="foreground" aria-hidden="true" d="" display="none"/></g><g transform="translate(0,274.07826086956516)"><path class="background" aria-hidden="true" d="M0,0L178.4,0C179.503830048988,0,180.4,0.896169951012,180.4,2L180.4,5.852173913043478C180.4,6.9560039620314775,179.503830048988,7.852173913043478,178.4,7.852173913043478L0,7.852173913043478C0,7.852173913043478,0,7.852173913043478,0,7.852173913043478L0,0C0,0,0,0,0,0Z"/><g clip-path="url(#clip23)"><g class="mark-group role-scope" role="graphics-object" aria-roledescription="group mark container"><g transform="translate(0,0)"><path class="background" aria-hidden="true" d="M0,0h0v7.852173913043478h0Z"/><g><g class="mark-rect role-mark layer_0_marks" role="graphics-object" aria-roledescription="rect mark container"><path aria-label="value: 22; brand: Mainio-kodit; wave: Marraskuu 2025" role="graphics-symbol" aria-roledescription="bar" d="M0,0h180.4v7.852173913043478h-180.4Z" fill="#4E8A4E"/></g></g><path class="foreground" aria-hidden="true" d="" display="none"/></g></g></g><path class="foreground" aria-hidden="true" d="" display="none"/></g><g transform="translate(0,292.7739130434782)"><path class="background" aria-hidden="true" d="M0,0L112.80000000000001,0C113.90383004898801,0,114.80000000000001,0.896169951012,114.80000000000001,2L114.80000000000001,5.852173913043478C114.80000000000001,6.9560039620314775,113.90383004898801,7.852173913043478,112.80000000000001,7.852173913043478L0,7.852173913043478C0,7.852173913043478,0,7.852173913043478,0,7.852173913043478L0,0C0,0,0,0,0,0Z"/><g clip-path="url(#clip24)"><g class="mark-group role-scope" role="graphics-object" aria-roledescription="group mark container"><g transform="translate(0,0)"><path class="background" aria-hidden="true" d="M0,0h0v7.852173913043478h0Z"/><g><g class="mark-rect role-mark layer_0_marks" role="graphics-object" aria-roledescription="rect mark container"><path aria-label="value: 14; brand: Ykköskodit; wave: Toukokuu 2024" role="graphics-symbol" aria-roledescription="bar" d="M0,0h114.80000000000001v7.852173913043478h-114.80000000000001Z" fill="#2F9C95"/></g></g><path class="foreground" aria-hidden="true" d="" display="none"/></g></g></g><path class="foreground" aria-hidden="true" d="" display="none"/></g><g transform="translate(0,302.1217391304347)"><path class="background" aria-hidden="true" d="M0,0L104.60000000000001,0C105.70383004898801,0,106.60000000000001,0.896169951012,106.60000000000001,2L106.60000000000001,5.852173913043478C106.60000000000001,6.9560039620314775,105.70383004898801,7.852173913043478,104.60000000000001,7.852173913043478L0,7.852173913043478C0,7.852173913043478,0,7.852173913043478,0,7.852173913043478L0,0C0,0,0,0,0,0Z"/><g clip-path="url(#clip25)"><g class="mark-group role-scope" role="graphics-object" aria-roledescription="group mark container"><g transform="translate(0,0)"><path class="background" aria-hidden="true" d="M0,0h0v7.852173913043478h0Z"/><g><g class="mark-rect role-mark layer_0_marks" role="graphics-object" aria-roledescription="rect mark container"><path aria-label="value: 13; brand: Ykköskodit; wave: Marraskuu 2024" role="graphics-symbol" aria-roledescription="bar" d="M0,0h106.60000000000001v7.852173913043478h-106.60000000000001Z" fill="#D9508A"/></g></g><path class="foreground" aria-hidden="true" d="" display="none"/></g></g></g><path class="foreground" aria-hidden="true" d="" display="none"/></g><g transform="translate(0,311.4695652173913)"><path class="background" aria-hidden="true" d="M0,0L112.80000000000001,0C113.90383004898801,0,114.80000000000001,0.896169951012,114.80000000000001,2L114.80000000000001,5.852173913043478C114.80000000000001,6.9560039620314775,113.90383004898801,7.852173913043478,112.80000000000001,7.852173913043478L0,7.852173913043478C0,7.852173913043478,0,7.852173913043478,0,7.852173913043478L0,0C0,0,0,0,0,0Z"/><g clip-path="url(#clip26)"><g class="mark-group role-scope" role="graphics-object" aria-roledescription="group mark container"><g transform="translate(0,0)"><path class="background" aria-hidden="true" d="M0,0h0v7.852173913043478h0Z"/><g><g class="mark-rect role-mark layer_0_marks" role="graphics-object" aria-roledescription="rect mark container"><path aria-label="value: 14; brand: Ykköskodit; wave: Toukokuu 2025" role="graphics-symbol" aria-roledescription="bar" d="M0,0h114.80000000000001v7.852173913043478h-114.80000000000001Z" fill="#E9A23B"/></g></g><path class="foreground" aria-hidden="true" d="" display="none"/></g></g></g><path class="foreground" aria-hidden="true" d="" display="none"/></g><g transform="translate(0,320.8173913043478)"><path class="background" aria-hidden="true" d="M0,0L121,0C122.103830048988,0,123,0.896169951012,123,2L123,5.852173913043478C123,6.9560039620314775,122.103830048988,7.852173913043478,121,7.852173913043478L0,7.852173913043478C0,7.852173913043478,0,7.852173913043478,0,7.852173913043478L0,0C0,0,0,0,0,0Z"/><g clip-path="url(#clip27)"><g class="mark-group role-scope" role="graphics-object" aria-roledescription="group mark container"><g transform="translate(0,0)"><path class="background" aria-hidden="true" d="M0,0h0v7.852173913043478h0Z"/><g><g class="mark-rect role-mark layer_0_marks" role="graphics-object" aria-roledescription="rect mark container"><path aria-label="value: 15; brand: Ykköskodit; wave: Marraskuu 2025" role="graphics-symbol" aria-roledescription="bar" d="M0,0h123v7.852173913043478h-123Z" fill="#4E8A4E"/></g></g><path class="foreground" aria-hidden="true" d="" display="none"/></g></g></g><path class="foreground" aria-hidden="true" d="" display="none"/></g><g transform="translate(0,339.51304347826084)"><path class="background" aria-hidden="true" d="M0,0L112.80000000000001,0C113.90383004898801,0,114.80000000000001,0.896169951012,114.80000000000001,2L114.80000000000001,5.852173913043478C114.80000000000001,6.9560039620314775,113.90383004898801,7.852173913043478,112.80000000000001,7.852173913043478L0,7.852173913043478C0,7.852173913043478,0,7.852173913043478,0,7.852173913043478L0,0C0,0,0,0,0,0Z"/><g clip-path="url(#clip28)"><g class="mark-group role-scope" role="graphics-object" aria-roledescription="group mark container"><g transform="translate(0,0)"><path class="background" aria-hidden="true" d="M0,0h0v7.852173913043478h0Z"/><g><g class="mark-rect role-mark layer_0_marks" role="graphics-object" aria-roledescription="rect mark container"><path aria-label="value: 14; brand: Humana; wave: Toukokuu 2024" role="graphics-symbol" aria-roledescription="bar" d="M0,0h114.80000000000001v7.852173913043478h-114.80000000000001Z" fill="#2F9C95"/></g></g><path class="foreground" aria-hidden="true" d="" display="none"/></g></g></g><path class="foreground" aria-hidden="true" d="" display="none"/></g><g transform="translate(0,348.86086956521734)"><path class="background" aria-hidden="true" d="M0,0L104.60000000000001,0C105.70383004898801,0,106.60000000000001,0.896169951012,106.60000000000001,2L106.60000000000001,5.852173913043478C106.60000000000001,6.9560039620314775,105.70383004898801,7.852173913043478,104.60000000000001,7.852173913043478L0,7.852173913043478C0,7.852173913043478,0,7.852173913043478,0,7.852173913043478L0,0C0,0,0,0,0,0Z"/><g clip-path="url(#clip29)"><g class="mark-group role-scope" role="graphics-object" aria-roledescription="group mark container"><g transform="translate(0,0)"><path class="background" aria-hidden="true" d="M0,0h0v7.852173913043478h0Z"/><g><g class="mark-rect role-mark layer_0_marks" role="graphics-object" aria-roledescription="rect mark container"><path aria-label="value: 13; brand: Humana; wave: Marraskuu 2024" role="graphics-symbol" aria-roledescription="bar" d="M0,0h106.60000000000001v7.852173913043478h-106.60000000000001Z" fill="#D9508A"/></g></g><path class="foreground" aria-hidden="true" d="" display="none"/></g></g></g><path class="foreground" aria-hidden="true" d="" display="none"/></g><g transform="translate(0,358.2086956521739)"><path class="background" aria-hidden="true" d="M0,0L88.2,0C89.303830048988,0,90.2,0.896169951012,90.2,2L90.2,5.852173913043478C90.2,6.9560039620314775,89.303830048988,7.852173913043478,88.2,7.852173913043478L0,7.852173913043478C0,7.852173913043478,0,7.852173913043478,0,7.852173913043478L0,0C0,0,0,0,0,0Z"/><g clip-path="url(#clip30)"><g class="mark-group role-scope" role="graphics-object" aria-roledescription="group mark container"><g transform="translate(0,0)"><path class="background" aria-hidden="true" d="M0,0h0v7.852173913043478h0Z"/><g><g class="mark-rect role-mark layer_0_marks" role="graphics-object" aria-roledescription="rect mark container"><path aria-label="value: 11; brand: Humana; wave: Toukokuu 2025" role="graphics-symbol" aria-roledescription="bar" d="M0,0h90.2v7.852173913043478h-90.2Z" fill="#E9A23B"/></g></g><path class="foreground" aria-hidden="true" d="" display="none"/></g></g></g><path class="foreground" aria-hidden="true" d="" display="none"/></g><g transform="translate(0,367.5565217391304)"><path class="background" aria-hidden="true" d="M0,0L104.60000000000001,0C105.70383004898801,0,106.60000000000001,0.896169951012,106.60000000000001,2L106.60000000000001,5.852173913043478C106.60000000000001,6.9560039620314775,105.70383004898801,7.852173913043478,104.60000000000001,7.852173913043478L0,7.852173913043478C0,7.852173913043478,0,7.852173913043478,0,7.852173913043478L0,0C0,0,0,0,0,0Z"/><g clip-path="url(#clip31)"><g class="mark-group role-scope" role="graphics-object" aria-roledescription="group mark container"><g transform="translate(0,0)"><path class="background" aria-hidden="true" d="M0,0h0v7.852173913043478h0Z"/><g><g class="mark-rect role-mark layer_0_marks" role="graphics-object" aria-roledescription="rect mark container"><path aria-label="value: 13; brand: Humana; wave: Marraskuu 2025" role="graphics-symbol" aria-roledescription="bar" d="M0,0h106.60000000000001v7.852173913043478h-106.60000000000001Z" fill="#4E8A4E"/></g></g><path class="foreground" aria-hidden="true" d="" display="none"/></g></g></g><path class="foreground" aria-hidden="true" d="" display="none"/></g><g transform="translate(0,386.25217391304346)"><path class="background" aria-hidden="true" d="M0,0L47.199999999999996,0C48.303830048988,0,49.199999999999996,0.896169951012,49.199999999999996,2L49.199999999999996,5.852173913043478C49.199999999999996,6.9560039620314775,48.303830048988,7.852173913043478,47.199999999999996,7.852173913043478L0,7.852173913043478C0,7.852173913043478,0,7.852173913043478,0,7.852173913043478L0,0C0,0,0,0,0,0Z"/><g clip-path="url(#clip32)"><g class="mark-group role-scope" role="graphics-object" aria-roledescription="group mark container"><g transform="translate(0,0)"><path class="background" aria-hidden="true" d="M0,0h0v7.852173913043478h0Z"/><g><g class="mark-rect role-mark layer_0_marks" role="graphics-object" aria-roledescription="rect mark container"><path aria-label="value: 6; brand: En mitään näistä; wave: Toukokuu 2024" role="graphics-symbol" aria-roledescription="bar" d="M0,0h49.199999999999996v7.852173913043478h-49.199999999999996Z" fill="#2F9C95"/></g></g><path class="foreground" aria-hidden="true" d="" display="none"/></g></g></g><path class="foreground" aria-hidden="true" d="" display="none"/></g><g transform="translate(0,395.59999999999997)"><path class="background" aria-hidden="true" d="M0,0L47.199999999999996,0C48.303830048988,0,49.199999999999996,0.896169951012,49.199999999999996,2L49.199999999999996,5.852173913043478C49.199999999999996,6.9560039620314775,48.303830048988,7.852173913043478,47.199999999999996,7.852173913043478L0,7.852173913043478C0,7.852173913043478,0,7.852173913043478,0,7.852173913043478L0,0C0,0,0,0,0,0Z"/><g clip-path="url(#clip33)"><g class="mark-group role-scope" role="graphics-object" aria-roledescription="group mark container"><g transform="translate(0,0)"><path class="background" aria-hidden="true" d="M0,0h0v7.852173913043478h0Z"/><g><g class="mark-rect role-mark layer_0_marks" role="graphics-object" aria-roledescription="rect mark container"><path aria-label="value: 6; brand: En mitään näistä; wave: Marraskuu 2024" role="graphics-symbol" aria-roledescription="bar" d="M0,0h49.199999999999996v7.852173913043478h-49.199999999999996Z" fill="#D9508A"/></g></g><path class="foreground" aria-hidden="true" d="" display="none"/></g></g></g><path class="foreground" aria-hidden="true" d="" display="none"/></g><g transform="translate(0,404.9478260869565)"><path class="background" aria-hidden="true" d="M0,0L30.799999999999997,0C31.903830048988,0,32.8,0.896169951012,32.8,2L32.8,5.852173913043478C32.8,6.9560039620314775,31.903830048988,7.852173913043478,30.799999999999997,7.852173913043478L0,7.852173913043478C0,7.852173913043478,0,7.852173913043478,0,7.852173913043478L0,0C0,0,0,0,0,0Z"/><g clip-path="url(#clip34)"><g class="mark-group role-scope" role="graphics-object" aria-roledescription="group mark container"><g transform="translate(0,0)"><path class="background" aria-hidden="true" d="M0,0h0v7.852173913043478h0Z"/><g><g class="mark-rect role-mark layer_0_marks" role="graphics-object" aria-roledescription="rect mark container"><path aria-label="value: 4; brand: En mitään näistä; wave: Toukokuu 2025" role="graphics-symbol" aria-roledescription="bar" d="M0,0h32.8v7.852173913043478h-32.8Z" fill="#E9A23B"/></g></g><path class="foreground" aria-hidden="true" d="" display="none"/></g></g></g><path class="foreground" aria-hidden="true" d="" display="none"/></g><g transform="translate(0,414.295652173913)"><path class="background" aria-hidden="true" d="M0,0L39,0C40.103830048988,0,41,0.896169951012,41,2L41,5.852173913043478C41,6.9560039620314775,40.103830048988,7.852173913043478,39,7.852173913043478L0,7.852173913043478C0,7.852173913043478,0,7.852173913043478,0,7.852173913043478L0,0C0,0,0,0,0,0Z"/><g clip-path="url(#clip35)"><g class="mark-group role-scope" role="graphics-object" aria-roledescription="group mark container"><g transform="translate(0,0)"><path class="background" aria-hidden="true" d="M0,0h0v7.852173913043478h0Z"/><g><g class="mark-rect role-mark layer_0_marks" role="graphics-object" aria-roledescription="rect mark container"><path aria-label="value: 5; brand: En mitään näistä; wave: Marraskuu 2025" role="graphics-symbol" aria-roledescription="bar" d="M0,0h41v7.852173913043478h-41Z" fill="#4E8A4E"/></g></g><path class="foreground" aria-hidden="true" d="" display="none"/></g></g></g><path class="foreground" aria-hidden="true" d="" display="none"/></g></g><g class="mark-text role-mark layer_1_layer_0_marks" role="graphics-object" aria-roledescription="text mark container"><text aria-label="value: 84; brand: Attendo; wave: Toukokuu 2024" role="graphics-symbol" aria-roledescription="text mark" text-anchor="start" transform="translate(691.8,17.021739130434792)" font-family="Liberation Sans" font-size="9px" fill="#7A7466">84</text><text aria-label="value: 81; brand: Attendo; wave: Marraskuu 2024" role="graphics-symbol" aria-roledescription="text mark" text-anchor="start" transform="translate(667.2,26.36956521739131)" font-family="Liberation Sans" font-size="9px" fill="#7A7466">81</text><text aria-label="value: 86; brand: Attendo; wave: Toukokuu 2025" role="graphics-symbol" aria-roledescription="text mark" text-anchor="start" transform="translate(708.2,35.717391304347835)" font-family="Liberation Sans" font-size="9px" fill="#7A7466">86</text><text aria-label="value: 72; brand: Esperi; wave: Toukokuu 2024" role="graphics-symbol" aria-roledescription="text mark" text-anchor="start" transform="translate(593.4,63.76086956521739)" font-family="Liberation Sans" font-size="9px" fill="#7A7466">72</text><text aria-label="value: 70; brand: Esperi; wave: Marraskuu 2024" role="graphics-symbol" aria-roledescription="text mark" text-anchor="start" transform="translate(577,73.1086956521739)" font-family="Liberation Sans" font-size="9px" fill="#7A7466">70</text><text aria-label="value: 74; brand: Esperi; wave: Toukokuu 2025" role="graphics-symbol" aria-roledescription="text mark" text-anchor="start" transform="translate(609.8,82.45652173913044)" font-family="Liberation Sans" font-size="9px" fill="#7A7466">74</text><text aria-label="value: 44; brand: Rinnekodit; wave: Toukokuu 2024" role="graphics-symbol" aria-roledescription="text mark" text-anchor="start" transform="translate(363.8,110.5)" font-family="Liberation Sans" font-size="9px" fill="#7A7466">44</text><text aria-label="value: 39; brand: Rinnekodit; wave: Marraskuu 2024" role="graphics-symbol" aria-roledescription="text mark" text-anchor="start" transform="translate(322.8,119.84782608695652)" font-family="Liberation Sans" font-size="9px" fill="#7A7466">39</text><text aria-label="value: 43; brand: Rinnekodit; wave: Toukokuu 2025" role="graphics-symbol" aria-roledescription="text mark" text-anchor="start" transform="translate(355.6,129.19565217391303)" font-family="Liberation Sans" font-size="9px" fill="#7A7466">43</text><text aria-label="value: 29; brand: Validia; wave: Marraskuu 2024" role="graphics-symbol" aria-roledescription="text mark" text-anchor="start" transform="translate(240.79999999999998,166.58695652173913)" font-family="Liberation Sans" font-size="9px" fill="#7A7466">29</text><text aria-label="value: 32; brand: Validia; wave: Toukokuu 2025" role="graphics-symbol" aria-roledescription="text mark" text-anchor="start" transform="translate(265.4,175.93478260869566)" font-family="Liberation Sans" font-size="9px" fill="#7A7466">32</text><text aria-label="value: 22; brand: Onnikodit; wave: Toukokuu 2024" role="graphics-symbol" aria-roledescription="text mark" text-anchor="start" transform="translate(183.4,203.9782608695652)" font-family="Liberation Sans" font-size="9px" fill="#7A7466">22</text><text aria-label="value: 23; brand: Onnikodit; wave: Marraskuu 2024" role="graphics-symbol" aria-roledescription="text mark" text-anchor="start" transform="translate(191.6,213.32608695652172)" font-family="Liberation Sans" font-size="9px" fill="#7A7466">23</text><text aria-label="value: 28; brand: Onnikodit; wave: Toukokuu 2025" role="graphics-symbol" aria-roledescription="text mark" text-anchor="start" transform="translate(232.60000000000002,222.67391304347825)" font-family="Liberation Sans" font-size="9px" fill="#7A7466">28</text><text aria-label="value: 21; brand: Mainio-kodit; wave: Toukokuu 2024" role="graphics-symbol" aria-roledescription="text mark" text-anchor="start" transform="translate(175.2,250.71739130434779)" font-family="Liberation Sans" font-size="9px" fill="#7A7466">21</text><text aria-label="value: 21; brand: Mainio-kodit; wave: Marraskuu 2024" role="graphics-symbol" aria-roledescription="text mark" text-anchor="start" transform="translate(175.2,260.0652173913043)" font-family="Liberation Sans" font-size="9px" fill="#7A7466">21</text><text aria-label="value: 23; brand: Mainio-kodit; wave: Toukokuu 2025" role="graphics-symbol" aria-roledescription="text mark" text-anchor="start" transform="translate(191.6,269.4130434782608)" font-family="Liberation Sans" font-size="9px" fill="#7A7466">23</text><text aria-label="value: 14; brand: Ykköskodit; wave: Toukokuu 2024" role="graphics-symbol" aria-roledescription="text mark" text-anchor="start" transform="translate(117.80000000000001,297.4565217391304)" font-family="Liberation Sans" font-size="9px" fill="#7A7466">14</text><text aria-label="value: 13; brand: Ykköskodit; wave: Marraskuu 2024" role="graphics-symbol" aria-roledescription="text mark" text-anchor="start" transform="translate(109.60000000000001,306.8043478260869)" font-family="Liberation Sans" font-size="9px" fill="#7A7466">13</text><text aria-label="value: 14; brand: Ykköskodit; wave: Toukokuu 2025" role="graphics-symbol" aria-roledescription="text mark" text-anchor="start" transform="translate(117.80000000000001,316.15217391304344)" font-family="Liberation Sans" font-size="9px" fill="#7A7466">14</text><text aria-label="value: 14; brand: Humana; wave: Toukokuu 2024" role="graphics-symbol" aria-roledescription="text mark" text-anchor="start" transform="translate(117.80000000000001,344.195652173913)" font-family="Liberation Sans" font-size="9px" fill="#7A7466">14</text><text aria-label="value: 13; brand: Humana; wave: Marraskuu 2024" role="graphics-symbol" aria-roledescription="text mark" text-anchor="start" transform="translate(109.60000000000001,353.5434782608695)" font-family="Liberation Sans" font-size="9px" fill="#7A7466">13</text><text aria-label="value: 11; brand: Humana; wave: Toukokuu 2025" role="graphics-symbol" aria-roledescription="text mark" text-anchor="start" transform="translate(93.2,362.89130434782606)" font-family="Liberation Sans" font-size="9px" fill="#7A7466">11</text><text aria-label="value: 6; brand: En mitään näistä; wave: Toukokuu 2024" role="graphics-symbol" aria-roledescription="text mark" text-anchor="start" transform="translate(52.199999999999996,390.9347826086956)" font-family="Liberation Sans" font-size="9px" fill="#7A7466">6</text><text aria-label="value: 6; brand: En mitään näistä; wave: Marraskuu 2024" role="graphics-symbol" aria-roledescription="text mark" text-anchor="start" transform="translate(52.199999999999996,400.28260869565213)" font-family="Liberation Sans" font-size="9px" fill="#7A7466">6</text><text aria-label="value: 4; brand: En mitään näistä; wave: Toukokuu 2025" role="graphics-symbol" aria-roledescription="text mark" text-anchor="start" transform="translate(35.8,409.6304347826087)" font-family="Liberation Sans" font-size="9px" fill="#7A7466">4</text></g><g class="mark-text role-mark layer_1_layer_1_marks" role="graphics-object" aria-roledescription="text mark container"><text aria-label="value: 86; brand: Attendo; wave: Marraskuu 2025" role="graphics-symbol" aria-roledescription="text mark" text-anchor="start" transform="translate(708.2,45.06521739130435)" font-family="Liberation Sans" font-size="9px" font-weight="bold" fill="#2B2B2B">86</text><text aria-label="value: 75; brand: Esperi; wave: Marraskuu 2025" role="graphics-symbol" aria-roledescription="text mark" text-anchor="start" transform="translate(618,91.80434782608695)" font-family="Liberation Sans" font-size="9px" font-weight="bold" fill="#2B2B2B">75</text><text aria-label="value: 42; brand: Rinnekodit; wave: Marraskuu 2025" role="graphics-symbol" aria-roledescription="text mark" text-anchor="start" transform="translate(347.4,138.54347826086956)" font-family="Liberation Sans" font-size="9px" font-weight="bold" fill="#2B2B2B">42</text><text aria-label="value: 33; brand: Validia; wave: Marraskuu 2025" role="graphics-symbol" aria-roledescription="text mark" text-anchor="start" transform="translate(273.6,185.28260869565216)" font-family="Liberation Sans" font-size="9px" font-weight="bold" fill="#2B2B2B">33</text><text aria-label="value: 26; brand: Onnikodit; wave: Marraskuu 2025" role="graphics-symbol" aria-roledescription="text mark" text-anchor="start" transform="translate(216.20000000000002,232.02173913043475)" font-family="Liberation Sans" font-size="9px" font-weight="bold" fill="#2B2B2B">26</text><text aria-label="value: 22; brand: Mainio-kodit; wave: Marraskuu 2025" role="graphics-symbol" aria-roledescription="text mark" text-anchor="start" transform="translate(183.4,278.7608695652174)" font-family="Liberation Sans" font-size="9px" font-weight="bold" fill="#2B2B2B">22</text><text aria-label="value: 15; brand: Ykköskodit; wave: Marraskuu 2025" role="graphics-symbol" aria-roledescription="text mark" text-anchor="start" transform="translate(126,325.49999999999994)" font-family="Liberation Sans" font-size="9px" font-weight="bold" fill="#2B2B2B">15</text><text aria-label="value: 13; brand: Humana; wave: Marraskuu 2025" role="graphics-symbol" aria-roledescription="text mark" text-anchor="start" transform="translate(109.60000000000001,372.23913043478257)" font-family="Liberation Sans" font-size="9px" font-weight="bold" fill="#2B2B2B">13</text><text aria-label="value: 5; brand: En mitään näistä; wave: Marraskuu 2025" role="graphics-symbol" aria-roledescription="text mark" text-anchor="start" transform="translate(44,418.9782608695652)" font-family="Liberation Sans" font-size="9px" font-weight="bold" fill="#2B2B2B">5</text></g><g class="mark-group role-legend" role="graphics-symbol" aria-roledescription="legend" aria-label="Symbol legend for fill color with 4 values: Toukokuu 2024, Marraskuu 2024, Toukokuu 2025, Marraskuu 2025"><g transform="translate(0,476)"><path class="background" aria-hidden="true" d="M0,0h420v25h-420Z" pointer-events="none"/><g><g class="mark-group role-legend-entry"><g transform="translate(6,6)"><path class="background" aria-hidden="true" d="M0,0h0v0h0Z" pointer-events="none"/><g><g class="mark-group role-scope" role="graphics-object" aria-roledescription="group mark container"><g transform="translate(0,0.39956143725215476)"><path class="background" aria-hidden="true" d="M0,0h91.615234375v12.20087712549569h-91.615234375Z" pointer-events="none" opacity="1"/><g><g class="mark-symbol role-legend-symbol" pointer-events="none"><path transform="translate(6.5,6.5)" d="M-5.701,-5.701h11.402v11.402h-11.402Z" fill="#2F9C95" stroke-width="1.5" opacity="1"/></g><g class="mark-text role-legend-label" pointer-events="none"><text text-anchor="start" transform="translate(17,9.5)" font-family="Liberation Sans" font-size="11px" fill="#2B2B2B" opacity="1">Toukokuu 2024</text></g></g><path class="foreground" aria-hidden="true" d="" pointer-events="none" display="none"/></g><g transform="translate(102,0.39956143725215476)"><path class="background" aria-hidden="true" d="M0,0h96.48681640625v12.20087712549569h-96.48681640625Z" pointer-events="none" opacity="1"/><g><g class="mark-symbol role-legend-symbol" pointer-events="none"><path transform="translate(6.5,6.5)" d="M-5.701,-5.701h11.402v11.402h-11.402Z" fill="#D9508A" stroke-width="1.5" opacity="1"/></g><g class="mark-text role-legend-label" pointer-events="none"><text text-anchor="start" transform="translate(17,9.5)" font-family="Liberation Sans" font-size="11px" fill="#2B2B2B" opacity="1">Marraskuu 2024</text></g></g><path class="foreground" aria-hidden="true" d="" pointer-events="none" display="none"/></g><g transform="translate(209,0.39956143725215476)"><path class="background" aria-hidden="true" d="M0,0h91.615234375v12.20087712549569h-91.615234375Z" pointer-events="none" opacity="1"/><g><g class="mark-symbol role-legend-symbol" pointer-events="none"><path transform="translate(6.5,6.5)" d="M-5.701,-5.701h11.402v11.402h-11.402Z" fill="#E9A23B" stroke-width="1.5" opacity="1"/></g><g class="mark-text role-legend-label" pointer-events="none"><text text-anchor="start" transform="translate(17,9.5)" font-family="Liberation Sans" font-size="11px" fill="#2B2B2B" opacity="1">Toukokuu 2025</text></g></g><path class="foreground" aria-hidden="true" d="" pointer-events="none" display="none"/></g><g transform="translate(311,0.39956143725215476)"><path class="background" aria-hidden="true" d="M0,0h96.48681640625v12.20087712549569h-96.48681640625Z" pointer-events="none" opacity="1"/><g><g class="mark-symbol role-legend-symbol" pointer-events="none"><path transform="translate(6.5,6.5)" d="M-5.701,-5.701h11.402v11.402h-11.402Z" fill="#4E8A4E" stroke-width="1.5" opacity="1"/></g><g class="mark-text role-legend-label" pointer-events="none"><text text-anchor="start" transform="translate(17,9.5)" font-family="Liberation Sans" font-size="11px" fill="#2B2B2B" opacity="1">Marraskuu 2025</text></g></g><path class="foreground" aria-hidden="true" d="" pointer-events="none" display="none"/></g></g></g><path class="foreground" aria-hidden="true" d="" pointer-events="none" display="none"/></g></g></g><path class="foreground" aria-hidden="true" d="" pointer-events="none" display="none"/></g></g><g class="mark-group role-title"><g transform="translate(-95.384765625,-43)"><path class="background" aria-hidden="true" d="M0,0h0v0h0Z" pointer-events="none"/><g><g class="mark-text role-title-text" role="graphics-symbol" aria-roledescription="title" aria-label="Title text 'Mitä seuraavista hoivapalveluiden tarjoajista tunnet vähintään nimeltä?'" pointer-events="none"><text text-anchor="start" transform="translate(0,12)" font-family="Liberation Sans" font-size="15px" font-weight="bold" fill="#2B2B2B" opacity="1">Mitä seuraavista hoivapalveluiden tarjoajista tunnet vähintään nimeltä?</text></g><g class="mark-text role-title-subtitle" role="graphics-symbol" aria-roledescription="subtitle" aria-label="Subtitle text 'Autettu tunnettuus (%) · n=1001'" pointer-events="none"><text text-anchor="start" transform="translate(0,27)" font-family="Liberation Sans" font-size="11px" fill="#8A857B" opacity="1">Autettu tunnettuus (%) · n=1001</text></g></g><path class="foreground" aria-hidden="true" d="" pointer-events="none" display="none"/></g></g></g><path class="foreground" aria-hidden="true" d="" display="none"/></g></g></g><defs><clipPath id="clip1"><path d="M0,0L686.8,0C687.903830048988,0,688.8,0.896169951012,688.8,2L688.8,5.852173913043478C688.8,6.9560039620314775,687.903830048988,7.852173913043478,686.8,7.852173913043478L0,7.852173913043478C0,7.852173913043478,0,7.852173913043478,0,7.852173913043478L0,0C0,0,0,0,0,0Z"/></clipPath><clipPath id="clip2"><path d="M0,0L662.2,0C663.3038300489881,0,664.2,0.896169951012,664.2,2L664.2,5.852173913043478C664.2,6.9560039620314775,663.3038300489881,7.852173913043478,662.2,7.852173913043478L0,7.852173913043478C0,7.852173913043478,0,7.852173913043478,0,7.852173913043478L0,0C0,0,0,0,0,0Z"/></clipPath><clipPath id="clip3"><path d="M0,0L703.2,0C704.3038300489881,0,705.2,0.896169951012,705.2,2L705.2,5.852173913043478C705.2,6.9560039620314775,704.3038300489881,7.852173913043478,703.2,7.852173913043478L0,7.852173913043478C0,7.852173913043478,0,7.852173913043478,0,7.852173913043478L0,0C0,0,0,0,0,0Z"/></clipPath><clipPath id="clip4"><path d="M0,0L703.2,0C704.3038300489881,0,705.2,0.896169951012,705.2,2L705.2,5.852173913043478C705.2,6.9560039620314775,704.3038300489881,7.852173913043478,703.2,7.852173913043478L0,7.852173913043478C0,7.852173913043478,0,7.852173913043478,0,7.852173913043478L0,0C0,0,0,0,0,0Z"/></clipPath><clipPath id="clip5"><path d="M0,0L588.4,0C589.503830048988,0,590.4,0.896169951012,590.4,2L590.4,5.852173913043478C590.4,6.9560039620314775,589.503830048988,7.852173913043478,588.4,7.852173913043478L0,7.852173913043478C0,7.852173913043478,0,7.852173913043478,0,7.852173913043478L0,0C0,0,0,0,0,0Z"/></clipPath><clipPath id="clip6"><path d="M0,0L572,0C573.103830048988,0,574,0.896169951012,574,2L574,5.852173913043478C574,6.9560039620314775,573.103830048988,7.852173913043478,572,7.852173913043478L0,7.852173913043478C0,7.852173913043478,0,7.852173913043478,0,7.852173913043478L0,0C0,0,0,0,0,0Z"/></clipPath><clipPath id="clip7"><path d="M0,0L604.8,0C605.903830048988,0,606.8,0.896169951012,606.8,2L606.8,5.852173913043478C606.8,6.9560039620314775,605.903830048988,7.852173913043478,604.8,7.852173913043478L0,7.852173913043478C0,7.852173913043478,0,7.852173913043478,0,7.852173913043478L0,0C0,0,0,0,0,0Z"/></clipPath><clipPath id="clip8"><path d="M0,0L613,0C614.103830048988,0,615,0.896169951012,615,2L615,5.852173913043478C615,6.9560039620314775,614.103830048988,7.852173913043478,613,7.852173913043478L0,7.852173913043478C0,7.852173913043478,0,7.852173913043478,0,7.852173913043478L0,0C0,0,0,0,0,0Z"/></clipPath><clipPath id="clip9"><path d="M0,0L358.8,0C359.903830048988,0,360.8,0.896169951012,360.8,2L360.8,5.852173913043478C360.8,6.9560039620314775,359.903830048988,7.852173913043478,358.8,7.852173913043478L0,7.852173913043478C0,7.852173913043478,0,7.852173913043478,0,7.852173913043478L0,0C0,0,0,0,0,0Z"/></clipPath><clipPath id="clip10"><path d="M0,0L317.8,0C318.903830048988,0,319.8,0.896169951012,319.8,2L319.8,5.852173913043478C319.8,6.9560039620314775,318.903830048988,7.852173913043478,317.8,7.852173913043478L0,7.852173913043478C0,7.852173913043478,0,7.852173913043478,0,7.852173913043478L0,0C0,0,0,0,0,0Z"/></clipPath><clipPath id="clip11"><path d="M0,0L350.6,0C351.70383004898804,0,352.6,0.896169951012,352.6,2L352.6,5.852173913043478C352.6,6.9560039620314775,351.70383004898804,7.852173913043478,350.6,7.852173913043478L0,7.852173913043478C0,7.852173913043478,0,7.852173913043478,0,7.852173913043478L0,0C0,0,0,0,0,0Z"/></clipPath><clipPath id="clip12"><path d="M0,0L342.4,0C343.503830048988,0,344.4,0.896169951012,344.4,2L344.4,5.852173913043478C344.4,6.9560039620314775,343.503830048988,7.852173913043478,342.4,7.852173913043478L0,7.852173913043478C0,7.852173913043478,0,7.852173913043478,0,7.852173913043478L0,0C0,0,0,0,0,0Z"/></clipPath><clipPath id="clip13"><path d="M0,0L235.79999999999998,0C236.90383004898797,0,237.79999999999998,0.896169951012,237.79999999999998,2L237.79999999999998,5.852173913043478C237.79999999999998,6.9560039620314775,236.90383004898797,7.852173913043478,235.79999999999998,7.852173913043478L0,7.852173913043478C0,7.852173913043478,0,7.852173913043478,0,7.852173913043478L0,0C0,0,0,0,0,0Z"/></clipPath><clipPath id="clip14"><path d="M0,0L260.4,0C261.503830048988,0,262.4,0.896169951012,262.4,2L262.4,5.852173913043478C262.4,6.9560039620314775,261.503830048988,7.852173913043478,260.4,7.852173913043478L0,7.852173913043478C0,7.852173913043478,0,7.852173913043478,0,7.852173913043478L0,0C0,0,0,0,0,0Z"/></clipPath><clipPath id="clip15"><path d="M0,0L268.6,0C269.70383004898804,0,270.6,0.896169951012,270.6,2L270.6,5.852173913043478C270.6,6.9560039620314775,269.70383004898804,7.852173913043478,268.6,7.852173913043478L0,7.852173913043478C0,7.852173913043478,0,7.852173913043478,0,7.852173913043478L0,0C0,0,0,0,0,0Z"/></clipPath><clipPath id="clip16"><path d="M0,0L178.4,0C179.503830048988,0,180.4,0.896169951012,180.4,2L180.4,5.852173913043478C180.4,6.9560039620314775,179.503830048988,7.852173913043478,178.4,7.852173913043478L0,7.852173913043478C0,7.852173913043478,0,7.852173913043478,0,7.852173913043478L0,0C0,0,0,0,0,0Z"/></clipPath><clipPath id="clip17"><path d="M0,0L186.6,0C187.70383004898798,0,188.6,0.896169951012,188.6,2L188.6,5.852173913043478C188.6,6.9560039620314775,187.70383004898798,7.852173913043478,186.6,7.852173913043478L0,7.852173913043478C0,7.852173913043478,0,7.852173913043478,0,7.852173913043478L0,0C0,0,0,0,0,0Z"/></clipPath><clipPath id="clip18"><path d="M0,0L227.60000000000002,0C228.703830048988,0,229.60000000000002,0.896169951012,229.60000000000002,2L229.60000000000002,5.852173913043478C229.60000000000002,6.9560039620314775,228.703830048988,7.852173913043478,227.60000000000002,7.852173913043478L0,7.852173913043478C0,7.852173913043478,0,7.852173913043478,0,7.852173913043478L0,0C0,0,0,0,0,0Z"/></clipPath><clipPath id="clip19"><path d="M0,0L211.20000000000002,0C212.303830048988,0,213.20000000000002,0.896169951012,213.20000000000002,2L213.20000000000002,5.852173913043478C213.20000000000002,6.9560039620314775,212.303830048988,7.852173913043478,211.20000000000002,7.852173913043478L0,7.852173913043478C0,7.852173913043478,0,7.852173913043478,0,7.852173913043478L0,0C0,0,0,0,0,0Z"/></clipPath><clipPath id="clip20"><path d="M0,0L170.2,0C171.30383004898798,0,172.2,0.896169951012,172.2,2L172.2,5.852173913043478C172.2,6.9560039620314775,171.30383004898798,7.852173913043478,170.2,7.852173913043478L0,7.852173913043478C0,7.852173913043478,0,7.852173913043478,0,7.852173913043478L0,0C0,0,0,0,0,0Z"/></clipPath><clipPath id="clip21"><path d="M0,0L170.2,0C171.30383004898798,0,172.2,0.896169951012,172.2,2L172.2,5.852173913043478C172.2,6.9560039620314775,171.30383004898798,7.852173913043478,170.2,7.852173913043478L0,7.852173913043478C0,7.852173913043478,0,7.852173913043478,0,7.852173913043478L0,0C0,0,0,0,0,0Z"/></clipPath><clipPath id="clip22"><path d="M0,0L186.6,0C187.70383004898798,0,188.6,0.896169951012,188.6,2L188.6,5.852173913043478C188.6,6.9560039620314775,187.70383004898798,7.852173913043478,186.6,7.852173913043478L0,7.852173913043478C0,7.852173913043478,0,7.852173913043478,0,7.852173913043478L0,0C0,0,0,0,0,0Z"/></clipPath><clipPath id="clip23"><path d="M0,0L178.4,0C179.503830048988,0,180.4,0.896169951012,180.4,2L180.4,5.852173913043478C180.4,6.9560039620314775,179.503830048988,7.852173913043478,178.4,7.852173913043478L0,7.852173913043478C0,7.852173913043478,0,7.852173913043478,0,7.852173913043478L0,0C0,0,0,0,0,0Z"/></clipPath><clipPath id="clip24"><path d="M0,0L112.80000000000001,0C113.90383004898801,0,114.80000000000001,0.896169951012,114.80000000000001,2L114.80000000000001,5.852173913043478C114.80000000000001,6.9560039620314775,113.90383004898801,7.852173913043478,112.80000000000001,7.852173913043478L0,7.852173913043478C0,7.852173913043478,0,7.852173913043478,0,7.852173913043478L0,0C0,0,0,0,0,0Z"/></clipPath><clipPath id="clip25"><path d="M0,0L104.60000000000001,0C105.70383004898801,0,106.60000000000001,0.896169951012,106.60000000000001,2L106.60000000000001,5.852173913043478C106.60000000000001,6.9560039620314775,105.70383004898801,7.852173913043478,104.60000000000001,7.852173913043478L0,7.852173913043478C0,7.852173913043478,0,7.852173913043478,0,7.852173913043478L0,0C0,0,0,0,0,0Z"/></clipPath><clipPath id="clip26"><path d="M0,0L112.80000000000001,0C113.90383004898801,0,114.80000000000001,0.896169951012,114.80000000000001,2L114.80000000000001,5.852173913043478C114.80000000000001,6.9560039620314775,113.90383004898801,7.852173913043478,112.80000000000001,7.852173913043478L0,7.852173913043478C0,7.852173913043478,0,7.852173913043478,0,7.852173913043478L0,0C0,0,0,0,0,0Z"/></clipPath><clipPath id="clip27"><path d="M0,0L121,0C122.103830048988,0,123,0.896169951012,123,2L123,5.852173913043478C123,6.9560039620314775,122.103830048988,7.852173913043478,121,7.852173913043478L0,7.852173913043478C0,7.852173913043478,0,7.852173913043478,0,7.852173913043478L0,0C0,0,0,0,0,0Z"/></clipPath><clipPath id="clip28"><path d="M0,0L112.80000000000001,0C113.90383004898801,0,114.80000000000001,0.896169951012,114.80000000000001,2L114.80000000000001,5.852173913043478C114.80000000000001,6.9560039620314775,113.90383004898801,7.852173913043478,112.80000000000001,7.852173913043478L0,7.852173913043478C0,7.852173913043478,0,7.852173913043478,0,7.852173913043478L0,0C0,0,0,0,0,0Z"/></clipPath><clipPath id="clip29"><path d="M0,0L104.60000000000001,0C105.70383004898801,0,106.60000000000001,0.896169951012,106.60000000000001,2L106.60000000000001,5.852173913043478C106.60000000000001,6.9560039620314775,105.70383004898801,7.852173913043478,104.60000000000001,7.852173913043478L0,7.852173913043478C0,7.852173913043478,0,7.852173913043478,0,7.852173913043478L0,0C0,0,0,0,0,0Z"/></clipPath><clipPath id="clip30"><path d="M0,0L88.2,0C89.303830048988,0,90.2,0.896169951012,90.2,2L90.2,5.852173913043478C90.2,6.9560039620314775,89.303830048988,7.852173913043478,88.2,7.852173913043478L0,7.852173913043478C0,7.852173913043478,0,7.852173913043478,0,7.852173913043478L0,0C0,0,0,0,0,0Z"/></clipPath><clipPath id="clip31"><path d="M0,0L104.60000000000001,0C105.70383004898801,0,106.60000000000001,0.896169951012,106.60000000000001,2L106.60000000000001,5.852173913043478C106.60000000000001,6.9560039620314775,105.70383004898801,7.852173913043478,104.60000000000001,7.852173913043478L0,7.852173913043478C0,7.852173913043478,0,7.852173913043478,0,7.852173913043478L0,0C0,0,0,0,0,0Z"/></clipPath><clipPath id="clip32"><path d="M0,0L47.199999999999996,0C48.303830048988,0,49.199999999999996,0.896169951012,49.199999999999996,2L49.199999999999996,5.852173913043478C49.199999999999996,6.9560039620314775,48.303830048988,7.852173913043478,47.199999999999996,7.852173913043478L0,7.852173913043478C0,7.852173913043478,0,7.852173913043478,0,7.852173913043478L0,0C0,0,0,0,0,0Z"/></clipPath><clipPath id="clip33"><path d="M0,0L47.199999999999996,0C48.303830048988,0,49.199999999999996,0.896169951012,49.199999999999996,2L49.199999999999996,5.852173913043478C49.199999999999996,6.9560039620314775,48.303830048988,7.852173913043478,47.199999999999996,7.852173913043478L0,7.852173913043478C0,7.852173913043478,0,7.852173913043478,0,7.852173913043478L0,0C0,0,0,0,0,0Z"/></clipPath><clipPath id="clip34"><path d="M0,0L30.799999999999997,0C31.903830048988,0,32.8,0.896169951012,32.8,2L32.8,5.852173913043478C32.8,6.9560039620314775,31.903830048988,7.852173913043478,30.799999999999997,7.852173913043478L0,7.852173913043478C0,7.852173913043478,0,7.852173913043478,0,7.852173913043478L0,0C0,0,0,0,0,0Z"/></clipPath><clipPath id="clip35"><path d="M0,0L39,0C40.103830048988,0,41,0.896169951012,41,2L41,5.852173913043478C41,6.9560039620314775,40.103830048988,7.852173913043478,39,7.852173913043478L0,7.852173913043478C0,7.852173913043478,0,7.852173913043478,0,7.852173913043478L0,0C0,0,0,0,0,0Z"/></clipPath></defs></svg>