<svg xmlns="http://www.w3.org/2000/svg" xmlns:xlink="http://www.w3.org/1999/xlink" version="1.1" class="marks" width="645" height="459" viewBox="0 0 645 459"><rect width="645" height="459" fill="#F4EFE6"/><g fill="none" stroke-miterlimit="10" transform="translate(80,46)"><g class="mark-group role-frame root" role="graphics-object" aria-roledescription="group mark container"><g transform="translate(0,0)"><path class="background" aria-hidden="true" d="M0,0h560v360h-560Z"/><g><g class="mark-group role-axis" role="graphics-symbol" aria-roledescription="axis" aria-label="Y-axis for a discrete scale with 10 values: Kallis, Huono, Kiireinen, Luotettava, Hyvä, ending with Huolehtiva"><g transform="translate(0.5,0.5)"><path class="background" aria-hidden="true" d="M0,0h0v0h0Z" pointer-events="none"/><g><g class="mark-text role-axis-label" pointer-events="none"><text text-anchor="end" transform="translate(-8,21.499999999999982)" font-family="Liberation Sans" font-size="13px" font-weight="bold" fill="#2B2B2B" opacity="1">Kallis</text><text text-anchor="end" transform="translate(-8,57.499999999999986)" font-family="Liberation Sans" font-size="13px" font-weight="bold" fill="#2B2B2B" opacity="1">Huono</text><text text-anchor="end" transform="translate(-8,93.49999999999999)" font-family="Liberation Sans" font-size="13px" font-weight="bold" fill="#2B2B2B" opacity="1">Kiireinen</text><text text-anchor="end" transform="translate(-8,129.5)" font-family="Liberation Sans" font-size="13px" font-weight="bold" fill="#2B2B2B" opacity="1">Luotettava</text><text text-anchor="end" transform="translate(-8,165.49999999999997)" font-family="Liberation Sans" font-size="13px" font-weight="bold" fill="#2B2B2B" opacity="1">Hyvä</text><text text-anchor="end" transform="translate(-8,201.49999999999997)" font-family="Liberation Sans" font-size="13px" font-weight="bold" fill="#2B2B2B" opacity="1">Ahne</text><text text-anchor="end" transform="translate(-8,237.49999999999997)" font-family="Liberation Sans" font-size="13px" font-weight="bold" fill="#2B2B2B" opacity="1">Iso</text><text text-anchor="end" transform="translate(-8,273.5)" font-family="Liberation Sans" font-size="13px" font-weight="bold" fill="#2B2B2B" opacity="1">Tunnettu</text><text text-anchor="end" transform="translate(-8,309.49999999999994)" font-family="Liberation Sans" font-size="13px" font-weight="bold" fill="#2B2B2B" opacity="1">Välittävä</text><text text-anchor="end" transform="translate(-8,345.49999999999994)" font-family="Liberation Sans" font-size="13px" font-weight="bold" fill="#2B2B2B" opacity="1">Huolehtiva</text></g></g><path class="foreground" aria-hidden="true" d="" pointer-events="none" display="none"/></g></g><g class="mark-group role-scope" role="graphics-object" aria-roledescription="group mark container"><g transform="translate(0,6.999999999999982)"><path class="background" aria-hidden="true" d="M0,0L502.3658536585366,0C504.0215987320186,0,505.3658536585366,1.344254926518,505.3658536585366,3L505.3658536585366,19C505.3658536585366,20.655745073482,504.0215987320186,22,502.3658536585366,22L0,22C0,22,0,22,0,22L0,0C0,0,0,0,0,0Z"/><g clip-path="url(#clip1)"><g class="mark-group role-scope" role="graphics-object" aria-roledescription="group mark container"><g transform="translate(0,0)"><path class="background" aria-hidden="true" d="M0,0h0v22h0Z"/><g><g class="mark-rect role-mark layer_0_marks" role="graphics-object" aria-roledescription="rect mark container"><path aria-label="count: 185; word: Kallis; Sävy: Kielteinen" role="graphics-symbol" aria-roledescription="bar" d="M0,0h505.3658536585366v22h-505.3658536585366Z" fill="#C04A3B"/></g></g><path class="foreground" aria-hidden="true" d="" display="none"/></g></g></g><path class="foreground" aria-hidden="true" d="" display="none"/></g><g transform="translate(0,42.999999999999986)"><path class="background" aria-hidden="true" d="M0,0L201.8780487804878,0C203.5337938539698,0,204.8780487804878,1.344254926518,204.8780487804878,3L204.8780487804878,19C204.8780487804878,20.655745073482,203.5337938539698,22,201.8780487804878,22L0,22C0,22,0,22,0,22L0,0C0,0,0,0,0,0Z"/><g clip-path="url(#clip2)"><g class="mark-group role-scope" role="graphics-object" aria-roledescription="group mark container"><g transform="translate(0,0)"><path class="background" aria-hidden="true" d="M0,0h0v22h0Z"/><g><g class="mark-rect role-mark layer_0_marks" role="graphics-object" aria-roledescription="rect mark container"><path aria-label="count: 75; word: Huono; Sävy: Kielteinen" role="graphics-symbol" aria-roledescription="bar" d="M0,0h204.8780487804878v22h-204.8780487804878Z" fill="#C04A3B"/></g></g><path class="foreground" aria-hidden="true" d="" display="none"/></g></g></g><path class="foreground" aria-hidden="true" d="" display="none"/></g><g transform="translate(0,78.99999999999999)"><path class="background" aria-hidden="true" d="M0,0L177.2926829268293,0C178.94842800031128,0,180.2926829268293,1.344254926518,180.2926829268293,3L180.2926829268293,19C180.2926829268293,20.655745073482,178.94842800031128,22,177.2926829268293,22L0,22C0,22,0,22,0,22L0,0C0,0,0,0,0,0Z"/><g clip-path="url(#clip3)"><g class="mark-group role-scope" role="graphics-object" aria-roledescription="group mark container"><g transform="translate(0,0)"><path class="background" aria-hidden="true" d="M0,0h0v22h0Z"/><g><g class="mark-rect role-mark layer_0_marks" role="graphics-object" aria-roledescription="rect mark container"><path aria-label="count: 66; word: Kiireinen; Sävy: Kielteinen" role="graphics-symbol" aria-roledescription="bar" d="M0,0h180.2926829268293v22h-180.2926829268293Z" fill="#C04A3B"/></g></g><path class="foreground" aria-hidden="true" d="" display="none"/></g></g></g><path class="foreground" aria-hidden="true" d="" display="none"/></g><g transform="translate(0,114.99999999999999)"><path class="background" aria-hidden="true" d="M0,0L163.6341463414634,0C165.2898914149454,0,166.6341463414634,1.344254926518,166.6341463414634,3L166.6341463414634,19C166.6341463414634,20.655745073482,165.2898914149454,22,163.6341463414634,22L0,22C0,22,0,22,0,22L0,0C0,0,0,0,0,0Z"/><g clip-path="url(#clip4)"><g class="mark-group role-scope" role="graphics-object" aria-roledescription="group mark container"><g transform="translate(0,0)"><path class="background" aria-hidden="true" d="M0,0h0v22h0Z"/><g><g class="mark-rect role-mark layer_0_marks" role="graphics-object" aria-roledescription="rect mark container"><path aria-label="count: 61; word: Luotettava; Sävy: Myönteinen" role="graphics-symbol" aria-roledescription="bar" d="M0,0h166.6341463414634v22h-166.6341463414634Z" fill="#3F7D4E"/></g></g><path class="foreground" aria-hidden="true" d="" display="none"/></g></g></g><path class="foreground" aria-hidden="true" d="" display="none"/></g><g transform="translate(0,150.99999999999997)"><path class="background" aria-hidden="true" d="M0,0L160.90243902439025,0C162.55818409787224,0,163.90243902439025,1.344254926518,163.90243902439025,3L163.90243902439025,19C163.90243902439025,20.655745073482,162.55818409787224,22,160.90243902439025,22L0,22C0,22,0,22,0,22L0,0C0,0,0,0,0,0Z"/><g clip-path="url(#clip5)"><g class="mark-group role-scope" role="graphics-object" aria-roledescription="group mark container"><g transform="translate(0,0)"><path class="background" aria-hidden="true" d="M0,0h0v22h0Z"/><g><g class="mark-rect role-mark layer_0_marks" role="graphics-object" aria-roledescription="rect mark container"><path aria-label="count: 60; word: Hyvä; Sävy: Myönteinen" role="graphics-symbol" aria-roledescription="bar" d="M0,0h163.90243902439025v22h-163.90243902439025Z" fill="#3F7D4E"/></g></g><path class="foreground" aria-hidden="true" d="" display="none"/></g></g></g><path class="foreground" aria-hidden="true" d="" display="none"/></g><g transform="translate(0,186.99999999999997)"><path class="background" aria-hidden="true" d="M0,0L152.70731707317074,0C154.36306214665274,0,155.70731707317074,1.344254926518,155.70731707317074,3L155.70731707317074,19C155.70731707317074,20.655745073482,154.36306214665274,22,152.70731707317074,22L0,22C0,22,0,22,0,22L0,0C0,0,0,0,0,0Z"/><g clip-path="url(#clip6)"><g class="mark-group role-scope" role="graphics-object" aria-roledescription="group mark container"><g transform="translate(0,0)"><path class="background" aria-hidden="true" d="M0,0h0v22h0Z"/><g><g class="mark-rect role-mark layer_0_marks" role="graphics-object" aria-roledescription="rect mark container"><path aria-label="count: 57; word: Ahne; Sävy: Kielteinen" role="graphics-symbol" aria-roledescription="bar" d="M0,0h155.70731707317074v22h-155.70731707317074Z" fill="#C04A3B"/></g></g><path class="foreground" aria-hidden="true" d="" display="none"/></g></g></g><path class="foreground" aria-hidden="true" d="" display="none"/></g><g transform="translate(0,222.99999999999997)"><path class="background" aria-hidden="true" d="M0,0L95.34146341463413,0C96.99720848811613,0,98.34146341463413,1.344254926518,98.34146341463413,3L98.34146341463413,19C98.34146341463413,20.655745073482,96.99720848811613,22,95.34146341463413,22L0,22C0,22,0,22,0,22L0,0C0,0,0,0,0,0Z"/><g clip-path="url(#clip7)"><g class="mark-group role-scope" role="graphics-object" aria-roledescription="group mark container"><g transform="translate(0,0)"><path class="background" aria-hidden="true" d="M0,0h0v22h0Z"/><g><g class="mark-rect role-mark layer_0_marks" role="graphics-object" aria-roledescription="rect mark container"><path aria-label="count: 36; word: Iso; Sävy: Neutraali" role="graphics-symbol" aria-roledescription="bar" d="M0,0h98.34146341463413v22h-98.34146341463413Z" fill="#9C9485"/></g></g><path class="foreground" aria-hidden="true" d="" display="none"/></g></g></g><path class="foreground" aria-hidden="true" d="" display="none"/></g><g transform="translate(0,259)"><path class="background" aria-hidden="true" d="M0,0L84.41463414634147,0C86.07037921982347,0,87.41463414634147,1.344254926518,87.41463414634147,3L87.41463414634147,19C87.41463414634147,20.655745073482,86.07037921982347,22,84.41463414634147,22L0,22C0,22,0,22,0,22L0,0C0,0,0,0,0,0Z"/><g clip-path="url(#clip8)"><g class="mark-group role-scope" role="graphics-object" aria-roledescription="group mark container"><g transform="translate(0,0)"><path class="background" aria-hidden="true" d="M0,0h0v22h0Z"/><g><g class="mark-rect role-mark layer_0_marks" role="graphics-object" aria-roledescription="rect mark container"><path aria-label="count: 32; word: Tunnettu; Sävy: Myönteinen" role="graphics-symbol" aria-roledescription="bar" d="M0,0h87.41463414634147v22h-87.41463414634147Z" fill="#3F7D4E"/></g></g><path class="foreground" aria-hidden="true" d="" display="none"/></g></g></g><path class="foreground" aria-hidden="true" d="" display="none"/></g><g transform="translate(0,294.99999999999994)"><path class="background" aria-hidden="true" d="M0,0L84.41463414634147,0C86.07037921982347,0,87.41463414634147,1.344254926518,87.41463414634147,3L87.41463414634147,19C87.41463414634147,20.655745073482,86.07037921982347,22,84.41463414634147,22L0,22C0,22,0,22,0,22L0,0C0,0,0,0,0,0Z"/><g clip-path="url(#clip9)"><g class="mark-group role-scope" role="graphics-object" aria-roledescription="group mark container"><g transform="translate(0,0)"><path class="background" aria-hidden="true" d="M0,0h0v22h0Z"/><g><g class="mark-rect role-mark layer_0_marks" role="graphics-object" aria-roledescription="rect mark container"><path aria-label="count: 32; word: Välittävä; Sävy: Myönteinen" role="graphics-symbol" aria-roledescription="bar" d="M0,0h87.41463414634147v22h-87.41463414634147Z" fill="#3F7D4E"/></g></g><path class="foreground" aria-hidden="true" d="" display="none"/></g></g></g><path class="foreground" aria-hidden="true" d="" display="none"/></g><g transform="translate(0,330.99999999999994)"><path class="background" aria-hidden="true" d="M0,0L70.75609756097562,0C72.41184263445761,0,73.75609756097562,1.344254926518,73.75609756097562,3L73.75609756097562,19C73.75609756097562,20.655745073482,72.41184263445761,22,70.75609756097562,22L0,22C0,22,0,22,0,22L0,0C0,0,0,0,0,0Z"/><g clip-path="url(#clip10)"><g class="mark-group role-scope" role="graphics-object" aria-roledescription="group mark container"><g transform="translate(0,0)"><path class="background" aria-hidden="true" d="M0,0h0v22h0Z"/><g><g class="mark-rect role-mark layer_0_marks" role="graphics-object" aria-roledescription="rect mark container"><path aria-label="count: 27; word: Huolehtiva; Sävy: Myönteinen" role="graphics-symbol" aria-roledescription="bar" d="M0,0h73.75609756097562v22h-73.75609756097562Z" fill="#3F7D4E"/></g></g><path class="foreground" aria-hidden="true" d="" display="none"/></g></g></g><path class="foreground" aria-hidden="true" d="" display="none"/></g></g><g class="mark-text role-mark layer_1_marks" role="graphics-object" aria-roledescription="text mark container"><text aria-label="count: 185; word: Kallis" role="graphics-symbol" aria-roledescription="text mark" text-anchor="start" transform="translate(510.3658536585366,20.999999999999982)" font-family="Liberation Sans" font-size="11px" font-weight="bold" fill="#2B2B2B">185</text><text aria-label="count: 75; word: Huono" role="graphics-symbol" aria-roledescription="text mark" text-anchor="start" transform="translate(209.8780487804878,56.999999999999986)" font-family="Liberation Sans" font-size="11px" font-weight="bold" fill="#2B2B2B">75</text><text aria-label="count: 66; word: Kiireinen" role="graphics-symbol" aria-roledescription="text mark" text-anchor="start" transform="translate(185.2926829268293,92.99999999999999)" font-family="Liberation Sans" font-size="11px" font-weight="bold" fill="#2B2B2B">66</text><text aria-label="count: 61; word: Luotettava" role="graphics-symbol" aria-roledescription="text mark" text-anchor="start" transform="translate(171.6341463414634,129)" font-family="Liberation Sans" font-size="11px" font-weight="bold" fill="#2B2B2B">61</text><text aria-label="count: 60; word: Hyvä" role="graphics-symbol" aria-roledescription="text mark" text-anchor="start" transform="translate(168.90243902439025,164.99999999999997)" font-family="Liberation Sans" font-size="11px" font-weight="bold" fill="#2B2B2B">60</text><text aria-label="count: 57; word: Ahne" role="graphics-symbol" aria-roledescription="text mark" text-anchor="start" transform="translate(160.70731707317074,200.99999999999997)" font-family="Liberation Sans" font-size="11px" font-weight="bold" fill="#2B2B2B">57</text><text aria-label="count: 36; word: Iso" role="graphics-symbol" aria-roledescription="text mark" text-anchor="start" transform="translate(103.34146341463413,236.99999999999997)" font-family="Liberation Sans" font-size="11px" font-weight="bold" fill="#2B2B2B">36</text><text aria-label="count: 32; word: Tunnettu" role="graphics-symbol" aria-roledescription="text mark" text-anchor="start" transform="translate(92.41463414634147,273)" font-family="Liberation Sans" font-size="11px" font-weight="bold" fill="#2B2B2B">32</text><text aria-label="count: 32; word: Välittävä" role="graphics-symbol" aria-roledescription="text mark" text-anchor="start" transform="translate(92.41463414634147,308.99999999999994)" font-family="Liberation Sans" font-size="11px" font-weight="bold" fill="#2B2B2B">32</text><text aria-label="count: 27; word: Huolehtiva" role="graphics-symbol" aria-roledescription="text mark" text-anchor="start" transform="translate(78.75609756097562,344.99999999999994)" font-family="Liberation Sans" font-size="11px" font-weight="bold" fill="#2B2B2B">27</text></g><g class="mark-group role-legend" role="graphics-symbol" aria-roledescription="legend" aria-label="Symbol legend for fill color with 3 values: Kielteinen, Myönteinen, Neutraali"><g transform="translate(0,378)"><path class="background" aria-hidden="true" d="M0,0h255v30h-255Z" pointer-events="none"/><g><g class="mark-group role-legend-entry"><g transform="translate(8,8)"><path class="background" aria-hidden="true" d="M0,0h0v0h0Z" pointer-events="none"/><g><g class="mark-group role-scope" role="graphics-object" aria-roledescription="group mark container"><g transform="translate(0,0.4381378215210274)"><path class="background" aria-hidden="true" d="M0,0h70.705078125v13.123724356957943h-70.705078125Z" pointer-events="none" opacity="1"/><g><g class="mark-symbol role-legend-symbol" pointer-events="none"><path transform="translate(7,7)" d="M-6.124,-6.124h12.247v12.247h-12.247Z" fill="#C04A3B" stroke-width="1.5" opacity="1"/></g><g class="mark-text role-legend-label" pointer-events="none"><text text-anchor="start" transform="translate(18,11)" font-family="Liberation Sans" font-size="12px" fill="#2B2B2B" opacity="1">Kielteinen</text></g></g><path class="foreground" aria-hidden="true" d="" pointer-events="none" display="none"/></g><g transform="translate(81,0.4381378215210274)"><path class="background" aria-hidden="true" d="M0,0h80.0390625v13.123724356957943h-80.0390625Z" pointer-events="none" opacity="1"/><g><g class="mark-symbol role-legend-symbol" pointer-events="none"><path transform="translate(7,7)" d="M-6.124,-6.124h12.247v12.247h-12.247Z" fill="#3F7D4E" stroke-width="1.5" opacity="1"/></g><g class="mark-text role-legend-label" pointer-events="none"><text text-anchor="start" transform="translate(18,11)" font-family="Liberation Sans" font-size="12px" fill="#2B2B2B" opacity="1">Myönteinen</text></g></g><path class="foreground" aria-hidden="true" d="" pointer-events="none" display="none"/></g><g transform="translate(172,0.4381378215210274)"><path class="background" aria-hidden="true" d="M0,0h66.0234375v13.123724356957943h-66.0234375Z" pointer-events="none" opacity="1"/><g><g class="mark-symbol role-legend-symbol" pointer-events="none"><path transform="translate(7,7)" d="M-6.124,-6.124h12.247v12.247h-12.247Z" fill="#9C9485" stroke-width="1.5" opacity="1"/></g><g class="mark-text role-legend-label" pointer-events="none"><text text-anchor="start" transform="translate(18,11)" font-family="Liberation Sans" font-size="12px" fill="#2B2B2B" opacity="1">Neutraali</text></g></g><path class="foreground" aria-hidden="true" d="" pointer-events="none" display="none"/></g></g></g><path class="foreground" aria-hidden="true" d="" pointer-events="none" display="none"/></g></g></g><path class="foreground" aria-hidden="true" d="" pointer-events="none" display="none"/></g></g><g class="mark-group role-title"><g transform="translate(-74.45361328125,-41)"><path class="background" aria-hidden="true" d="M0,0h0v0h0Z" pointer-events="none"/><g><g class="mark-text role-title-text" role="graphics-symbol" aria-roledescription="title" aria-label="Title text 'Millä kolmella sanalla kuvailisit mielikuvaasi Attendosta?'" pointer-events="none"><text text-anchor="start" transform="translate(0,12)" font-family="Liberation Sans" font-size="15px" font-weight="bold" fill="#2B2B2B" opacity="1">Millä kolmella sanalla kuvailisit mielikuvaasi Attendosta?</text></g><g class="mark-text role-title-subtitle" role="graphics-symbol" aria-roledescription="subtitle" aria-label="Subtitle text 'Spontaanit maininnat · TOP 10 · kaikki vastaajat, n=863 · Marraskuu 2025'" pointer-events="none"><text text-anchor="start" transform="translate(0,27)" font-family="Liberation Sans" font-size="11px" fill="#8A857B" opacity="1">Spontaanit maininnat · TOP 10 · kaikki vastaajat, n=863 · Marraskuu 2025</text></g></g><path class="foreground" aria-hidden="true" d="" pointer-events="none" display="none"/></g></g></g><path class="foreground" aria-hidden="true" d="" display="none"/></g></g></g><defs><clipPath id="clip1"><path d="M0,0L502.3658536585366,0C504.0215987320186,0,505.3658536585366,1.344254926518,505.3658536585366,3L505.3658536585366,19C505.3658536585366,20.655745073482,504.0215987320186,22,502.3658536585366,22L0,22C0,22,0,22,0,22L0,0C0,0,0,0,0,0Z"/></clipPath><clipPath id="clip2"><path d="M0,0L201.8780487804878,0C203.5337938539698,0,204.8780487804878,1.344254926518,204.8780487804878,3L204.8780487804878,19C204.8780487804878,20.655745073482,203.5337938539698,22,201.8780487804878,22L0,22C0,22,0,22,0,22L0,0C0,0,0,0,0,0Z"/></clipPath><clipPath id="clip3"><path d="M0,0L177.2926829268293,0C178.94842800031128,0,180.2926829268293,1.344254926518,180.2926829268293,3L180.2926829268293,19C180.2926829268293,20.655745073482,178.94842800031128,22,177.2926829268293,22L0,22C0,22,0,22,0,22L0,0C0,0,0,0,0,0Z"/></clipPath><clipPath id="clip4"><path d="M0,0L163.6341463414634,0C165.2898914149454,0,166.6341463414634,1.344254926518,166.6341463414634,3L166.6341463414634,19C166.6341463414634,20.655745073482,165.2898914149454,22,163.6341463414634,22L0,22C0,22,0,22,0,22L0,0C0,0,0,0,0,0Z"/></clipPath><clipPath id="clip5"><path d="M0,0L160.90243902439025,0C162.55818409787224,0,163.90243902439025,1.344254926518,163.90243902439025,3L163.90243902439025,19C163.90243902439025,20.655745073482,162.55818409787224,22,160.90243902439025,22L0,22C0,22,0,22,0,22L0,0C0,0,0,0,0,0Z"/></clipPath><clipPath id="clip6"><path d="M0,0L152.70731707317074,0C154.36306214665274,0,155.70731707317074,1.344254926518,155.70731707317074,3L155.70731707317074,19C155.70731707317074,20.655745073482,154.36306214665274,22,152.70731707317074,22L0,22C0,22,0,22,0,22L0,0C0,0,0,0,0,0Z"/></clipPath><clipPath id="clip7"><path d="M0,0L95.34146341463413,0C96.99720848811613,0,98.34146341463413,1.344254926518,98.34146341463413,3L98.34146341463413,19C98.34146341463413,20.655745073482,96.99720848811613,22,95.34146341463413,22L0,22C0,22,0,22,0,22L0,0C0,0,0,0,0,0Z"/></clipPath><clipPath id="clip8"><path d="M0,0L84.41463414634147,0C86.07037921982347,0,87.41463414634147,1.344254926518,87.41463414634147,3L87.41463414634147,19C87.41463414634147,20.655745073482,86.07037921982347,22,84.41463414634147,22L0,22C0,22,0,22,0,22L0,0C0,0,0,0,0,0Z"/></clipPath><clipPath id="clip9"><path d="M0,0L84.41463414634147,0C86.07037921982347,0,87.41463414634147,1.344254926518,87.41463414634147,3L87.41463414634147,19C87.41463414634147,20.655745073482,86.07037921982347,22,84.41463414634147,22L0,22C0,22,0,22,0,22L0,0C0,0,0,0,0,0Z"/></clipPath><clipPath id="clip10"><path d="M0,0L70.75609756097562,0C72.41184263445761,0,73.75609756097562,1.344254926518,73.75609756097562,3L73.75609756097562,19C73.75609756097562,20.655745073482,72.41184263445761,22,70.75609756097562,22L0,22C0,22,0,22,0,22L0,0C0,0,0,0,0,0Z"/></clipPath></defs></svg>